/* XPM */
static char *audacious_32[] = {
/* columns rows colors chars-per-pixel */
"32 32 108 2 ",
"   c #000000",
".  c #010101",
"X  c #020202",
"o  c #030303",
"O  c #050505",
"+  c #060606",
"@  c #070707",
"#  c #080808",
"$  c #0A0A0A",
"%  c #0C0C0C",
"&  c #0E0E0E",
"*  c #0F0F0F",
"=  c #101010",
"-  c #111111",
";  c #131313",
":  c #141414",
">  c #151515",
",  c #161616",
"<  c #191919",
"1  c #1C1C1C",
"2  c #1D1D1D",
"3  c #202020",
"4  c #242424",
"5  c #252525",
"6  c #282828",
"7  c #2A2A2A",
"8  c #2B2B2B",
"9  c #2C2C2C",
"0  c #2D2D2D",
"q  c #2E2E2E",
"w  c #303030",
"e  c #313131",
"r  c #323232",
"t  c #373737",
"y  c #383838",
"u  c #3A3A3A",
"i  c #414141",
"p  c #434343",
"a  c #444444",
"s  c #464646",
"d  c #4D4D4D",
"f  c #515151",
"g  c #535353",
"h  c #545454",
"j  c #555555",
"k  c #565656",
"l  c #575757",
"z  c #585858",
"x  c #595959",
"c  c #5A5A5A",
"v  c #5C5C5C",
"b  c #5E5E5E",
"n  c #616161",
"m  c #646464",
"M  c #656565",
"N  c #666666",
"B  c #676767",
"V  c #696969",
"C  c #6B6B6B",
"Z  c #6C6C6C",
"A  c #727272",
"S  c #838383",
"D  c #848484",
"F  c #858585",
"G  c #868686",
"H  c #888888",
"J  c #8A8A8A",
"K  c #8E8E8E",
"L  c #909090",
"P  c #929292",
"I  c #939393",
"U  c #949494",
"Y  c #A1A1A1",
"T  c #A4A4A4",
"R  c #A9A9A9",
"E  c #AFAFAF",
"W  c #B1B1B1",
"Q  c #B2B2B2",
"!  c #B3B3B3",
"~  c #B7B7B7",
"^  c #BABABA",
"/  c #BBBBBB",
"(  c #BEBEBE",
")  c #BFBFBF",
"_  c #C0C0C0",
"`  c #C1C1C1",
"'  c #C5C5C5",
"]  c #C6C6C6",
"[  c #C8C8C8",
"{  c #C9C9C9",
"}  c #CBCBCB",
"|  c #CCCCCC",
" . c #CDCDCD",
".. c #CECECE",
"X. c #CFCFCF",
"o. c #D1D1D1",
"O. c #D2D2D2",
"+. c #D3D3D3",
"@. c #D4D4D4",
"#. c #D5D5D5",
"$. c #D7D7D7",
"%. c #D8D8D8",
"&. c #D9D9D9",
"*. c #DADADA",
"=. c #DBDBDB",
"-. c #DCDCDC",
";. c #DDDDDD",
":. c None",
/* pixels */
":.:.:.:.:.:.:.:.:.:.:.:.                :.:.:.:.:.:.:.:.:.:.:.:.",
":.:.:.:.:.:.:.:.:.                            :.:.:.:.:.:.:.:.:.",
":.:.:.:.:.:.:.                                    :.:.:.:.:.:.:.",
":.:.:.:.:.:.              % ; , ; ; #               :.:.:.:.:.:.",
":.:.:.:.:.          # w M I Q ( ` Q I n 9 #           :.:.:.:.:.",
":.:.:.:.          9 D ` =.=.=.=.=.=.=.=.` D 8           :.:.:.:.",
":.:.:.        # l / =.=.=.$.=.=.=.=.$.=.=.=./ l #         :.:.:.",
":.:.        + M } =.=.$.=.=.=.=.=.$.=.$.=.=.=.} M +         :.:.",
":.:.        x | =.$.=.=.-.=.=.o.o.=.=.=.$.=.=.=.} l +       :.:.",
":.        9 / =.=.=.=.| U A v p p h S ( =.=.$.$.=./ 9         :.",
":.      + D =.=.$.=.o.V %           + 8 I o.=.=.=.=.S #       :.",
":.      w ( =.$.=.=.' t                 2 R =.=.$.=.( 9       :.",
"        M =.$.=.$.=.$.U x n M x ,         Z $.=.=.$.=.n         ",
"      # I =.=.$.$.=.=.-.=.| / H 3         a | =.$.=.=.I #       ",
"      ; Q =.=.=.=.=.=.` V t , #           5 ' $.=.$.=.Q ;       ",
"      ; ` =.=.$.$.=.~ u                   2 ' =.=.=.=.( ,       ",
"      , ( =.$.=.=.| d       # w 9 +       u | =.=.$.=.( ;       ",
"      ; Q =.=.$.=.( ,       5 E Y 1       h o.=.$.=.=.Q %       ",
"      # I =.$.=.=.( ,       % n h +       n o.=.=.=.=.I #       ",
"        M =.=.=.=.| u                     a | =.$.=.=.n +       ",
":.      w ` -.=.=.$.K ;           +       x o.=.=.-.` w       :.",
":.      # D -.=.=.=.o.I w % 1 h H I l 8 h ~ =.$.=.-.D #       :.",
":.        9 / =.$.=.=.=.' T E o.-.=.o.' o.=.=.=.=./ 9         :.",
":.:.        l } =.$.=.$.=.=.=.=.=.=.=.=.=.$.$.=.} l         :.:.",
":.:.        + M | =.=.=.$.=.$.=.=.$.=.$.=.=.=.| n +         :.:.",
":.:.:.        # l / =.=.=.$.=.=.=.=.$.=.=.=./ l #         :.:.:.",
":.:.:.:.        + 9 D ` =.=.=.=.=.=.=.=.( S 8           :.:.:.:.",
":.:.:.:.:.          # w M I E ( ( E I M 9 +           :.:.:.:.:.",
":.:.:.:.:.:.              # ; ; ; ; #               :.:.:.:.:.:.",
":.:.:.:.:.:.:.                                    :.:.:.:.:.:.:.",
":.:.:.:.:.:.:.:.:.                            :.:.:.:.:.:.:.:.:.",
":.:.:.:.:.:.:.:.:.:.:.:.                :.:.:.:.:.:.:.:.:.:.:.:."
};
