/* XPM */
static char *baobab[] = {
/* columns rows colors chars-per-pixel */
"32 28 229 2",
"   c #004900450049",
".  c #000014660000",
"X  c #00001F840000",
"o  c #1C6E1C631C6E",
"O  c #049423950340",
"+  c #02872F230000",
"@  c #00623F6F0007",
"#  c #0C85400506A3",
"$  c #14FD38000000",
"%  c #12A83A860001",
"&  c #1B0B365F000C",
"*  c #18A838C50003",
"=  c #285E1424027E",
"-  c #280F32D801E2",
";  c #26963B590D74",
":  c #29C231C90000",
">  c #244D243D243D",
",  c #2E772E9A2E36",
"<  c #323D3B5326BC",
"1  c #008B437B006A",
"2  c #000F4B360011",
"3  c #0C3445590BD8",
"4  c #0CFE4B3E0CE6",
"5  c #000353820000",
"6  c #00005C5E0000",
"7  c #12BC41C30000",
"8  c #10F146F91094",
"9  c #155A4DA0150D",
"0  c #19AF4F7D1997",
"q  c #161E511E1617",
"w  c #000062750000",
"e  c #00006D390000",
"r  c #22AF522C1F1B",
"t  c #308B42C71CD7",
"y  c #2FE04EF2203D",
"u  c #29E657D22979",
"i  c #30794B6322C0",
"p  c #3152506721FC",
"a  c #31B95E2B3177",
"s  c #2E5F624B2F99",
"d  c #37F161B937F5",
"f  c #3E9865783E83",
"g  c #42EE25000003",
"h  c #41F229FD02EC",
"j  c #457629DA0E29",
"k  c #4B4221C60172",
"l  c #5ACD238C06D7",
"z  c #5CE635292474",
"x  c #7F82402C3A66",
"c  c #43F14C4D22E4",
"v  c #405150952DFE",
"b  c #48B253483C38",
"n  c #55FC54883E2A",
"m  c #58DE6C723DA9",
"M  c #697548862729",
"N  c #61584DCE3CE8",
"B  c #452D45844531",
"V  c #4AF64A714A46",
"C  c #45615B3B4403",
"Z  c #4ED9519A5194",
"A  c #52D74F254C79",
"S  c #552D567A4FC6",
"D  c #5C525B864D1F",
"F  c #5226524151E9",
"G  c #54ED5885580B",
"H  c #5C7E5B3B5C93",
"J  c #5DAD604D6835",
"K  c #475E6DBA4764",
"L  c #4A6870884A70",
"P  c #578478B7578C",
"I  c #4E2461D96D96",
"U  c #40CF65187AD2",
"Y  c #45D06EF17C80",
"T  c #66844B1358B2",
"R  c #65E553AE4668",
"E  c #6C2050E84FAA",
"W  c #7EEA5157514B",
"Q  c #6564788C5E0D",
"!  c #629864CB622F",
"~  c #6AE66C1F6B78",
"^  c #6E72726E71E1",
"/  c #791F6939735B",
"(  c #726570D17041",
")  c #73DF75A77583",
"_  c #7C0E7FFC7A59",
"`  c #1476729FA6F0",
"'  c #1B4F788CAD20",
"]  c #2541777A9675",
"[  c #296A7C4D9B64",
"{  c #21AC7428A25B",
"}  c #23F17EB4AFB3",
"|  c #632584BA3B30",
" . c #6D89888D6D8F",
".. c #74A68CC074A2",
"X. c #7AB986D97A96",
"o. c #76C791D476C7",
"O. c #40368FDDBA49",
"+. c #6114A08BB7CC",
"@. c #870039E637E7",
"#. c #99FF3DC43D1A",
"$. c #B8C425571C93",
"%. c #A43A3B5B302A",
"&. c #B39438D63936",
"*. c #AB7944BB3480",
"=. c #B54944763A17",
"-. c #865149595B4E",
";. c #88216246544D",
":. c #856064586350",
">. c #8D8E63006376",
",. c #84F17B987B1D",
"<. c #9CDF6AB36A5E",
"1. c #A3F4495247FC",
"2. c #AA7D542F52A2",
"3. c #B883440F4D8F",
"4. c #B2F550FD502C",
"5. c #B6EF553D551E",
"6. c #BE6553CD53E9",
"7. c #AA20792A77DE",
"8. c #C52331263125",
"9. c #C3F539523966",
"0. c #C9B632573257",
"q. c #D2E834BD3595",
"w. c #D45D3E7F39DC",
"e. c #DCFB33BE345B",
"r. c #EFEF2743271A",
"t. c #EF38274A2916",
"y. c #EE532B1E2A67",
"u. c #E5ED31DE31BA",
"i. c #E1F23FEB3FED",
"p. c #EC6134BE34A4",
"a. c #D51639D341AB",
"s. c #D4B33FFF4D18",
"d. c #E9AC3FEA40D5",
"f. c #EDA643402A9A",
"g. c #CF5150E45D19",
"h. c #DF93542F54E9",
"j. c #C30969B967BB",
"k. c #CD716AE56A23",
"l. c #C87E7CBA7CA5",
"z. c #CB097AAE7AB6",
"x. c #EAF84D5C4DDE",
"c. c #F3E746EF46EF",
"v. c #F5754D564C0C",
"b. c #F49A7016454A",
"n. c #8E827764900D",
"m. c #97A795B7262A",
"M. c #A365A3CD0F86",
"N. c #A4C9A51F1029",
"B. c #AAE1A295156E",
"V. c #B6E9AD710000",
"C. c #B8EDB01F0000",
"Z. c #B4A8ADF31365",
"A. c #BB07B3BF000A",
"S. c #B8F38DD54179",
"D. c #BED6C7F35B9E",
"F. c #C983C0330A82",
"G. c #DDCE91B154BD",
"H. c #E8D58CBE4156",
"J. c #F36C9E615B35",
"K. c #EAA5A9D241D5",
"L. c #F3E3AA30451A",
"P. c #F111BE995BFF",
"I. c #C792C1090000",
"U. c #D75FCC6B1AF4",
"Y. c #E02CD8C61E53",
"T. c #D030C4D527C3",
"R. c #E76CDC6C1AE2",
"E. c #E4B1D67F3DAA",
"W. c #F0F0E9163FFB",
"Q. c #D7F8CDE04804",
"!. c #DFD7DA704D87",
"~. c #FE86EEE44E0F",
"^. c #EE34E77E647E",
"/. c #EBF0E9BC6E78",
"(. c #EF1BEAC17A82",
"). c #F30BE4377DEB",
"_. c #824C821D821B",
"`. c #8E9D8C858A91",
"'. c #8D1D90189097",
"]. c #845B9A928462",
"[. c #89079C1C890C",
"{. c #94DB84B78ECB",
"}. c #95A38BDE821B",
"|. c #96968A188F1A",
" X c #911493A78EAB",
".X c #937E9A748E06",
"XX c #9639993A9296",
"oX c #996F990297D2",
"OX c #9DC19D739CFD",
"+X c #92588B24A666",
"@X c #91939AC6B9ED",
"#X c #8A45A20A8A47",
"$X c #981EA2F28BCE",
"%X c #9B65ABFA8E80",
"&X c #9513A8119492",
"*X c #96F0ABAF96E4",
"=X c #9C5EAECD9C59",
"-X c #9EB7B19E9EC5",
";X c #9E26B8E0B7D0",
":X c #B66A99AC99B5",
">X c #A4ECA629A633",
",X c #AD47AD9AAD2A",
"<X c #B022BB45AFEE",
"1X c #AEC7B1F3B166",
"2X c #B2BCB01DB109",
"3X c #B50AB560B451",
"4X c #B64DBBAAB633",
"5X c #BBA8BBD0BBAD",
"6X c #B989C267B8D8",
"7X c #C2CD83BD8373",
"8X c #C872A40DAC75",
"9X c #C135B4E8ADEA",
"0X c #CD1CDAC284E6",
"qX c #F6E6EE8E8373",
"wX c #F1F1EF438A2A",
"eX c #C49CC7E2C759",
"rX c #C678CAF0CA87",
"tX c #CC39CDB1CD56",
"yX c #CD6CD2CACD5F",
"uX c #D47AD519D47A",
"iX c #D875D8FDD87A",
"pX c #DC9EDDFEDC46",
"aX c #E065E19FE061",
"sX c #E66CE6A4E655",
"dX c #E8DEE8F2E8DE",
"fX c #E92BE88CE92F",
"gX c #ECBDEC99ECAC",
"hX c #F1DAF1C5F1D4",
"jX c None",
/* pixels */
"jXjXjXjXjXjXjXjX6 w w 6 w 2 2 @ 2 2 2 5 jXjXjXjXjXjXjXjXjXjXjXjX",
"jXjXjXjXjX2 2 2 2 2 2 2 2 2 @ @ @ @ 1 2 2 2 2 2 jXjXjXjXjXjXjXjX",
"jXjXjXjXjX2 1 @ 1 @ @ @ @ @ @ @ @ @ @ @ @ @ 1 2 jXjXjXjXjXjXjXjX",
"jXjXjXjXjX2 1 @ @ @ @ @ @ @ @ @ @ 1 @ @ @ @ @ 2 2 jXjXjXjXjXjXjX",
"jXjXjXjX2 2 @ @ @ @ @ @ @ @ @ @ @ @ @ @ @ 1 @ 1 2 2 5 6 jXjXjXjX",
"jXjX6 2 1 1 @ @ @ @ @ @ @ 1 @ @ @ @ @ @ @ @ @ @ 1 @ 2 5 jXjXjXjX",
"jX6 2 1 @ @ @ @ @ @ @ @ @ @ @ @ @ @ @ @ @ @ @ @ @ @ @ 2 5 5 jXjX",
"jX2 1 @ @ @ @ @ @ @ @ @ @ @ @ 1 @ @ @ @ @ @ @ @ @ @ @ @ 2 5 e jX",
"jX2 @ @ 4 q q q q 0 q 4 9 9 q 0 9 9 3 3 @ @ @ @ @ @ 1 2 2 2 2 jX",
"jX2 1 3 K #X&X*X*X*X*X-X-X-X-X*X&X#Xo.d @ @ @ @ @ @ 2 2 5 1 2 6 ",
"jX2 1 9 #XaXgXgXhXhXhXhXgXhXfXdXdXsXtX .8 @ @ @ @ @ @ @ 1 @ 2 6 ",
"2 1 @ u >XgXhXhXhXhXhXhXgXhXgXgXdXdXpX[.0 @ @ @ @ @ @ @ @ @ 2 w ",
"2 1 @ K 4XfXgXgXhXhXhXhXgXgXgXgXdXdXaX=Xu @ @ @ @ @ @ @ @ @ 2 5 ",
"2 1 # P yXfXgXgXgXgXhXgXgXgXgXfXdXsXsX4XK @ @ @ @ @ @ @ @ @ @ 2 ",
"2 @ 3 ..pXfXfXfXgXgXgXgXgXgXdXdXsXsXsXyXQ # 1 1 1 @ @ @ @ @ @ 1 ",
"2 @ 9 &XsXfXgXgXgXgXgXgXdXgXdXdXdXsXsXpX}.< O 7 * @ @ @ @ @ @ 2 ",
"2 1 a <XsXaXdXfXfXfXfXfXdXdXsXsXaXaXpXpX3XA = g g % 2 @ @ @ @ 2 ",
"5 4 K 4XuXuXuXuXiXuXpXuXuXuXtXtXtXrXeXeX2XN k l ;.8X2 2 @ @ 2 2 ",
"6 C X.,X3X>X X.X%X XOX5X5X5X5X,X:X7Xl.z.j.%.$.p.x.h.*.M i u a 2 ",
"jXF _ OXOX_.F m | b J |.OXOX,.5.d.y.r.t.t.t.y.y.t.r.y.u.w.=.:.) ",
"jXH {.,X3X>XXX$X%X.XOX3X3X1X7.p.t.t.y.t.t.f.H.G.k.g.s.a.u.u.6.>X",
"jXB ) OX1X2X,X2X3X3X3X4X3X1X<.e.u.c.c.v.b.P.(./.0X;X@X+Xn.3.4.^ ",
"jX> , B H F F F V V B B B F -.9.0.e.c.J.).wXqX^.!.D.+.O.} -.1.G ",
"jX                        B ;.9.8.0.0.K.W.Y.U.F.V.M.] ` ` -.2.) ",
"jX                    . X C R @.&.q.e.L.~.R.F.A.V.N.[ ' { T E ~ ",
"jXjXjXjXjXjXjXjXjXjX@ 1 @ $ g j z x #.S.Q.E.T.Z.B.m.Y U I J V H ",
"jXjXjXjXjXjXjXjXjX@ @ @ @ $ & : - ; t y y t v n n D ! ( `.oXjXjX",
"jXjXjXjXjXjXjXjXjX@ @ @ @ @ @ @ @ @ @ @ @ 2 @ jXjXjXjXjXjXjXjXjX"
};
