/* XPM */
static char *cmake[] = {
/* columns rows colors chars-per-pixel */
"32 30 8 1",
"  c #000000",
"r c #FF0000",
"g c #007f00",
"b c #0000FF",
"X c #007F7F",
"+ c #7F7F00",
"& c #B2B2B2",
"- c None",
/* pixels */
"---------------&&---------------",
"---------------b&---------------",
"--------------&br&--------------",
"-------------&bbr&--------------",
"-------------&bbrr&-------------",
"-------------bbbrr&-------------",
"------------&bbbrrr&------------",
"-----------&bbbbrrr&------------",
"-----------&bbbbrrrr------------",
"-----------bbbbbrrrr&-----------",
"----------&bbbbbrrrrr&----------",
"----------bbbbbbbrrrrr----------",
"---------&bbbbbbbrrrrr&---------",
"---------bbbbbbbbrrrrrr---------",
"--------&bbbbbbbbrrrrrr&--------",
"-------&bbbbbbbbbbrrrrr&--------",
"-------&bbbbbbbbbbrrrrrr&-------",
"-------bbbbbbbbb&rrrrrrr&-------",
"------&bbbbbbb&&&&rrrrrrr&------",
"-----&&bbbbbb&&&&&rrrrrrrr------",
"----&&bbbbb&&&&&&&rrrrrrrr&-----",
"----&bbbbbX&&&&&&&&rrrrrrrr-----",
"----&bbbbXg&&&&&&&&rrrrrrrr&----",
"---&bbbXgggggg&&&&&&rrrrrrrr----",
"---&bbXXggggggggg&&&rrrrrrrr&---",
"--&bbXggggggggggggg&rrrrrrrrr---",
"--&bXgggggggggggggggg+rrrrrrr&--",
"-&bXgggggggggggggggggggg++rrrr--",
"-bXggggggggggggggggggggggg++rr&&",
"&gggggggggggggggggggggggggggg+r-"
};
