/* XPM */
static char *display_im6[] = {
/* columns rows colors chars-per-pixel */
"31 32 217 2 ",
"   c #30AE27A239F8",
".  c #786A1ECF26E3",
"X  c #5A0D21A82389",
"o  c #7D611FF6341D",
"O  c #1B2520CD5503",
"+  c #245F26FB42A8",
"@  c #241B217949F3",
"#  c #256429344B4D",
"$  c #311B21B64BB8",
"%  c #32D4289A5E2A",
"&  c #2A5E306A550E",
"*  c #3B58350C528E",
"=  c #33BC392555A9",
"-  c #1A9624AA60D8",
";  c #232428F162E4",
":  c #25932CD66E06",
">  c #2D1833DB6600",
",  c #22A52CA570C1",
"<  c #2EB13A3C7413",
"1  c #24DC31C47AC8",
"2  c #294D33A8787F",
"3  c #2A2638877EAA",
"4  c #3FA244925C65",
"5  c #3E28447D72A9",
"6  c #366941BE7C42",
"7  c #37BF43E67F45",
"8  c #3F8B4F697EAD",
"9  c #51CE46CB468A",
"0  c #42FD44B6514B",
"q  c #453345015CAF",
"w  c #5AA14DCC5514",
"e  c #5C5251D55DD6",
"r  c #7B0853C747FD",
"t  c #6B1454625232",
"y  c #610F5DA35561",
"u  c #65A45F4F58D7",
"i  c #73615D23546A",
"p  c #623A65FC5DA1",
"a  c #481942826E20",
"s  c #4E38556C6CB1",
"d  c #5D245CE26497",
"f  c #56D559F86E44",
"g  c #4DB75C6E7FC6",
"h  c #51D1544D72B2",
"j  c #5ABA5C817482",
"k  c #52B756F87B84",
"l  c #51865F597847",
"z  c #587A5BDE7FF2",
"x  c #5BFC6455661A",
"c  c #560361F87527",
"v  c #6028612E63D4",
"b  c #6C3E65096005",
"n  c #66AD714C6B75",
"m  c #7229717960B5",
"M  c #7DBD7FD361B5",
"N  c #671B67DF71C0",
"B  c #7CDA69C274C9",
"V  c #6F32764D733A",
"C  c #6F4671387F45",
"Z  c #7B48748E778F",
"A  c #7BE874B77BFC",
"S  c #7DDD7C6F7D2D",
"D  c #81E8433035BA",
"F  c #893F579C4291",
"G  c #9E5956F043E4",
"H  c #8CB561494DFF",
"J  c #98C86C6358F8",
"K  c #A5B862DC42E9",
"L  c #BBA96F184D15",
"P  c #897977F76F89",
"I  c #95C877A069A4",
"U  c #81FC797D7869",
"Y  c #980B7848731E",
"T  c #B3CE70EF71F5",
"R  c #BDA679747B26",
"E  c #C06E67A24018",
"W  c #C68D6869409A",
"Q  c #C1466EA54CDB",
"!  c #CDBD74674E36",
"~  c #C18C7E3A60E0",
"^  c #FFFF61C961C9",
"/  c #FFFF7549754E",
"(  c #FFFF7D797D9E",
")  c #7A1784EA6753",
"_  c #8F84970053A2",
"`  c #962B9D7D559B",
"'  c #9C0EA1BD4D69",
"]  c #85898E9C6073",
"[  c #843B80A87F04",
"{  c #9A63813975D3",
"}  c #AB10834C73F4",
"|  c #D11E867367BE",
" . c #25B1350082C9",
".. c #273E394C86C4",
"X. c #257237268D13",
"o. c #267B38588EBA",
"O. c #299138DC8BA0",
"+. c #26AE38E290E2",
"@. c #29793BB49376",
"#. c #3592434285E1",
"$. c #3C034C6D89B7",
"%. c #42B04E4E8708",
"&. c #40C64D238952",
"*. c #415450AE80EE",
"=. c #488D542481D2",
"-. c #4B0A56608D22",
";. c #51D6586781AB",
":. c #55C75E708934",
">. c #57B962F4837C",
",. c #5F02651C84A7",
"<. c #5DD5651B891A",
"1. c #63536C7E86CC",
"2. c #63106A1A8CE9",
"3. c #6E27756681FF",
"4. c #7BCA7A2A83B7",
"5. c #7F747D928C2F",
"6. c #6B7270CB90C9",
"7. c #6F4376B49B39",
"8. c #764B7E4B9AC2",
"9. c #7DD7820B9870",
"0. c #83AF837B837D",
"q. c #83E0843B89B5",
"w. c #846A876795BD",
"e. c #8CAB8BF595F3",
"r. c #87CF8A6B9C55",
"t. c #8A218C3B9AC8",
"y. c #8B4C907D99D7",
"u. c #940B91F7959B",
"i. c #990D9896974D",
"p. c #977F969B995F",
"a. c #AF9B95B689E6",
"s. c #BD229C0D8DCA",
"d. c #A0C69F739FA3",
"f. c #B8519EEC93E9",
"g. c #86748C2CA667",
"h. c #8F9493A3A7ED",
"j. c #90A095C9A4C4",
"k. c #9CED9F99AD54",
"l. c #9F4BA1D7AEBE",
"z. c #A335A1BAA1EA",
"x. c #AB9DA241A244",
"c. c #AD22AC6CABFE",
"v. c #B2B6AF99AE05",
"b. c #A73AA9BBB67E",
"n. c #A1A1A632B838",
"m. c #B72FB6AAB636",
"M. c #BDADBC5ABC09",
"N. c #FFFF839283BA",
"B. c #FFF68827866D",
"V. c #FFFF8D058D24",
"C. c #FFFF94C594CA",
"Z. c #FFFF9C849C8F",
"A. c #CCC9A87798AA",
"S. c #CD30B1C39C3B",
"D. c #C949B4C8ABE5",
"F. c #D7EDBA0CACDA",
"G. c #CFB1BBA6B1FB",
"H. c #C12DBFD9BF7B",
"J. c #D47FB6DEB795",
"K. c #FFFFA65FA664",
"L. c #FFFFAF0EAF4D",
"P. c #FFFFB0FCB132",
"I. c #FFFFBD42BD42",
"U. c #C528C4989EFF",
"Y. c #CAA7CA1EA7E9",
"T. c #CBA7CB10A8DB",
"R. c #D0B2D043B2E5",
"E. c #D30BC610C012",
"W. c #D2BED24AB623",
"Q. c #D731D74ABEAF",
"!. c #AB27AF93C062",
"~. c #B8C9BCD6CC7C",
"^. c #C491C476C409",
"/. c #C2FDC478CC21",
"(. c #CADDCB2DCD3B",
"). c #D8A7D847C091",
"_. c #DA12D9CFC35E",
"`. c #DE0CDDC2CA35",
"'. c #C7C8C958D11D",
"]. c #CE60CF6ED4F5",
"[. c #D007D121D625",
"{. c #D40CD430D5BF",
"}. c #D71ED763D8F0",
"|. c #DBC0DBEBDCD2",
" X c #FFFDC61CC5C6",
".X c #FF58CBBBC2CB",
"XX c #FFFFCE66CE67",
"oX c #E5E3DD15C34E",
"OX c #E6B8DBF8D6A1",
"+X c #FFFFD31AD318",
"@X c #FF16DB81DB12",
"#X c #E5EAE30AC101",
"$X c #E517E4D7D617",
"%X c #EC69E5B4D4E4",
"&X c #EDF6EBFDD5A3",
"*X c #E68DE595DB1F",
"=X c #EC39E0C9DBFC",
"-X c #EBE8EAFFDDCC",
";X c #FFB7E27ED4A8",
":X c #F5C4F19BDEC9",
">X c #DD90DE73E424",
",X c #E61BE507E4BC",
"<X c #ECD7E668E35A",
"1X c #ECE5EC54E54A",
"2X c #E5C4E62BEA41",
"3X c #ECAEEC76EC37",
"4X c #FFFFE1D9E1F0",
"5X c #FEACEB67EAFB",
"6X c #FFAEF559E5EB",
"7X c #F2C6F2BCEDA4",
"8X c #FD1AF869EC7F",
"9X c #FF63FBCFED09",
"0X c #EFCCF118F0E2",
"qX c #F575F563F4AE",
"wX c #FDC0F52CF4B0",
"eX c #FE46FCDEF646",
"rX c #FFC6FFB7FF9F",
/* pixels */
"rXrXrXrXrXrXqXrXrX9XeXrXeXeXqXrXrXrXrXrXrXrXrXrXrXrXrXrXrXrXrX",
"rXrXrX9XrXrXY.-XrXrXrXeXeX_.Q.rXrXeXrXrXrXrXrXrXrXrXrXrXrXrXrX",
"rXrXrXrXrXrX7XeX4XXX+XwXeXwX7XrXrXeXrXrXrXrXrXrXrXrXrXrXrXrXrX",
"rXrX7X).rXrXwXwXC.^ ( ( C.Z.P.@X5XwXrXrXrXrXrXrXrXrXrXrXrXrXrX",
"rXrX7X_.wX@XN.L. XV.K.Z.N./ B.C.(  XrXeXrXrXrXrXrXrXeX>Xv.(.rX",
"6XrXrXrXXX( ( .X8XrXeXeX@X@X5X XV.XXrXeXeXrXrXrXrX>Xj.m S 0XrX",
"rXrXrXXX/ N.P.7XT.rX_._.rXrXrXrX6XeX7X`.rXrXrX0Xn.z x y (.rXrX",
"rXrX5XC.B.;XeXqX<X7X1X7XrXqX`.rXrXrX1X_.rXrX>X8.' n 4 q.rXrXrX",
"U.7XP.N.@XeXrXR.1X:X&X*XW.7XW.eXrXrXrXrXrX[.1.*.` p q {.rXrXrX",
"$X@XV.K.rX9XeX-X7X9X#X7X1XrXrXrX9XrXrXrX{.V l g c 4 e.rXrXrXrX",
"rX5XI.+XrXrXrXrXrXrX&X&XrXrXrXrXrXrXrX2X3._ $.=.d u }.rXrXrXrX",
"rXrXrXrXrXrXrXrXrXrXeXoXwXrXrXrXrXrXqXy.8 ) ] M t Z eXrXrXrXrX",
"rXrXrXrX`.$XrXrXrXrXrX%XS.F.<XrXrXeXw.y b v x s * 5.rXrXrXrXrX",
"rXrXrXrX$X1XrXrXrXrXrXOXK E Y !.rXqX4.r Q F F i 9 u.rXrXrXrXrX",
"rXrXrXrXrXrXrXrXrXrXrXqXs.W G >.0XrXG.I L P ~ | U Z rXrXrXrXrX",
"rXrXrXrXrXrXrXrXrXrXrXrXqXB D a ~.rXE.D.A.a.! L J f.rXrXrXrXrX",
"rXrXrXrXrXrXrXrXrXrXrXrXqX;.@ 2 -.'.^./.(.v.~ } { =XrXrXrXrXrX",
"rXrXrXrXrXrXrXrXrXrXrXrXqXk O  .+.&.k.eX3X2X,Xd.m.rXrXrXrXrXrX",
"rXrXrXrXrXrXrXrXrXrXrXrXrX6.- , O.X.7.rXrXrX0Xz.c.rXrXrXrXrXrX",
"rXrXrXrXrXrXrXrXrXrXrXrXrX'.9.h ;  .:.0XrXrXeXm.0.3XrXrXrXrXrX",
"rXrXrXrXrXrXrXrXrXrXrXrXrXrXrX3Xe.> 6 }.rXrXrX{.N <./.qXrXrXrX",
"rXrXrXrXrXrXrXrXrXrXrXrXrXrXrXrXrXr.1 l.rXrXrX3Xp.< #.6.7XrXrX",
"rXrXrXrXrXrXrXrXrXrXrXrXrXrXrXrXrX/.3 :.0XrXrXeX^.f 1 5 2XrXrX",
"rXrXrXrXrXrXrXrXrXrXrXrXrXrXrXrXrX}.7 ..b.rXrXrX2Xu.> k qXrXrX",
"rXrXrXrXrXrXrXrXrXrXrXrXrXrXrXrXrX3X=.+.%.{.rXrX0XM.d A eXrXrX",
"rXrXrXrXrXrXrXrXrXrXrXrXrXrXrXrXrXeX2.o.o.-./.qX3XH.[ H =XrXrX",
"rXrXrXrXrXrXrXrXrXrXrXrXrXrXrXrXrXrXh.X.@.@.#.,.C N q e ,XrXrX",
"rXrXrXrXrXrXrXrXrXrXrXrXrXrXrXrXrXrX].#.@.@.@.+. . .1 ; j }.rX",
"rXrXrXrXrXrXrXrXrXrXrXrXrXrXrXrXrXrXeXg...@.@.@.@.@.O.: O t.rX",
"rXrXrXrXrXrXrXrXrXrXrXrXrXrXrXrXrXrXqXR o %  .+.@.O.1 ; $ w ^.",
"rXrXrXrXrXrXrXrXrXrXrXrXrXrXrXrXrXrXrXJ.T t 0 = & # +   . X q.",
"rXrXrXrXrXrXrXrXrXrXrXrXrXrXrXrXrXrXrXrXrX7X}.m.i.[ S d.x.x.|."
};
