/* XPM */
static char * leafpad_xpm[] = {
"32 32 224 2",
"  	c None",
". 	c #282724",
"+ 	c #000000",
"@ 	c #FEFEFE",
"# 	c #FCFDFC",
"$ 	c #FCFCFC",
"% 	c #FBFBFB",
"& 	c #FBFBFA",
"* 	c #FAFAF9",
"= 	c #F9F9F9",
"- 	c #F8F9F8",
"; 	c #F8F8F8",
"> 	c #F7F7F7",
", 	c #F6F7F7",
"' 	c #F6F6F6",
") 	c #F5F5F5",
"! 	c #F4F4F4",
"~ 	c #F3F3F3",
"{ 	c #F3F2F3",
"] 	c #F2F2F2",
"^ 	c #F1F1F1",
"/ 	c #CFCFCF",
"( 	c #FDFEFE",
"_ 	c #FBFCFC",
": 	c #FAFBFA",
"< 	c #FAFAFA",
"[ 	c #F4F5F4",
"} 	c #F4F3F3",
"| 	c #F2F3F2",
"1 	c #F2F1F2",
"2 	c #F2F1F1",
"3 	c #F1F0F0",
"4 	c #FDFEFD",
"5 	c #96938D",
"6 	c #A8A6A0",
"7 	c #A8A5A0",
"8 	c #A7A59F",
"9 	c #C1BFBB",
"0 	c #F1F2F2",
"a 	c #F1F1F0",
"b 	c #F0F1F0",
"c 	c #EFEFF0",
"d 	c #CFCECF",
"e 	c #FDFDFD",
"f 	c #FAF9F9",
"g 	c #F9F9F8",
"h 	c #F8F7F8",
"i 	c #F6F7F6",
"j 	c #F5F5F6",
"k 	c #F4F5F5",
"l 	c #F4F3F4",
"m 	c #F3F2F2",
"n 	c #F2F2F1",
"o 	c #F0F0F0",
"p 	c #EFF0EF",
"q 	c #EFEFEE",
"r 	c #CECECE",
"s 	c #F4F4F3",
"t 	c #F3F3F2",
"u 	c #EFEFEF",
"v 	c #EEEFEE",
"w 	c #EDEEEE",
"x 	c #95928C",
"y 	c #A6A49F",
"z 	c #A6A49E",
"A 	c #A5A39D",
"B 	c #A4A29C",
"C 	c #EDEDED",
"D 	c #F7F6F7",
"E 	c #F1F0F1",
"F 	c #EFEEEF",
"G 	c #EEEEEE",
"H 	c #EEEDED",
"I 	c #EDECED",
"J 	c #ECECEC",
"K 	c #CDCDCE",
"L 	c #A6A59E",
"M 	c #A6A49D",
"N 	c #918E88",
"O 	c #EBEBEC",
"P 	c #CDCDCD",
"Q 	c #F0EFF0",
"R 	c #EDECEC",
"S 	c #EBECEC",
"T 	c #EBEBEB",
"U 	c #EAEAEA",
"V 	c #94918B",
"W 	c #A4A39C",
"X 	c #A4A29B",
"Y 	c #A3A19B",
"Z 	c #EAE9EA",
"` 	c #F3F4F3",
" .	c #EEEFEF",
"..	c #EBEAEA",
"+.	c #E9E9E9",
"@.	c #E8E9E9",
"#.	c #CCCCCC",
"$.	c #73726E",
"%.	c #2F2E2E",
"&.	c #E9E9E8",
"*.	c #E8E8E8",
"=.	c #FAFAFB",
"-.	c #F1F1F2",
";.	c #F0F0EF",
">.	c #EEEEEF",
",.	c #979697",
"'.	c #2B2A29",
").	c #1E1C19",
"!.	c #5B5855",
"~.	c #A3A3A1",
"{.	c #EAE9E9",
"].	c #E9EAE9",
"^.	c #E8E8E7",
"/.	c #E7E7E7",
"(.	c #F0F0F1",
"_.	c #EDEDEE",
":.	c #E1E0E0",
"<.	c #2D2C2B",
"[.	c #645543",
"}.	c #685947",
"|.	c #4D463E",
"1.	c #383633",
"2.	c #E6E6E6",
"3.	c #CBCCCB",
"4.	c #EFEEEE",
"5.	c #C1C0BF",
"6.	c #241F19",
"7.	c #987D5E",
"8.	c #AD9975",
"9.	c #818162",
"0.	c #363A34",
"a.	c #BCBDBC",
"b.	c #E5E5E5",
"c.	c #CBCBCB",
"d.	c #EEEDEE",
"e.	c #ECEDEC",
"f.	c #EAEBEA",
"g.	c #423E39",
"h.	c #574936",
"i.	c #919063",
"j.	c #73935E",
"k.	c #4C6947",
"l.	c #343933",
"m.	c #E3E4E4",
"n.	c #E5E4E4",
"o.	c #F9F9FA",
"p.	c #EDEEED",
"q.	c #EBEAEB",
"r.	c #989796",
"s.	c #33342B",
"t.	c #4E683C",
"u.	c #4A7E42",
"v.	c #50894B",
"w.	c #537A4F",
"x.	c #333932",
"y.	c #BABABA",
"z.	c #E3E4E3",
"A.	c #CBCBCA",
"B.	c #ECEBEB",
"C.	c #E0E0DF",
"D.	c #797D77",
"E.	c #243321",
"F.	c #3D6637",
"G.	c #498143",
"H.	c #496846",
"I.	c #333832",
"J.	c #E0E0E0",
"K.	c #CACACA",
"L.	c #E9E8E9",
"M.	c #E6E6E7",
"N.	c #767D76",
"O.	c #283626",
"P.	c #477D40",
"Q.	c #A5A6A5",
"R.	c #ECEBEC",
"S.	c #EAEAEB",
"T.	c #E9EAEA",
"U.	c #E9E8E8",
"V.	c #E7E6E6",
"W.	c #E6E5E5",
"X.	c #DCDDDB",
"Y.	c #757D75",
"Z.	c #233220",
"`.	c #30352F",
" +	c #010101",
".+	c #E7E7E6",
"++	c #E4E4E4",
"@+	c #E4E3E4",
"#+	c #757C74",
"$+	c #273625",
"%+	c #53794F",
"&+	c #151B14",
"*+	c #E8E9E8",
"=+	c #E6E7E7",
"-+	c #E6E5E6",
";+	c #E4E5E4",
">+	c #E3E3E3",
",+	c #D9DAD9",
"'+	c #737B73",
")+	c #466342",
"!+	c #1A2019",
"~+	c #E5E4E5",
"{+	c #E2E2E2",
"]+	c #E1E1E0",
"^+	c #737A72",
"/+	c #273525",
"(+	c #52794E",
"_+	c #161B15",
":+	c #E1E2E1",
"<+	c #E1E1E1",
"[+	c #D6D6D6",
"}+	c #727972",
"|+	c #3D6636",
"1+	c #4C8248",
"2+	c #263424",
"3+	c #0D100C",
"4+	c #070F07",
"5+	c #142212",
"6+	c #395D33",
"7+	c #2B4628",
"8+	c #0F190F",
"9+	c #232E23",
"0+	c #0C120B",
"a+	c #121911",
"                                                                ",
"                                                                ",
"                                                                ",
"          . + + + + + + + + + + + + + + + + + + + + .           ",
"          + @ # $ % & * = - ; > , ' ) ) ! ~ { ] ^ / +           ",
"          + ( _ % : < = ; ; > > ' ) [ } ~ | 1 2 3 / +           ",
"          + 4 % 5 6 6 6 7 8 8 8 9 ! } ~ ] 0 a b c d +           ",
"          + e < f g ; h > i j k ! l m ] n ^ o p q r +           ",
"          + e = ; ; > ' ' ) ! s ~ t ] ^ o o u v w r +           ",
"          + $ ; x 8 8 8 8 y z z z z A A A A B B C r +           ",
"          + $ > D ' ) ) ! ~ t ] ^ E o c F G H I J K +           ",
"          + $ , 8 8 L z z z z M A A A A B B B N O P +           ",
"          + $ ' ) ! ! ~ ] 2 ^ ^ Q u F G C R S T U P +           ",
"          + % ) V z z z M A A A A W B B B X Y Y Z P +           ",
"          + % ! ` t ] n ^ o u  .G H J J T ..U +.@.#.+           ",
"          + % ~ z z A A A A $.%.T C J T U U +.&.*.#.+           ",
"          + =.] -.^ o ;.>.>.,.'.).!.~.{.].+.*.^./.#.+           ",
"          + < 2 (.o c u G _.:.<.[.}.|.1./.*././.2.3.+           ",
"          + < 3 o ;.4.G C C J 5.6.7.8.9.0.a.2.2.b.c.+           ",
"          + * ;.u 4.d.C e.J T f.g.h.i.j.k.l.m.b.n.c.+           ",
"          + o.u G p.I J S q.U Z r.s.t.u.v.w.x.y.z.A.+           ",
"          + = G _.I J B.T U ].+.C.D.E.F.G.v.H.I.J.K.+           ",
"          + = C e.J T f.U +.L.*./.M.N.O.F.P.v.w.I.Q.+           ",
"          + ; J R.T S.T.+.U././.V.W.X.Y.Z.F.G.v.H.`. +          ",
"          + ; T U U +.&.*./..+2.W.b.++@+#+$+F.P.v.%+&+          ",
"          + ; T U +.*+*./.=+-+b.;+++>+>+,+'+Z.F.G.v.)+!+        ",
"          + ; {.+.*././.V.2.~+n.@+>+{+{+]+]+^+/+F.P.v.(+_+      ",
"          + > +.*.^.=+2.b.b.++m.>+{+:+<+J.C.[+}+Z.|+G.1+2+3+    ",
"          . + + + + + + + + + + + + + + + + + + 4+5+6+7+8+      ",
"                                                  9+0+a+        ",
"                                                                ",
"                                                                "};
