/* XPM */
static char *sun_java[] = {
/* columns rows colors chars-per-pixel */
"32 32 156 2",
"   c #34479E",
".  c #4152A3",
"X  c #4153A2",
"o  c #4153A3",
"O  c #4D5EA8",
"+  c #4D5EA9",
"@  c #4E5EA9",
"#  c #5A69AD",
"$  c #5A69AE",
"%  c #5A69AF",
"&  c #5A6AAD",
"*  c #6675B3",
"=  c #6775B2",
"-  c #6775B3",
";  c #6776B3",
":  c #6775B5",
">  c #6776B4",
",  c #7480B7",
"<  c #7380B8",
"1  c #7381B8",
"2  c #7380BA",
"3  c #7481B8",
"4  c #D12124",
"5  c #D42F31",
"6  c #D73D3E",
"7  c #D94A4A",
"8  c #D94A4B",
"9  c #DA4A4A",
"0  c #DA4B4B",
"q  c #DC5957",
"w  c #DC5858",
"e  c #DD5859",
"r  c #DD5959",
"t  c #DF6664",
"y  c #E06664",
"u  c #E27471",
"i  c #E27570",
"p  c #E27472",
"a  c #E37472",
"s  c #E27574",
"d  c #E37474",
"f  c #E5827E",
"g  c #E5837F",
"h  c #818BBD",
"j  c #818CBC",
"k  c #808CBE",
"l  c #818DC0",
"z  c #8D97C2",
"x  c #8D97C3",
"c  c #8D97C5",
"v  c #8E98C5",
"b  c #99A2C7",
"n  c #99A3C7",
"m  c #99A2C8",
"M  c #99A3C8",
"N  c #99A2CA",
"B  c #99A2CB",
"V  c #A6AECD",
"C  c #A5AED2",
"Z  c #A6AED0",
"A  c #B3B9D3",
"S  c #B2B9D4",
"D  c #B3B9D5",
"F  c #B2B9D6",
"G  c #B3BAD5",
"H  c #BFC4D6",
"J  c #BFC5D7",
"K  c #BFC5D8",
"L  c #BFC5D9",
"P  c #BFC5DA",
"I  c #BFC5DB",
"U  c #BFC5DC",
"Y  c #BFC5DD",
"T  c #E58381",
"R  c #E68380",
"E  c #E88F89",
"W  c #E88F8B",
"Q  c #E8908A",
"!  c #EB9D99",
"~  c #EB9D9A",
"^  c #EB9D9D",
"/  c #EDABA2",
"(  c #EEABA6",
")  c #EDACA6",
"_  c #F0B9B1",
"`  c #F1B9B1",
"'  c #F0B9B6",
"]  c #F3C7BD",
"[  c #CCD0DA",
"{  c #CCD1DA",
"}  c #CDD0DA",
"|  c #CCD0DC",
" . c #CCD0DD",
".. c #CCD1DD",
"X. c #CCD0DE",
"o. c #CCD1DE",
"O. c #CCD1DF",
"+. c #D8DBDF",
"@. c #CCD0E0",
"#. c #D8DCE1",
"$. c #D9DCE1",
"%. c #D9DCE3",
"&. c #D9DCE4",
"*. c #D9DCE5",
"=. c #D9DCE6",
"-. c #D9DCE7",
";. c #D9DCE8",
":. c #F6D5CB",
">. c #F6D5CD",
",. c #F6D5D3",
"<. c #F9E3D7",
"1. c #F9E3DA",
"2. c #F9E3DB",
"3. c #E6E7E7",
"4. c #E5E7E9",
"5. c #E5E7EC",
"6. c #E5E8E8",
"7. c #E6E8E9",
"8. c #E6E8EA",
"9. c #E6E8EB",
"0. c #E5E8EC",
"q. c #E6E8EC",
"w. c #F9E3E1",
"e. c #F2F3EC",
"r. c #FCF0E1",
"t. c #FCF0E3",
"y. c #FCF1E5",
"u. c #FCF0E7",
"i. c #FCF1E6",
"p. c #FCF1E7",
"a. c #FCF1E8",
"s. c #FFFEED",
"d. c #FFFEEE",
"f. c #FFFEEF",
"g. c #F2F3F0",
"h. c #F2F3F1",
"j. c #F2F3F2",
"k. c #F2F3F4",
"l. c #FFFEF0",
"z. c #FFFEF1",
"x. c #FFFEF2",
"c. c #FFFEF3",
"v. c #FFFFF3",
"b. c #FFFFF4",
"n. c #FFFFF5",
"m. c #FFFFF6",
"M. c #FFFFF7",
"N. c #FFFFF8",
"B. c #FFFFF9",
"V. c #FFFFFA",
"C. c #FFFFFB",
"Z. c #FFFFFC",
"A. c #FFFFFD",
"S. c #FFFFFE",
"D. c gray100",
"F. c None",
/* pixels */
"F.F.F.F.F.F.F.F.F.F.F.F.F.F.F.F.F.F.F.F.F.F.F.F.F.F.F.F.F.F.F.F.",
"F.F.F.F.F.F.F.F.F.F.F.F.F.F.F.F.F.w.~ F.F.F.F.F.F.F.F.F.F.F.F.F.",
"F.F.F.F.F.F.F.F.F.F.F.F.F.F.F.F.F.F.r F.F.F.F.F.F.F.F.F.F.F.F.F.",
"F.F.F.F.F.F.F.F.F.F.F.F.F.F.F.F.F.' q F.F.F.F.F.F.F.F.F.F.F.F.F.",
"F.F.F.F.F.F.F.F.F.F.F.F.F.F.F.F.M.q u F.F.F.F.F.F.F.F.F.F.F.F.F.",
"F.F.F.F.F.F.F.F.F.F.F.F.F.F.M.M.! 4 1.F.F.F.F.F.F.F.F.F.F.F.F.F.",
"F.F.F.F.F.F.F.F.F.F.F.F.F.M.M.f 4 E M.M.F.w.F.F.F.F.F.F.F.F.F.F.",
"F.F.F.F.F.F.F.F.F.F.F.F.M.i.t 4 i x.1.g u ,.F.F.F.F.F.F.F.F.F.F.",
"F.F.F.F.F.F.F.F.F.F.F.M.>.7 4 f r.f 5 ! C.F.F.F.F.F.F.F.F.F.F.F.",
"F.F.F.F.F.F.F.F.F.F.F.1.5 4 / r.7 5 >.M.F.F.F.F.F.F.F.F.F.F.F.F.",
"F.F.F.F.F.F.F.F.F.F.M.q 4 E d.i 4 >.M.F.F.F.F.F.F.F.F.F.F.F.F.F.",
"F.F.F.F.F.F.F.F.F.F.M.4 5 d.d.4 6 x.x.F.F.F.F.F.F.F.F.F.F.F.F.F.",
"F.F.F.F.F.F.F.F.F.F.F.7 7 d.d.4 4 :.M.F.F.F.F.F.F.F.F.F.F.F.F.F.",
"F.F.F.F.F.F.F.F.F.F.M./ 4 <.x.q 4 7 i.F.F.F.F.F.F.F.F.F.F.F.F.F.",
"F.F.F.F.F.F.F.F.F.F.F.M.u t x.] 4 4 ) M.F.F.F.F.F.F.F.F.F.F.F.F.",
"F.F.F.F.F.F.F.F.F.F.F.F.u.7 _ x.E 4 ! M.M.F.F.F.F.F.F.F.F.F.F.F.",
"F.F.F.F.F.F.F.F.F.h.@.4.M.i.u i._ 5 i.M.F.-.N : c @.M.F.F.F.F.F.",
"F.F.F.F.F.F.k.B O h P x.x.M.x.i.a :.x.M.9.L @.L O   c M.F.F.F.F.",
"F.F.F.F.F.F.>   X c n b n n n n h = & X v M.M.M.8.    M.F.F.F.F.",
"F.F.F.F.F.F.F.+...N n n n N N n J ..4.M.M.M.x.M.M.    M.F.F.F.F.",
"F.F.F.F.F.F.F.M.+.O ..x.d.x.d.x.x.3.L 8.M.M.M.x. .  X M.F.F.F.F.",
"F.F.F.F.F.F.F.M.F     X = = = =       O 8.M.M.h.&   S M.F.F.F.F.",
"F.F.F.F.F.F.F.M.M...z = = = = = j V %.x.F.M.9.%   S M.F.F.F.F.F.",
"F.F.F.F.F.F.F.M.M.4.n d.d.d.d.x.d.x.M.M.M.S X l 5.F.M.F.F.F.F.F.",
"F.F.F.F.F.F.M.M.x.=   O = = = = o   = -.-.S h.M.F.M.F.F.F.F.F.F.",
"F.F.F.F.F.M.-.{ { %.,             , A x.M.M.M.M.M.F.F.F.F.F.F.F.",
"F.F.F.F.F O , J e.x.d.d.{ { { +.x.x.x.M.M.M.M.M.=.Y F.F.F.F.F.F.",
"F.F.F.F.    O z H %.d.x.x.d.d.d.d.x.x.x.x...K N O C C.F.F.F.F.F.",
"F.F.F.F.N O             # = = = = = O         O L C.F.F.F.F.F.F.",
"F.F.F.F.M.M.%.V > &                   O = N =.F.F.F.F.F.F.F.F.F.",
"F.F.F.F.F.F.F.M.M.M.M.x.x.M.M.M.M.M.M.M.M.M.F.F.F.F.F.F.F.F.F.F.",
"F.F.F.F.F.F.F.F.F.F.F.F.F.F.F.F.F.F.F.F.F.F.F.F.F.F.F.F.F.F.F.F."
};
