/* XPM */
static char * pppoeconf_xpm[] = {
"32 32 475 2",
"  	c None",
". 	c #3F6C36",
"+ 	c #508845",
"@ 	c #5B9150",
"# 	c #4E7645",
"$ 	c #203C1B",
"% 	c #1E3D17",
"& 	c #3F7433",
"* 	c #519142",
"= 	c #4F903F",
"- 	c #4C8E3D",
"; 	c #437D35",
"> 	c #24471C",
", 	c #1C3217",
"' 	c #2D4D25",
") 	c #3A6431",
"! 	c #417736",
"~ 	c #1B3216",
"{ 	c #487A3C",
"] 	c #75C863",
"^ 	c #71DB5A",
"/ 	c #6AE04F",
"( 	c #469734",
"_ 	c #649D60",
": 	c #518B4B",
"< 	c #2F7C1F",
"[ 	c #41AF29",
"} 	c #46C22A",
"| 	c #46C42A",
"1 	c #3DAA25",
"2 	c #569D50",
"3 	c #69A766",
"4 	c #3B762F",
"5 	c #53A840",
"6 	c #63C150",
"7 	c #458E36",
"8 	c #2F7721",
"9 	c #418033",
"0 	c #69DA4F",
"a 	c #64E249",
"b 	c #52E033",
"c 	c #3FC821",
"d 	c #216B11",
"e 	c #498745",
"f 	c #267524",
"g 	c #0D3106",
"h 	c #113F07",
"i 	c #134408",
"j 	c #124108",
"k 	c #113B07",
"l 	c #489645",
"m 	c #4CB74B",
"n 	c #194D11",
"o 	c #36A31E",
"p 	c #56DF38",
"q 	c #63D849",
"r 	c #44B32D",
"s 	c #2E841C",
"t 	c #396D2E",
"u 	c #61D647",
"v 	c #6AE350",
"w 	c #7EE768",
"x 	c #6EDD56",
"y 	c #338E21",
"z 	c #113F0B",
"A 	c #408B3E",
"B 	c #298829",
"C 	c #0D470D",
"D 	c #116112",
"E 	c #116412",
"F 	c #126212",
"G 	c #135211",
"H 	c #489B47",
"I 	c #42B843",
"J 	c #11440E",
"K 	c #358824",
"L 	c #76E55F",
"M 	c #77E560",
"N 	c #57D33C",
"O 	c #38A222",
"P 	c #2D5E22",
"Q 	c #162B12",
"R 	c #57BD41",
"S 	c #57E03A",
"T 	c #63E248",
"U 	c #79E462",
"V 	c #73D260",
"W 	c #36832A",
"X 	c #1A7B18",
"Y 	c #30B631",
"Z 	c #27AE28",
"` 	c #1C9D1D",
" .	c #1EAD20",
"..	c #1FB020",
"+.	c #1EAF20",
"@.	c #1FA520",
"#.	c #32B733",
"$.	c #32CD33",
"%.	c #1D8F1D",
"&.	c #35872E",
"*.	c #83CD73",
"=.	c #87E872",
"-.	c #63E146",
";.	c #48CC2B",
">.	c #3C7F2E",
",.	c #0C1C09",
"'.	c #4FC935",
").	c #49E027",
"!.	c #4FDF2E",
"~.	c #5BD340",
"{.	c #50AF3E",
"].	c #32912D",
"^.	c #64D865",
"/.	c #6EEE70",
"(.	c #4CEA4E",
"_.	c #48E849",
":.	c #46EA48",
"<.	c #47EB49",
"[.	c #48EB4A",
"}.	c #48EA4A",
"|.	c #47F049",
"1.	c #45E546",
"2.	c #34A033",
"3.	c #459335",
"4.	c #5EDD43",
"5.	c #52E133",
"6.	c #49D829",
"7.	c #316F24",
"8.	c #0B1908",
"9.	c #43A02F",
"0.	c #44B62B",
"a.	c #40B426",
"b.	c #33921E",
"c.	c #173B10",
"d.	c #276327",
"e.	c #70E971",
"f.	c #56EB57",
"g.	c #62E563",
"h.	c #66E467",
"i.	c #66E567",
"j.	c #67E668",
"k.	c #66E566",
"l.	c #68E668",
"m.	c #5EE25E",
"n.	c #3DE53E",
"o.	c #30F431",
"p.	c #23B924",
"q.	c #227216",
"r.	c #38AC1F",
"s.	c #3AB61E",
"t.	c #34AB1A",
"u.	c #1C530F",
"v.	c #0C2506",
"w.	c #0D2906",
"x.	c #0C2306",
"y.	c #488548",
"z.	c #7AE57B",
"A.	c #69CF6A",
"B.	c #CBDCCB",
"C.	c #D0D7D0",
"D.	c #CED5CE",
"E.	c #D4DAD4",
"F.	c #CBD4CC",
"G.	c #DCE1DC",
"H.	c #BCCEBC",
"I.	c #56B957",
"J.	c #2FE330",
"K.	c #22C823",
"L.	c #0F500E",
"M.	c #0C2507",
"N.	c #0F2D08",
"O.	c #0D2707",
"P.	c #174417",
"Q.	c #63BC64",
"R.	c #7DE57E",
"S.	c #83C584",
"T.	c #D2D8D2",
"U.	c #CECFCE",
"V.	c #CCCDCC",
"W.	c #D6D7D6",
"X.	c #D9D9D9",
"Y.	c #D5D7D5",
"Z.	c #7CB27D",
"`.	c #39CC3A",
" +	c #24D625",
".+	c #116B11",
"++	c #1F441F",
"@+	c #76CC77",
"#+	c #73E174",
"$+	c #A1D0A1",
"%+	c #D7D9D7",
"&+	c #D1D2D1",
"*+	c #D2D3D2",
"=+	c #D9DAD9",
"-+	c #D5D6D6",
";+	c #D1D1D1",
">+	c #DADBDA",
",+	c #ABC8AB",
"'+	c #3CBE3D",
")+	c #2AD72B",
"!+	c #158716",
"~+	c #2E682F",
"{+	c #82D983",
"]+	c #64DD65",
"^+	c #B4DEB4",
"/+	c #E2E4E2",
"(+	c #D7D8D7",
"_+	c #E5E6E5",
":+	c #E1E2E1",
"<+	c #D8D8D7",
"[+	c #C8D5C8",
"}+	c #42B243",
"|+	c #2ACF2B",
"1+	c #19A41A",
"2+	c #083608",
"3+	c #47A048",
"4+	c #80E081",
"5+	c #57D658",
"6+	c #A6D2A6",
"7+	c #C4C8C4",
"8+	c #BABFBA",
"9+	c #C6CBC6",
"0+	c #C2C7C2",
"a+	c #BBBEBA",
"b+	c #CACECA",
"c+	c #C1CBC1",
"d+	c #59A65A",
"e+	c #28C429",
"f+	c #1ECD1F",
"g+	c #0A420A",
"h+	c #112111",
"i+	c #66BE67",
"j+	c #71E372",
"k+	c #3FD340",
"l+	c #4ABE4A",
"m+	c #4FB150",
"n+	c #4BAA4C",
"o+	c #4CAA4C",
"p+	c #4DA74E",
"q+	c #4EA44E",
"r+	c #53A154",
"s+	c #57A557",
"t+	c #54A455",
"u+	c #3AA03B",
"v+	c #2AC12B",
"w+	c #20DA21",
"x+	c #0C550C",
"y+	c #112512",
"z+	c #69CD6A",
"A+	c #6AE66B",
"B+	c #3BDB3C",
"C+	c #29D42A",
"D+	c #24D224",
"E+	c #23D024",
"F+	c #25D026",
"G+	c #25CC26",
"H+	c #24CA26",
"I+	c #26CA27",
"J+	c #25CA26",
"K+	c #28CA29",
"L+	c #2ACB2B",
"M+	c #2FD030",
"N+	c #29CF2A",
"O+	c #0B430B",
"P+	c #0F260F",
"Q+	c #5BCE5C",
"R+	c #60E861",
"S+	c #48E448",
"T+	c #4EE24F",
"U+	c #51DF52",
"V+	c #54DE55",
"W+	c #5BDF5C",
"X+	c #5CDC5D",
"Y+	c #58DA59",
"Z+	c #53D854",
"`+	c #4BD44C",
" @	c #48CF49",
".@	c #3CC73E",
"+@	c #2CBB2D",
"@@	c #17A918",
"#@	c #053205",
"$@	c #000000",
"%@	c #0B200B",
"&@	c #4AC64A",
"*@	c #3FE140",
"=@	c #2CDD2D",
"-@	c #2DDA2E",
";@	c #2BD42C",
">@	c #29D029",
",@	c #22C423",
"'@	c #21BF22",
")@	c #1EBA1F",
"!@	c #1CB51D",
"~@	c #12AD13",
"{@	c #0AA60B",
"]@	c #069F07",
"^@	c #029603",
"/@	c #002C01",
"(@	c #000100",
"_@	c #201F21",
":@	c #5B575C",
"<@	c #555357",
"[@	c #373D38",
"}@	c #437F44",
"|@	c #4FC350",
"1@	c #42D042",
"2@	c #3FCD40",
"3@	c #3BC93C",
"4@	c #32C033",
"5@	c #32BF34",
"6@	c #31BB33",
"7@	c #2EB730",
"8@	c #2DB42F",
"9@	c #2CAF2D",
"0@	c #29A82A",
"a@	c #279A28",
"b@	c #207E20",
"c@	c #135914",
"d@	c #203020",
"e@	c #4C4A4D",
"f@	c #5D5A5F",
"g@	c #4F4B50",
"h@	c #1B191B",
"i@	c #1E1D1F",
"j@	c #7B767C",
"k@	c #A59FA6",
"l@	c #979198",
"m@	c #777378",
"n@	c #494A4A",
"o@	c #394B39",
"p@	c #2C472C",
"q@	c #254025",
"r@	c #1F3C20",
"s@	c #1A371B",
"t@	c #1A371A",
"u@	c #1A361A",
"v@	c #1A341A",
"w@	c #1A341B",
"x@	c #203520",
"y@	c #2A372A",
"z@	c #3C3F3C",
"A@	c #69666A",
"B@	c #908A91",
"C@	c #A09AA2",
"D@	c #9C969E",
"E@	c #635E65",
"F@	c #191719",
"G@	c #746F75",
"H@	c #ACA6AE",
"I@	c #ADA7AF",
"J@	c #A49EA6",
"K@	c #878389",
"L@	c #7D797F",
"M@	c #787379",
"N@	c #767277",
"O@	c #747176",
"P@	c #737075",
"Q@	c #716E73",
"R@	c #716D72",
"S@	c #726E73",
"T@	c #747075",
"U@	c #767278",
"V@	c #7A767C",
"W@	c #848086",
"X@	c #948F96",
"Y@	c #A6A0A8",
"Z@	c #A7A1A9",
"`@	c #9E98A0",
" #	c #625E64",
".#	c #121012",
"+#	c #565258",
"@#	c #98929A",
"##	c #A8A2AA",
"$#	c #A9A3AB",
"%#	c #A39DA5",
"&#	c #A29CA4",
"*#	c #A19BA3",
"=#	c #9F99A1",
"-#	c #9D979F",
";#	c #9B959D",
">#	c #9A949C",
",#	c #99939B",
"'#	c #938D95",
")#	c #38343A",
"!#	c #5B585C",
"~#	c #959097",
"{#	c #8E8A8E",
"]#	c #908C92",
"^#	c #979199",
"/#	c #8C878C",
"(#	c #8E898E",
"_#	c #908A92",
":#	c #868086",
"<#	c #858086",
"[#	c #8E8890",
"}#	c #8C868E",
"|#	c #8A848C",
"1#	c #88828A",
"2#	c #868088",
"3#	c #847E86",
"4#	c #827C84",
"5#	c #807A82",
"6#	c #7F7981",
"7#	c #7D777F",
"8#	c #7B757D",
"9#	c #79737B",
"0#	c #777179",
"a#	c #3E3A3F",
"b#	c #5E5B5F",
"c#	c #848A80",
"d#	c #88C167",
"e#	c #90AF7F",
"f#	c #908C8C",
"g#	c #C1C585",
"h#	c #BCBF80",
"i#	c #8E898F",
"j#	c #8D886F",
"k#	c #938C64",
"l#	c #9E999D",
"m#	c #8D878F",
"n#	c #8B858D",
"o#	c #857F87",
"p#	c #7E7880",
"q#	c #7C767E",
"r#	c #7A747C",
"s#	c #78727A",
"t#	c #767078",
"u#	c #3D393E",
"v#	c #828D7B",
"w#	c #77C44D",
"x#	c #8EB179",
"y#	c #928E8D",
"z#	c #C8CE7C",
"A#	c #C2C681",
"B#	c #918C91",
"C#	c #8D865F",
"D#	c #938B5A",
"E#	c #9F9A9E",
"F#	c #89838B",
"G#	c #878189",
"H#	c #837D85",
"I#	c #817B83",
"J#	c #3C383D",
"K#	c #5E5A5F",
"L#	c #9A959C",
"M#	c #A29FA2",
"N#	c #9C979D",
"O#	c #A6A1A5",
"P#	c #A09B9F",
"Q#	c #928D94",
"R#	c #9E999F",
"S#	c #A09BA0",
"T#	c #373338",
"U#	c #635F64",
"V#	c #837E85",
"W#	c #79747B",
"X#	c #78737A",
"Y#	c #757077",
"Z#	c #756F77",
"`#	c #746E76",
" $	c #736D75",
".$	c #726D74",
"+$	c #726C74",
"@$	c #58525A",
"#$	c #1A161C",
"$$	c #242324",
"%$	c #1A191B",
"&$	c #1A181A",
"*$	c #19181A",
"=$	c #191819",
"-$	c #181719",
";$	c #181618",
">$	c #171618",
",$	c #0E0D0E",
"'$	c #030203",
"                                                                ",
"                                                                ",
"                                                                ",
"              . + @ # $ % & * = - ; > , ' ) ! ~                 ",
"            { ] ^ / ( _ : < [ } | 1 2 3 4 5 6 7 8               ",
"          9 0 a b c d e f g h i j k l m n o p q r s             ",
"        t u v w x y z A B C D E F G H I J K L M N O P           ",
"      Q R S T U V W X Y Z `  ...+.@.#.$.%.&.*.=.-.;.>.          ",
"      ,.'.).!.~.{.].^./.(._.:.<.[.}.[.|.1.2.3.4.5.6.7.          ",
"      8.9.0.a.b.c.d.e.f.g.h.i.j.k.l.m.n.o.p.q.r.s.t.u.          ",
"        v.w.x.    y.z.A.B.C.D.E.F.G.H.I.J.K.L.M.N.O.            ",
"                P.Q.R.S.T.U.V.W.U.X.Y.Z.`. +.+                  ",
"                ++@+#+$+%+&+*+=+-+;+>+,+'+)+!+                  ",
"                ~+{+]+^+/+%+(+_+:+<+_+[+}+|+1+2+                ",
"                3+4+5+6+7+8+8+9+0+a+b+c+d+e+f+g+                ",
"              h+i+j+k+l+m+n+o+p+q+r+s+t+u+v+w+x+                ",
"              y+z+A+B+C+D+E+F+G+H+I+J+K+L+M+N+O+                ",
"              P+Q+R+S+T+U+V+W+X+Y+Z+`+ @.@+@@@#@                ",
"            $@%@&@*@=@-@;@>@J+,@'@)@!@~@{@]@^@/@(@              ",
"        _@:@<@[@}@|@1@2@3@4@5@6@7@8@9@0@a@b@c@d@e@f@g@h@        ",
"      i@j@k@l@m@n@o@p@q@r@s@t@u@u@u@v@w@x@y@z@A@B@C@D@E@F@      ",
"    h@G@H@I@J@l@K@L@M@N@O@P@Q@R@R@Q@S@T@U@V@W@X@C@Y@Z@`@ #.#    ",
"    +#@###$###Y@Y@J@J@%#&#*#C@C@=#`@-#-#D@;#;#>#>#,#@#,#'#)#    ",
"    !#C@~#{#]#^#/#(#_#:#<#_#[#}#|#1#2#3#4#5#6#7#8#9#0#9#[#a#$@  ",
"    b#=#c#d#e#f#g#h#i#j#k#l#m#n#|#1#o#3#4#5#p#q#r#s#t#s#m#u#$@  ",
"    b#=#v#w#x#y#z#A#B#C#D#E#m#|#F#G#o#H#I#6#7#8#r#s#t#s#m#J#$@  ",
"  $@K#-#L#M#N#;#O#P#Q#R#S#X@[#}#n#|#F#1#G#o#3#H#I#5#6#4#n#T#$@  ",
"    U#V#W#9#9#X#s#0#t#t#Y#Z#`#`#0#0#0#0#t#t#Z#`# $ $.$+$@$#$    ",
"    $$_@h@h@%$%$&$&$*$*$=$F@-$-$&$&$&$&$*$*$*$F@-$-$;$>$,$'$    ",
"                                                                ",
"                                                                ",
"                                                                "};
