/* XPM */
static char * transmission_gtk_xpm[] = {
"32 32 253 2",
"  	c None",
". 	c #CD5947",
"+ 	c #D2644B",
"@ 	c #D66B4E",
"# 	c #C7573E",
"$ 	c #A5A5A5",
"% 	c #9A9A9A",
"& 	c #828282",
"* 	c #8B817F",
"= 	c #C57056",
"- 	c #CC623E",
"; 	c #C84E28",
"> 	c #C6461C",
", 	c #BD380D",
"' 	c #981A01",
") 	c #AB7772",
"! 	c #B7B7B7",
"~ 	c #7B7B7B",
"{ 	c #8B8B8B",
"] 	c #9C9C9C",
"^ 	c #B0B0B0",
"/ 	c #B17867",
"( 	c #BC2803",
"_ 	c #BD2400",
": 	c #AF1A00",
"< 	c #AA1C00",
"[ 	c #911800",
"} 	c #C45948",
"| 	c #D6785D",
"1 	c #CF704C",
"2 	c #B4827A",
"3 	c #C3C3C3",
"4 	c #BCBCBC",
"5 	c #CCCCCC",
"6 	c #DADADA",
"7 	c #CBBEBC",
"8 	c #B42001",
"9 	c #AE1900",
"0 	c #A11500",
"a 	c #8C1300",
"b 	c #730C00",
"c 	c #CD6850",
"d 	c #D77959",
"e 	c #CA5C37",
"f 	c #C94212",
"g 	c #98230B",
"h 	c #D6D0D0",
"i 	c #E6E6E6",
"j 	c #F1F1F1",
"k 	c #F8F8F8",
"l 	c #F5F5F5",
"m 	c #9C341B",
"n 	c #9B1700",
"o 	c #820F00",
"p 	c #6E0900",
"q 	c #CC6346",
"r 	c #CA5B37",
"s 	c #BA350D",
"t 	c #BA2500",
"u 	c #BB2000",
"v 	c #A01800",
"w 	c #A67F7D",
"x 	c #FBFBFB",
"y 	c #EFEFEF",
"z 	c #DCDCDC",
"A 	c #B3B3B3",
"B 	c #7A342A",
"C 	c #6B0800",
"D 	c #600500",
"E 	c #99402F",
"F 	c #C44923",
"G 	c #B92903",
"H 	c #B62100",
"I 	c #B81C00",
"J 	c #B41C00",
"K 	c #A11800",
"L 	c #73362E",
"M 	c #D0D0D0",
"N 	c #ACACAC",
"O 	c #929292",
"P 	c #737373",
"Q 	c #573736",
"R 	c #919191",
"S 	c #BCA1A0",
"T 	c #AF2904",
"U 	c #AE1C00",
"V 	c #B72300",
"W 	c #A51900",
"X 	c #A41B00",
"Y 	c #7F1000",
"Z 	c #5A1914",
"` 	c #A6A6A6",
" .	c #656565",
"..	c #565656",
"+.	c #4A4A4A",
"@.	c #404040",
"#.	c #434343",
"$.	c #A1A1A1",
"%.	c #9D9D9D",
"&.	c #7A1F13",
"*.	c #8B1500",
"=.	c #7A0D00",
"-.	c #710800",
";.	c #670800",
">.	c #580400",
",.	c #4D3332",
"'.	c #9E9E9E",
").	c #474747",
"!.	c #3A3A3A",
"~.	c #353535",
"{.	c #383838",
"].	c #676767",
"^.	c #808080",
"/.	c #545454",
"(.	c #454545",
"_.	c #696969",
":.	c #5E0400",
"<.	c #8C8C8C",
"[.	c #5F5F5F",
"}.	c #313131",
"|.	c #333333",
"1.	c #414141",
"2.	c #5D5D5D",
"3.	c #818181",
"4.	c #4C4C4C",
"5.	c #464646",
"6.	c #272727",
"7.	c #6D6D6D",
"8.	c #888888",
"9.	c #525252",
"0.	c #858585",
"a.	c #767676",
"b.	c #424242",
"c.	c #3F3F3F",
"d.	c #5B5B5B",
"e.	c #6F6F6F",
"f.	c #9F9F9F",
"g.	c #757575",
"h.	c #7E7E7E",
"i.	c #ABABAB",
"j.	c #BFBFBF",
"k.	c #4D4D4D",
"l.	c #939393",
"m.	c #8F8F8F",
"n.	c #575757",
"o.	c #A3A3A3",
"p.	c #C4C4C4",
"q.	c #646464",
"r.	c #5A5A5A",
"s.	c #4F4F4F",
"t.	c #707070",
"u.	c #838383",
"v.	c #7C7C7C",
"w.	c #979797",
"x.	c #A7A7A7",
"y.	c #A0A0A0",
"z.	c #C7C7C7",
"A.	c #C8C8C8",
"B.	c #C0C0C0",
"C.	c #2F2F2F",
"D.	c #797979",
"E.	c #555555",
"F.	c #2D2D2D",
"G.	c #444444",
"H.	c #4E4E4E",
"I.	c #949494",
"J.	c #C9C9C9",
"K.	c #AEAEAE",
"L.	c #5C5C5C",
"M.	c #999999",
"N.	c #909090",
"O.	c #959595",
"P.	c #CBCBCB",
"Q.	c #2B2B2B",
"R.	c #151515",
"S.	c #CACACA",
"T.	c #CDCDCD",
"U.	c #141414",
"V.	c #0A0A0A",
"W.	c #CFCFCF",
"X.	c #606060",
"Y.	c #777777",
"Z.	c #CECECE",
"`.	c #AFAFAF",
" +	c #686868",
".+	c #5E5E5E",
"++	c #595959",
"@+	c #8A8A8A",
"#+	c #D3D3D3",
"$+	c #DDDDDD",
"%+	c #E8E8E8",
"&+	c #E4E4E4",
"*+	c #262626",
"=+	c #B9B9B9",
"-+	c #323232",
";+	c #D4D4D4",
">+	c #D1D1D1",
",+	c #D7D7D7",
"'+	c #F2F2F2",
")+	c #B2B2B2",
"!+	c #2E2E2E",
"~+	c #191919",
"{+	c #D5D5D5",
"]+	c #D8D8D8",
"^+	c #BDBDBD",
"/+	c #7A7A7A",
"(+	c #515151",
"_+	c #585858",
":+	c #D2D2D2",
"<+	c #DBDBDB",
"[+	c #BEBEBE",
"}+	c #C6C6C6",
"|+	c #C1C1C1",
"1+	c #E7E7E7",
"2+	c #1E1E1E",
"3+	c #DEDEDE",
"4+	c #F7F7F7",
"5+	c #A2A2A2",
"6+	c #FCFCFC",
"7+	c #969696",
"8+	c #B6B6B6",
"9+	c #B5B5B5",
"0+	c #C5C5C5",
"a+	c #787878",
"b+	c #DFDFDF",
"c+	c #ECECEC",
"d+	c #7D7D7D",
"e+	c #626262",
"f+	c #FEFEFE",
"g+	c #FDFDFD",
"h+	c #EEEEEE",
"i+	c #D6D6D6",
"j+	c #BBBBBB",
"k+	c #EDEDED",
"l+	c #848484",
"m+	c #181818",
"n+	c #B1B1B1",
"o+	c #B4B4B4",
"p+	c #989898",
"q+	c #EAEAEA",
"r+	c #FFFFFF",
"s+	c #B8B8B8",
"t+	c #C2C2C2",
"u+	c #E2E2E2",
"v+	c #747474",
"w+	c #343434",
"x+	c #ADADAD",
"y+	c #868686",
"z+	c #BABABA",
"A+	c #8E8E8E",
"B+	c #3D3D3D",
"C+	c #1D1D1D",
"D+	c #111111",
"                                . + @ #                         ",
"                      $ % & * = - ; > , '                       ",
"                  ) ! ~ { ] ^ / ( _ : < [                       ",
"              } | 1 2 3 4 5 6 7 8 9 0 a b                       ",
"            c d e f g h i j k l m n o p                         ",
"          q r s t u v w x y z A B C D                           ",
"        E F G H I J K L M N O P Q                               ",
"      R S T U V W X Y Z `  ...+.@.#.#.#.                        ",
"      $.%.&.*.=.-.;.>.,.'.).!.~.{.].^./.(.                      ",
"        _.  :.          <.[.}.|.1.2.{.3.4.5.                    ",
"                    6.6.7.8.1.4.9.0.{ @.a.+.).                  ",
"                #.b.c.d.e.f.].g.h.i.j.% (.7.k.                  ",
"            b.b...l.m.5.n.$ m.% $.o.3 p.q.q.r.s.                ",
"          #.#.8.%.t.u.v.P w.` x.$ y.z.A.B.C.D./.E.              ",
"        F.G.H.$ I.B.J.K.b.L.f.M.N.O.P.P.P.f.Q.v.n.              ",
"        R.5.k.S.5 5 T.P.U.V.<.v.t.r.S.W.M M X.X.Y.0.            ",
"          (.).$ Z.M M `.3. +.+++4.E.@+#+$+%+&+*+` o.=+          ",
"          -+9.].M ;+;+;+;+>+++L.f.A _.,+'+'+'+)+!+J.)+>+        ",
"          ~+.+k.N {+]+]+]+]+4 ^+z.M { 3.{+]+l l 2./+B.B.        ",
"            (+_+t.:+<+<+<+<+z [+}+|+<...!.,+k k 1+2+A.^ #+      ",
"            F.t./.`.<+3+3+&+4+<+x.5+v.{.|.x 6+6+x 7+8+9+0+      ",
"              P r.a+#+b+c+6+1+& d+d+e+6.a+f+g+h+i+3 ^ j+A       ",
"              (.h.q.j+'+f+f+k+|+K.l+k.m+B.j P.4 n+A M o+..      ",
"                % p+^ q+r+r+r+r+r+r+k W.S.n+K.A }+p.D.          ",
"                e+j.^ T.g+r+r+r+r+l T.^ ^ o+j+z.O.#.            ",
"                Q.s+A 9+%+r+r+l Z.`.)+o+9+z.N L.                ",
"                  D.t+A ! u+P.n+`.^ ^ z.4 v+                    ",
"                  w+^+)+o+i.x+`.A p.0+8.c.                      ",
"                    y+j+n+o+A j.3 ] /.                          ",
"                    -+j+4 [+z+A+r.                              ",
"                      B+[...!.C+                                ",
"                        D+                                      "};
