/* XPM */
static char *wsicon32[] = {
/* columns rows colors chars-per-pixel */
"32 32 174 2 ",
"   c #033296",
".  c #04359B",
"X  c #0A3698",
"o  c #06389E",
"O  c #0B3A9C",
"+  c #153B97",
"@  c #123D9A",
"#  c #0135A1",
"$  c #063BA3",
"%  c #0037A9",
"&  c #043DAA",
"*  c #013EB2",
"=  c #19439E",
"-  c #284894",
";  c #26499B",
":  c #2A4C9E",
">  c #0741AC",
",  c #0744B3",
"<  c #0245BA",
"1  c #074ABA",
"2  c #084DBE",
"3  c #234FA8",
"4  c #2D52A2",
"5  c #3356A5",
"6  c #365AAA",
"7  c #3A5DA9",
"8  c #2958B2",
"9  c #2C5DB9",
"0  c #355EB1",
"q  c #3E62AF",
"w  c #3D64B3",
"e  c #3263BE",
"r  c #405EA6",
"t  c #4160A6",
"y  c #4764A8",
"u  c #4A68AE",
"i  c #536DAB",
"p  c #476AB4",
"a  c #4B6BB1",
"s  c #4F74BD",
"d  c #5171B7",
"f  c #5174BC",
"g  c #657DB6",
"h  c #647EB8",
"j  c #004BC3",
"k  c #084FC1",
"l  c #0752C6",
"z  c #0852C4",
"x  c #0355CB",
"c  c #0856C9",
"v  c #065ACD",
"b  c #085ACD",
"n  c #025BD2",
"m  c #085ED1",
"M  c #005FDA",
"N  c #1C64CD",
"B  c #0663D7",
"V  c #0962D5",
"C  c #0265DB",
"Z  c #0966D9",
"A  c #096ADD",
"S  c #136EDC",
"D  c #1471DE",
"F  c #1B75DF",
"G  c #3367C3",
"H  c #386DC8",
"J  c #3672CE",
"K  c #2E79DA",
"L  c #016BE3",
"P  c #096EE1",
"I  c #0B73E4",
"U  c #0A76E8",
"Y  c #1276E5",
"T  c #1A76E0",
"R  c #177AE6",
"E  c #1C7DE7",
"W  c #147CE9",
"Q  c #1B7FE9",
"!  c #217DE4",
"~  c #297EE2",
"^  c #487BCF",
"/  c #5076C1",
"(  c #557CC5",
")  c #477FD4",
"_  c #6C80B1",
"`  c #6C83B9",
"'  c #758ABC",
"]  c #7C8EB9",
"[  c #1F80E7",
"{  c #2581E6",
"}  c #2D83E4",
"|  c #2786EA",
" . c #2B85E8",
".. c #3386E4",
"X. c #3A89E5",
"o. c #348AE9",
"O. c #388EEA",
"+. c #3790EC",
"@. c #5B82CA",
"#. c #5F88CA",
"$. c #4580D6",
"%. c #4D80D2",
"&. c #4787DC",
"*. c #4985DA",
"=. c #4E8CDC",
"-. c #6285C5",
";. c #6387CC",
":. c #6B8DCC",
">. c #768FC6",
",. c #7A8FC0",
"<. c #6D90CB",
"1. c #7D95C6",
"2. c #7A97CD",
"3. c #7F9ACF",
"4. c #638BD1",
"5. c #6797D6",
"6. c #6C93D3",
"7. c #6D99D5",
"8. c #6B97DB",
"9. c #6E9AD9",
"0. c #7496D4",
"q. c #7398D1",
"w. c #789DD4",
"e. c #739CDD",
"r. c #789CDB",
"t. c #76A5DB",
"y. c #7DA2DF",
"u. c #428CE5",
"i. c #4A93E7",
"p. c #4494EA",
"a. c #4C96E9",
"s. c #4C9AEC",
"d. c #5F99E6",
"f. c #549DEB",
"g. c #589DEB",
"h. c #439BF9",
"j. c #6497E1",
"k. c #6C9EE3",
"l. c #639EE8",
"z. c #57A0EE",
"x. c #5AA1EE",
"c. c #6EA1E5",
"v. c #63A4EC",
"b. c #6BA5EC",
"n. c #65A8EE",
"m. c #6EABEE",
"M. c #73A3E5",
"N. c #7EA5E2",
"B. c #7BAAE7",
"V. c #72ACED",
"C. c #7AB0EC",
"Z. c #6CACF0",
"A. c #70AEF3",
"S. c #77B3F0",
"D. c #79B1F1",
"F. c #8394BB",
"G. c #8296C5",
"H. c #849AC4",
"J. c #8C9DC6",
"K. c #839BC9",
"L. c #8A9EC9",
"P. c #8CA3CF",
"I. c #95A2C1",
"U. c #96A5C9",
"Y. c #98A7CD",
"T. c #8EB3E5",
"R. c #86B4EC",
"E. c #85B9EE",
"W. c #8DBCED",
"Q. c #98BFEB",
"!. c #93C1F0",
"~. c #A3C9F2",
"^. c #B0D0F1",
"/. c None",
/* pixels */
"/./././././././././././././././././././././././././././././././.",
"/././././././././././././././././././././././././.E.n.s.p.+.s./.",
"/././././././././././././././././././././.!.g.| W U U U U U L ~.",
"/./././././././././././././././././.^.S.p.[ U U U U I I I L { /.",
"/./././././././././././././././.~.Z.s. .R I I P P P P P P L Q./.",
"/././././././././././././././.n.z.p.E I I P P P P A P A C } /./.",
"/././././././././././././.W.s.g.+.Y P P A P A A A A Z A C T././.",
"/./././././././././././.n.p.x. .Y P P A A Z Z Z Z B Z m S /././.",
"/././././././././././.f.p.g.{ Y A A Z A Z Z V V V V B n =./././.",
"/./././././././././.s.p.x.! P A A A Z V V V V V m m m x T./././.",
"/././././././././.g.O.m...P A Z Z Z V V V m m m m v b b /./././.",
"/./././././././.C.{ m.p.D P Z Z V V m m m m b b b c x N /./././.",
"/./././././././.E v.f.T Z Z Z V V V m b b b c c c l j J /./././.",
"/././././././. .s.v.~ A Z Z V m m b b c c l z z z z j ^ /./././.",
"/./././././.v. .v.X.A Z Z V m m b b c c c z z k k k < 4././././.",
"/./././././.R g.i.T Z Z V m m b c c c l k k k 2 2 1 < 6././././.",
"/././././.p.X.g.~ A Z V m m b b c c k k k 2 2 2 1 1 * :././././.",
"/././././.R g.X.D Z V m m m c c c k k k 2 1 , , , , * <././././.",
"/./././.p.X.g.~ Z V V m b b c z l k k 1 1 , , , > > % -././././.",
"/./././.R g.u.D Z V m m b c z z k 1 1 1 , , > > & > # / /./././.",
"/././.v. .g.~ Z V V m b c c z k 2 1 1 , , > > & & $ # w /./././.",
"/././.{ a.i.F V V m m b c z k k 1 1 , , > > & $ O # . 3 /./././.",
"/././.E g...Z Z V m b c l z k 2 1 , , > & $ $ $ # o . O /./././.",
"/./.s.o.a.F Z V m m b c z k 2 2 1 , > & $ $ O O o     X /./././.",
"/./.{ a.o.D V V m v b c z k k 1 , , > & $ $ o     @ = + J./././.",
"/./.[ a.~ Z B m v b b c z 1 < * * & & $ #   o = 4 4 4 : g /././.",
"/.V. .u.F B Z K *.*.) ) ) ^ H G e 9 8 8 0 w q 7 5 4 ; r g /././.",
"/.p.o...F u.b.B.B.c.N.N.r.9.6.4.@.( / f f p 6 7 5 h ` G.Y./././.",
"/.[ o.g.C.R.M.k.c.k.e.8.8.k.9.0.:.0.2.K.3.>.1.G.L.,.' i - J././.",
"/.h.A.D.V.b.l.d.k.j.j.N.R.P.r.4.#.;.;.:.-.d d a u r y i J.U././.",
"/.E.t.t.M.t.9.5.7.7.w.q.( :.2.P.P.K.1.G.H.H.J.F.] F.F.I.F._ /./.",
"/./././././././././././././././././././././././././././././././."
};
