/* XPM */
static char *terminal2[] = {
/* columns rows colors chars-per-pixel */
"32 26 158 2",
"   c #056205620562",
".  c #061F061F061F",
"X  c #088908890889",
"o  c #09D209D209D2",
"O  c #14D214D214D2",
"+  c #164416441644",
"@  c #188A188A188A",
"#  c #192219221922",
"$  c #1FC21FC21FC2",
"%  c #214F214F214F",
"&  c #241824182418",
"*  c #244C244C244C",
"=  c #305830583058",
"-  c #31B631B631B6",
";  c #33C233C233C2",
":  c #34C734C734C7",
">  c #35CF35CF35CF",
",  c #363736373637",
"<  c #37A137A137A1",
"1  c #39A339A339A3",
"2  c #3AAF3AAF3AAF",
"3  c #3CD53CD53CD5",
"4  c #3F2E3F2E3F2E",
"5  c #3FDF3FDF3FDF",
"6  c #40A640A640A6",
"7  c #42F842F842F8",
"8  c #43B343B343B3",
"9  c #451945194519",
"0  c #45A145A145A1",
"q  c #46C346C346C3",
"w  c #4AD84AD84AD8",
"e  c #4B504B504B50",
"r  c #4C684C684C68",
"t  c #4DC54DC54DC5",
"y  c #4F124F124F12",
"u  c #4F534F534F53",
"i  c #519351935193",
"p  c #541154115411",
"a  c #57E357E357E3",
"s  c #59E959E959E9",
"d  c #5BDE5BDE5BDE",
"f  c #5D795D795D79",
"g  c #600D600D600D",
"h  c #607560756075",
"j  c #63B963B963B9",
"k  c #66E566E566E5",
"l  c #696269626962",
"z  c #6CAB6CAB6CAB",
"x  c #722F722F722F",
"c  c #76C376C376C3",
"v  c #79C379C379C3",
"b  c #7B1A7B1A7B1A",
"n  c #7E537E537E53",
"m  c #7F007F007F00",
"M  c #800780078007",
"N  c #80DC80DC80DC",
"B  c #824D824D824D",
"V  c #82A482A482A4",
"C  c #83A183A183A1",
"Z  c #851585158515",
"A  c #85F285F285F2",
"S  c #86D386D386D3",
"D  c #88B588B588B5",
"F  c #899689968996",
"G  c #8C318C318C31",
"H  c #906690669066",
"J  c #921192119211",
"K  c #936B936B936B",
"L  c #93AE93AE93AE",
"P  c #971397139713",
"I  c #990D990D990D",
"U  c #9ACD9ACD9ACD",
"Y  c #9C189C189C18",
"T  c #9D7D9D7D9D7D",
"R  c #9E4A9E4A9E4A",
"E  c #9FC89FC89FC8",
"W  c #A0F8A0F8A0F8",
"Q  c #A3B3A3B3A3B3",
"!  c #A51AA51AA51A",
"~  c #A5D1A5D1A5D1",
"^  c #A70EA70EA70E",
"/  c #A814A814A814",
"(  c #A95EA95EA95E",
")  c #AAFEAAFEAAFE",
"_  c #AC84AC84AC84",
"`  c #AE41AE41AE41",
"'  c #AF9AAF9AAF9A",
"]  c #B136B136B136",
"[  c #B27FB27FB27F",
"{  c #B31AB31AB31A",
"}  c #B413B413B413",
"|  c #B4F4B4F4B4F4",
" . c #B7D4B7D4B7D4",
".. c #B9C6B9C6B9C6",
"X. c #BB58BB58BB58",
"o. c #BBC7BBC7BBC7",
"O. c #BD2CBD2CBD2C",
"+. c #BDFABDFABDFA",
"@. c #BF7FBF7FBF7F",
"#. c #C047C047C047",
"$. c #C0FEC0FEC0FE",
"%. c #C237C237C237",
"&. c #C30AC30AC30A",
"*. c #C41DC41DC41D",
"=. c #C561C561C561",
"-. c #C661C661C661",
";. c #C7AAC7AAC7AA",
":. c #C8A6C8A6C8A6",
">. c #CA59CA59CA59",
",. c #CB45CB45CB45",
"<. c #CBF5CBF5CBF5",
"1. c #CDA2CDA2CDA2",
"2. c #CE3DCE3DCE3D",
"3. c #D061D061D061",
"4. c #D144D144D144",
"5. c #D2BED2BED2BE",
"6. c #D3B2D3B2D3B2",
"7. c #D46DD46DD46D",
"8. c #D59ED59ED59E",
"9. c #D63ED63ED63E",
"0. c #D77DD77DD77D",
"q. c #D83ED83ED83E",
"w. c #D964D964D964",
"e. c #DA0EDA0EDA0E",
"r. c #DDA0DDA0DDA0",
"t. c #DEB8DEB8DEB8",
"y. c #DFC1DFC1DFC1",
"u. c #E181E181E181",
"i. c #E28CE28CE28C",
"p. c #E340E340E340",
"a. c #E40AE40AE40A",
"s. c #E552E552E552",
"d. c #E691E691E691",
"f. c #E743E743E743",
"g. c #E869E869E869",
"h. c #E969E969E969",
"j. c #EA81EA81EA81",
"k. c #EB55EB55EB55",
"l. c #EC8CEC8CEC8C",
"z. c #ED84ED84ED84",
"x. c #EE6EEE6EEE6E",
"c. c #EF49EF49EF49",
"v. c #F08FF08FF08F",
"b. c #F185F185F185",
"n. c #F38CF38CF38C",
"m. c #F4BBF4BBF4BB",
"M. c #F588F588F588",
"N. c #F67CF67CF67C",
"B. c #F71BF71BF71B",
"V. c #F853F853F853",
"C. c #F96EF96EF96E",
"Z. c #FA53FA53FA53",
"A. c #FB8BFB8BFB8B",
"S. c #FC83FC83FC83",
"D. c #FD7DFD7DFD7D",
"F. c #FE1FFE1FFE1F",
"G. c #FFB0FFB0FFB0",
"H. c gray100",
/* pixels */
"o % * * * * * * * % * * * * * % * * * * * * * * * * * * * * % o ",
"2 X.#.#.#.#.#.#.#.#.#.#.#.#.#.O.#.#.#.#.#.O.#.#.#.#.#.#.#.#.' ; ",
"y m.=.6.7.6.7.7.7.7.7.6.7.6.7.6.7.7.7.7.6.6.7.6.7.7.6.7.>.( k.q ",
"y c.7.A.G.G.G.G.A.G.G.G.G.G.G.G.G.G.G.G.G.G.G.G.G.G.G.7.N j i.q ",
"e n.3.A.A.G.A.A.G.A.G.A.G.G.G.G.G.G.G.G.G.G.G.G.G.k.R p ; s i.q ",
"y c.>.m.A.m.A.A.A.A.A.A.A.A.G.A.G.G.G.G.G.G.G.m.O.k < ; ; s i.8 ",
"y c.=.n.m.m.n.m.m.m.A.m.m.A.A.A.A.A.A.G.G.G.7.Z q < < ; ; s f.q ",
"y c.O.f.k.k.k.c.c.c.c.c.n.n.m.m.n.n.n.m.f.! p < ; < < < ; s i.8 ",
"e k.' e.r.r.i.i.f.f.f.f.k.k.f.k.f.k.k.3.b 3 ; ; ; < ; < ; s i.q ",
"y c.! >.3.6.6.6.7.e.e.e.e.r.r.r.f.r.! a < ; < < ; < < < ; a i.q ",
"y c.R #.=.>.>.3.>.3.6.6.6.7.7.e.=.M 3 < < < ; < < < < ; ; s i.8 ",
"y c.Y O.#.#.#.=.=.>.>.>.3.6.7.( f < ; < ; < < ; < ; ; < ; s i.q ",
"e c.P } X.X.O.#.#.=.=.>.>.=.J q < < ; < ; < < < ; < < < ; s i.8 ",
"y k.J ! ' ' } O.O.O.#.=.X.M 3 < < ; ; < < < ; < < < ; ; ; s i.q ",
"y k.G R ! ( ( ' ' } O.( l 2 ; ; < < < < < ; ; < ; < ; < ; s i.8 ",
"e c.S Y R W ! ! ( ' Y a < < < < ; ; < ; ; < < < ; < < < ; s i.q ",
"y c.Z G J Y Y R R N e < < ; ; < < < ; < < < ; ; < ; < ; ; s i.q ",
"e k.M N S S J J c 8 ; ; < < < < < ; ; < ; < < < < < < ; ; s i.8 ",
"y c.b c N Z N z 8 < < < ; < < ; < ; < < ; < < ; ; ; < < ; s i.q ",
"y k.l j z x j 2 ; < ; < < ; ; < ; < < ; < ; < < < < < ; ; s i.8 ",
"y c.j e p e 2 ; < ; < < < ; < < < < < ; < < ; < ; < < ; ; s i.q ",
"e k.j 3 3 < < < ; < < ; ; < < ; < ; < < < ; < < < < ; < ; s i.q ",
"y c.s < < < < < < < ; < < < < < ; < < < ; < < < ; < < < ; s i.q ",
"y m.R Z Z Z N Z Z Z Z N Z Z Z Z Z Z N Z Z Z N Z Z Z Z Z N Y k.q ",
"< ( ' } } ' } } ' } } ' } } ' } } ' } } ' } } ' ' } ' } ' } ( ; ",
"  + # # # # # # # # # # # # # # # # # # # # # + # # # # # # O   "
};
