/* XPM */
static char * evince_xpm[] = {
"16 16 143 2",
"  	c None",
". 	c #3B6BA7",
"+ 	c #3666A5",
"@ 	c #3465A4",
"# 	c #3C6BA7",
"$ 	c #5D84B6",
"% 	c #DAE4EF",
"& 	c #FEFEFE",
"* 	c #FFFFFF",
"= 	c #DBE4EF",
"- 	c #5E85B7",
"; 	c #3B6AA7",
"> 	c #DAE3EF",
", 	c #E2EBF5",
"' 	c #CBDCED",
") 	c #CFDEEF",
"! 	c #D4E1F0",
"~ 	c #D8E4F2",
"{ 	c #E9EFF7",
"] 	c #EDF3F9",
"^ 	c #ECF2F8",
"/ 	c #D7E3F1",
"( 	c #D0DFEF",
"_ 	c #E4EDF6",
": 	c #3566A4",
"< 	c #C8D9EC",
"[ 	c #CBDCEE",
"} 	c #D1DFEF",
"| 	c #DDE8F3",
"1 	c #F4E8EB",
"2 	c #E57B7B",
"3 	c #DB4B4B",
"4 	c #D42828",
"5 	c #DE5C5C",
"6 	c #FBFCFD",
"7 	c #D2E0EF",
"8 	c #CCDDEE",
"9 	c #C7D9EC",
"0 	c #CCDCEE",
"a 	c #E9F0F8",
"b 	c #ECA4A4",
"c 	c #D42626",
"d 	c #EEAAAA",
"e 	c #FBECEC",
"f 	c #DF5F5F",
"g 	c #E57D7D",
"h 	c #F6F9FC",
"i 	c #D1E0F0",
"j 	c #C6D8EC",
"k 	c #DFE9F4",
"l 	c #E99393",
"m 	c #D11818",
"n 	c #F6D1D1",
"o 	c #F0B6B6",
"p 	c #DC5252",
"q 	c #FEFBFB",
"r 	c #E3ECF5",
"s 	c #CDDDEE",
"t 	c #F3CFD0",
"u 	c #CD0707",
"v 	c #ECA1A1",
"w 	c #F6D0D0",
"x 	c #DC5151",
"y 	c #FEF8F8",
"z 	c #E9F0F7",
"A 	c #D2E1F0",
"B 	c #CEDEEF",
"C 	c #C9DAED",
"D 	c #E0EAF4",
"E 	c #E47A7A",
"F 	c #CC0000",
"G 	c #F7D8D8",
"H 	c #DF6161",
"I 	c #FDF4F4",
"J 	c #EAF1F8",
"K 	c #D2E0F0",
"L 	c #D4E2F1",
"M 	c #EDF2F8",
"N 	c #F8DADA",
"O 	c #3A69A6",
"P 	c #F4C7C7",
"Q 	c #CE0C0C",
"R 	c #E88C8C",
"S 	c #FEFCFC",
"T 	c #EEF3F9",
"U 	c #D9E4F2",
"V 	c #E6EEF6",
"W 	c #EFD7DA",
"X 	c #EEABAB",
"Y 	c #E68181",
"Z 	c #E78585",
"` 	c #C1D5EA",
" .	c #F9FBFD",
"..	c #F1BABA",
"+.	c #DB4A4A",
"@.	c #DA4646",
"#.	c #E57E7E",
"$.	c #E98F8F",
"%.	c #E37575",
"&.	c #D83D3D",
"*.	c #D93F3F",
"=.	c #F0B2B2",
"-.	c #F8DBDB",
";.	c #F7E5E6",
">.	c #F9E1E1",
",.	c #FFFEFE",
"'.	c #F4C8C8",
").	c #FCEEEE",
"!.	c #FFFDFD",
"~.	c #3768A5",
"{.	c #E6EDF5",
"].	c #FEF9F9",
"^.	c #CEDDEE",
"/.	c #DEE9F4",
"(.	c #EFF4F9",
"_.	c #EDF2F9",
":.	c #DCE7F3",
"<.	c #CCDCED",
"[.	c #BBD1E8",
"}.	c #B4CBE5",
"|.	c #D6E3F1",
"1.	c #B7CEE7",
"2.	c #B9CFE7",
"3.	c #BAD0E8",
"4.	c #B4CCE6",
"5.	c #DFE7F2",
"6.	c #B0C9E4",
"7.	c #B2CBE5",
"8.	c #B5CDE6",
"9.	c #B6CDE6",
"0.	c #B6CEE7",
"a.	c #CFDEEE",
"b.	c #DFE8F2",
"c.	c #6E91BE",
"d.	c #EAF0F6",
"e.	c #F7F9FC",
"f.	c #F5F8FB",
"g.	c #F7FAFC",
"h.	c #6F92BE",
"i.	c #3A6AA7",
"j.	c #4F79B0",
"k.	c #567FB3",
"l.	c #567FB4",
"    . + @ @ @ @ @ @ @ @ + #     ",
"  $ % & * * * * * * * * & = -   ",
"; > , ' ) ! ~ , { ] ^ / ( _ = . ",
": & < [ } | 1 2 3 4 5 6 7 8 & + ",
"@ * 9 0 a b c d e f g h i 0 * @ ",
"@ * j k l m n * o p q r ( [ * @ ",
"@ * s t u v & w x y z A B C * + ",
"@ * D E F w G H I J K ) L M N O ",
"@ * k P Q f R S T U V W X Y Z O ",
"@ * `  ...+.@.#.$.%.&.*.#.=.-.O ",
"@ * s ;.>.* ,.-.'.N ).!.* & * ~.",
"@ * {.].T ^./.T (._.a :.<.[.* @ ",
"@ * }.|.1.2.3.[.[.[.3.2.1.4.* @ ",
"; 5.s 6.7.4.8.9.0.9.8.4.7.a.b.; ",
"  c.d.e.f.f.f.f.f.f.f.f.g.d.h.  ",
"    i.j.k.k.l.l.l.l.l.k.j.;     "};
