/* XPM */
static char * file_roller_xpm[] = {
"32 32 256 2",
"  	c None",
". 	c #070A06",
"+ 	c #100A08",
"@ 	c #0F0E02",
"# 	c #0F110D",
"$ 	c #141613",
"% 	c #181810",
"& 	c #191B18",
"* 	c #1A1C19",
"= 	c #231C13",
"- 	c #1F1F18",
"; 	c #281E09",
"> 	c #222015",
", 	c #25201A",
"' 	c #212320",
") 	c #2B250B",
"! 	c #242523",
"~ 	c #620C07",
"{ 	c #292524",
"] 	c #342809",
"^ 	c #2C2A1F",
"/ 	c #30291A",
"( 	c #292B28",
"_ 	c #5D180E",
": 	c #342D0E",
"< 	c #3B3017",
"[ 	c #423517",
"} 	c #712209",
"| 	c #503717",
"1 	c #3B3C3A",
"2 	c #484126",
"3 	c #4B4222",
"4 	c #504218",
"5 	c #4D431E",
"6 	c #5A3F1A",
"7 	c #4B4635",
"8 	c #634118",
"9 	c #534C1A",
"0 	c #9B2A0C",
"a 	c #5E4232",
"b 	c #674414",
"c 	c #674917",
"d 	c #5F4D1E",
"e 	c #574F34",
"f 	c #5B5024",
"g 	c #564F39",
"h 	c #644D25",
"i 	c #5A5130",
"j 	c #5A5427",
"k 	c #735011",
"l 	c #56554E",
"m 	c #695520",
"n 	c #6B561A",
"o 	c #665820",
"p 	c #555754",
"q 	c #6E5814",
"r 	c #65592D",
"s 	c #645A39",
"t 	c #675F2B",
"u 	c #835613",
"v 	c #645D46",
"w 	c #5C5E5B",
"x 	c #6E5F27",
"y 	c #715D44",
"z 	c #796217",
"A 	c #6A6245",
"B 	c #76612A",
"C 	c #775F3C",
"D 	c #895F12",
"E 	c #935D11",
"F 	c #786728",
"G 	c #7E6814",
"H 	c #985C0E",
"I 	c #7D6623",
"J 	c #86631C",
"K 	c #676862",
"L 	c #866717",
"M 	c #6D6856",
"N 	c #826732",
"O 	c #866827",
"P 	c #7E6939",
"Q 	c #7C6C33",
"R 	c #836B28",
"S 	c #7B6C3A",
"T 	c #A4600C",
"U 	c #816B34",
"V 	c #906A14",
"W 	c #AF5B10",
"X 	c #816945",
"Y 	c #796E4C",
"Z 	c #7B6F47",
"` 	c #9E6618",
" .	c #A26418",
"..	c #8E6B32",
"+.	c #817138",
"@.	c #A56611",
"#.	c #966F0F",
"$.	c #956E19",
"%.	c #81723F",
"&.	c #9C6A22",
"*.	c #88722E",
"=.	c #8E7319",
"-.	c #84714B",
";.	c #9D7013",
">.	c #737572",
",.	c #907524",
"'.	c #A66D16",
").	c #96751E",
"!.	c #90762B",
"~.	c #9C780D",
"{.	c #86784A",
"].	c #A67219",
"^.	c #977A18",
"/.	c #987B23",
"(.	c #9A7643",
"_.	c #9F782B",
":.	c #B5701A",
"<.	c #917D38",
"[.	c #957D32",
"}.	c #8A7D52",
"|.	c #AB7815",
"1.	c #7C7D7B",
"2.	c #9D7B2C",
"3.	c #B9730D",
"4.	c #9A7E2D",
"5.	c #928040",
"6.	c #807F77",
"7.	c #987F3B",
"8.	c #947E4C",
"9.	c #7F817E",
"0.	c #AB7A34",
"a.	c #A4851C",
"b.	c #9F8339",
"c.	c #85847C",
"d.	c #838582",
"e.	c #A6871E",
"f.	c #9C8842",
"g.	c #8A8584",
"h.	c #A08936",
"i.	c #9F8A3D",
"j.	c #A88A32",
"k.	c #A98450",
"l.	c #C78214",
"m.	c #8B8D8A",
"n.	c #D27F18",
"o.	c #AB8759",
"p.	c #D5820E",
"q.	c #B98D25",
"r.	c #AA8F4A",
"s.	c #96917D",
"t.	c #AF9139",
"u.	c #A99245",
"v.	c #C58B24",
"w.	c #AB9340",
"x.	c #D1813B",
"y.	c #91928F",
"z.	c #B49644",
"A.	c #B89444",
"B.	c #B99835",
"C.	c #D78F25",
"D.	c #B6994D",
"E.	c #CD9335",
"F.	c #C8914E",
"G.	c #C59945",
"H.	c #9C9E9B",
"I.	c #AB9C85",
"J.	c #A39F91",
"K.	c #B4A353",
"L.	c #C09A64",
"M.	c #9FA19E",
"N.	c #B9A35B",
"O.	c #C7A435",
"P.	c #A4A49B",
"Q.	c #C1A062",
"R.	c #D8A027",
"S.	c #C5A63E",
"T.	c #D39E45",
"U.	c #BEA658",
"V.	c #DD9B40",
"W.	c #C9A05E",
"X.	c #C0A752",
"Y.	c #C6A64D",
"Z.	c #D2A344",
"`.	c #CAA848",
" +	c #DFA522",
".+	c #ADA99B",
"++	c #CFA750",
"@+	c #D1AC35",
"#+	c #DEA637",
"$+	c #C3AC64",
"%+	c #AAACA9",
"&+	c #BEAC76",
"*+	c #C8AB64",
"=+	c #ACAEAB",
"-+	c #E1A54D",
";+	c #E0A747",
">+	c #DFB01F",
",+	c #BAAF90",
"'+	c #DDAC41",
")+	c #C5B06D",
"!+	c #B1B0A8",
"~+	c #D4B049",
"{+	c #D6B13F",
"]+	c #D3B050",
"^+	c #E1A75D",
"/+	c #CCB25D",
"(+	c #D0B459",
"_+	c #DCB24D",
":+	c #D9B54E",
"<+	c #D4B755",
"[+	c #D9B655",
"}+	c #D4B85D",
"|+	c #B6B8B5",
"1+	c #E2B35E",
"2+	c #E3B74B",
"3+	c #D0B87C",
"4+	c #BEBBAC",
"5+	c #D3B68F",
"6+	c #D9BD61",
"7+	c #DFC04F",
"8+	c #D6BE75",
"9+	c #E0B780",
"0+	c #DEBA7B",
"a+	c #D5BF7C",
"b+	c #D4C083",
"c+	c #DABB8E",
"d+	c #DDC26C",
"e+	c #DDC474",
"f+	c #E5C947",
"g+	c #E7C362",
"h+	c #C9C5B7",
"i+	c #E1C382",
"j+	c #E6C96C",
"k+	c #E5C67F",
"l+	c #E1C97F",
"m+	c #C7C9C6",
"n+	c #E0CC95",
"o+	c #E4CD89",
"p+	c #D2CEBF",
"q+	c #D0CFC7",
"r+	c #EACB9D",
"s+	c #E2D09E",
"t+	c #E4CEA4",
"u+	c #E6D193",
"v+	c #E8D49C",
"w+	c #D3D5D1",
"x+	c #EAD993",
"y+	c #E3D7B7",
"z+	c #E6DBA7",
"A+	c #E8DBB4",
"B+	c #EFDAB5",
"C+	c #F4DDB2",
"D+	c #E7E4D5",
"E+	c #F0E7CC",
"F+	c #EAE9E0",
"G+	c #E9EBE8",
"                                        ..                      ",
"                                      A+}                       ",
"                                      y+~                       ",
"                                    , I._ 8 *                   ",
"                                | y T.0+0 n.:.6 /               ",
"                                 .;+C+y+x.n.p.p. .C 7           ",
"                                u C.:.T.r+B+;+#+_+v.&.          ",
"                                6 ^+    W F.T.'.V < o.          ",
"                                8 1+    W 5+E       o.          ",
"                              * u V.G.L.a P.8 *   * o.          ",
"                          3.m A.t+-+R.>+k+i+8 & { K (.          ",
"                        A ` u+E+z+'+f+d+Z.l.8 & c.9+c           ",
"                      }.5 ` g ,+s+;+3+0._.'.b { r+n.8           ",
"            I !.%.Y h 3 - ].9 ^ e '.D ;.$.|.k 4 5+'.U           ",
"          x $+[+:+]+*+P U q.K.R k T L H 2.T.V e.:+g+5.=         ",
"          r.v+v+d+<+:+6+f...f.K.~.:.J #.D.Y.2.{++++.X P $       ",
"          i.e+u+v+l+g+[+:+/+5.*.w.q.J W.i+2.2.U U Q.:+P $       ",
"          z `.6+l+s+u+d+:+{+~+U.*.).L.i+R h -.U.<+S.<.j         ",
"          ) 7.w.}+e+o+v+a+}+e+/+t.8.&+r S )+O.O.<.r > #         ",
"  ' >.' ! l 2 8.z.Y.}+e+v+s+t.e./+i+m <.7+~+x r ^ .             ",
"    1.%+6.P.s.g }.D.S.(+b+N.,.j.b+,.h x i.o > %                 ",
"  1 %+y.=+.+4+4+v Z u.q.N.f.b.&+,.o f < : .                     ",
"    g.m+g.|+4+p+h+M A b.h.!./.4.q 4 % .                         ",
"    g.g.|+g.m+p+D+D+M.v 7.[./.=.z ;                             ",
"    { g.g.|+g.q+G+F+G+w+M x z q : .                             ",
"        g.g.y.g.G+G+G+G+H.w % +                                 ",
"        { g.1.g.K y.g.p { $                                     ",
"            1.y.1.p 1 +                                         ",
"            { g.{ (                                             ",
"                                                                ",
"                                                                ",
"                                                                "};
