/* XPM */
static char * gimp_xpm[] = {
"32 32 307 2",
"  	c None",
". 	c #2F3335",
"+ 	c #2E3436",
"@ 	c #313537",
"# 	c #474844",
"$ 	c #2F3434",
"% 	c #303436",
"& 	c #54534D",
"* 	c #514F49",
"= 	c #2F3436",
"- 	c #303537",
"; 	c #303637",
"> 	c #35393A",
", 	c #56554F",
"' 	c #666257",
") 	c #525048",
"! 	c #303536",
"~ 	c #373B3B",
"{ 	c #706D62",
"] 	c #444848",
"^ 	c #323737",
"/ 	c #32393A",
"( 	c #52534E",
"_ 	c #6B665B",
": 	c #5D584B",
"< 	c #595348",
"[ 	c #545147",
"} 	c #525653",
"| 	c #8C8C85",
"1 	c #8C8E88",
"2 	c #888A85",
"3 	c #5C605E",
"4 	c #404444",
"5 	c #828581",
"6 	c #92938E",
"7 	c #9E9F9B",
"8 	c #8A8C87",
"9 	c #6E716C",
"0 	c #494B48",
"a 	c #585952",
"b 	c #726E61",
"c 	c #696454",
"d 	c #554F41",
"e 	c #4F493B",
"f 	c #5B574A",
"g 	c #535048",
"h 	c #303535",
"i 	c #C9CAC7",
"j 	c #D8D8D6",
"k 	c #A2A2A1",
"l 	c #8F918B",
"m 	c #8A8C85",
"n 	c #BBBCB7",
"o 	c #EBEBE8",
"p 	c #E8E8E7",
"q 	c #D5D5D5",
"r 	c #9E9E99",
"s 	c #818075",
"t 	c #6E6757",
"u 	c #615B4A",
"v 	c #595342",
"w 	c #554F3F",
"x 	c #514B3C",
"y 	c #5E594C",
"z 	c #504E45",
"A 	c #010101",
"B 	c #050606",
"C 	c #1B1E1E",
"D 	c #0C0D0D",
"E 	c #6F716F",
"F 	c #9D9F98",
"G 	c #B1B1AE",
"H 	c #ECECEC",
"I 	c #838483",
"J 	c #454644",
"K 	c #93948F",
"L 	c #DADAD5",
"M 	c #A9A9A9",
"N 	c #DEDEDE",
"O 	c #4A4A4A",
"P 	c #5F605E",
"Q 	c #898A84",
"R 	c #635C4A",
"S 	c #5F5947",
"T 	c #5B5544",
"U 	c #575140",
"V 	c #534D3D",
"W 	c #615C4E",
"X 	c #4E4C44",
"Y 	c #303437",
"Z 	c #020303",
"` 	c #D7D8D9",
" .	c #F2F2F2",
"..	c #707678",
"+.	c #2A2C2D",
"@.	c #0C0D0C",
"#.	c #8B8E88",
"$.	c #676765",
"%.	c #A7A8A8",
"&.	c #666A6B",
"*.	c #333332",
"=.	c #9A9C97",
"-.	c #D2D2CC",
";.	c #747473",
">.	c #FFFFFF",
",.	c #7B7E7F",
"'.	c #060605",
").	c #7E807B",
"!.	c #655E4C",
"~.	c #605A47",
"{.	c #5C5644",
"].	c #585241",
"^.	c #544E3E",
"/.	c #635E51",
"(.	c #4A4942",
"_.	c #2F3437",
":.	c #1E1F20",
"<.	c #FAFBFB",
"[.	c #747C7D",
"}.	c #51575A",
"|.	c #272929",
"1.	c #3A3A38",
"2.	c #979792",
"3.	c #090A0A",
"4.	c #0B0B0B",
"5.	c #40403D",
"6.	c #8C8D88",
"7.	c #C6C6BF",
"8.	c #2A2B2A",
"9.	c #2B2D2E",
"0.	c #1C1F20",
"a.	c #0F0F0F",
"b.	c #85867E",
"c.	c #655E4B",
"d.	c #615A48",
"e.	c #666255",
"f.	c #3E413E",
"g.	c #101111",
"h.	c #9CA0A1",
"i.	c #ACB0B2",
"j.	c #495356",
"k.	c #353D3F",
"l.	c #313435",
"m.	c #0B0B0A",
"n.	c #858681",
"o.	c #858680",
"p.	c #6E706B",
"q.	c #848275",
"r.	c #868579",
"s.	c #959790",
"t.	c #999993",
"u.	c #363735",
"v.	c #272827",
"w.	c #676863",
"x.	c #716D5D",
"y.	c #645D4A",
"z.	c #605947",
"A.	c #575141",
"B.	c #554F40",
"C.	c #696458",
"D.	c #434647",
"E.	c #3D4345",
"F.	c #373E41",
"G.	c #2C3234",
"H.	c #222627",
"I.	c #0D0D0C",
"J.	c #524C3C",
"K.	c #77715F",
"L.	c #756E58",
"M.	c #776E58",
"N.	c #776F59",
"O.	c #817F72",
"P.	c #888A84",
"Q.	c #888A83",
"R.	c #868881",
"S.	c #726E5E",
"T.	c #665F4C",
"U.	c #625B49",
"V.	c #5E5746",
"W.	c #5A5443",
"X.	c #565040",
"Y.	c #5C5749",
"Z.	c #5C594D",
"`.	c #131414",
" +	c #343738",
".+	c #262B2D",
"++	c #1C2021",
"@+	c #16191A",
"#+	c #0A0B09",
"$+	c #4C4638",
"%+	c #6E6652",
"&+	c #706853",
"*+	c #716954",
"=+	c #6E6752",
"-+	c #6C6551",
";+	c #69624E",
">+	c #333026",
",+	c #595242",
"'+	c #585141",
")+	c #686255",
"!+	c #40423E",
"~+	c #2D3032",
"{+	c #080808",
"]+	c #181A1B",
"^+	c #151819",
"/+	c #0D0F10",
"(+	c #070606",
"_+	c #625B4A",
":+	c #69614E",
"<+	c #6A634F",
"[+	c #6B644F",
"}+	c #67604D",
"|+	c #3D392E",
"1+	c #0B0A08",
"2+	c #070603",
"3+	c #23201A",
"4+	c #5E594B",
"5+	c #5D5B4F",
"6+	c #2E3435",
"7+	c #000101",
"8+	c #000000",
"9+	c #434139",
"0+	c #7C7666",
"a+	c #756F5F",
"b+	c #6A6352",
"c+	c #595241",
"d+	c #474235",
"e+	c #302D24",
"f+	c #171611",
"g+	c #271F15",
"h+	c #824B0E",
"i+	c #74430E",
"j+	c #634825",
"k+	c #645D4E",
"l+	c #363A38",
"m+	c #242627",
"n+	c #2E3234",
"o+	c #393C3A",
"p+	c #5E5B50",
"q+	c #787263",
"r+	c #767161",
"s+	c #6A6554",
"t+	c #645D4C",
"u+	c #5F5847",
"v+	c #5D5645",
"w+	c #5A5342",
"x+	c #575242",
"y+	c #5D4C34",
"z+	c #744817",
"A+	c #BB670F",
"B+	c #925412",
"C+	c #543615",
"D+	c #1E2123",
"E+	c #2D3232",
"F+	c #313636",
"G+	c #515048",
"H+	c #696658",
"I+	c #716C5E",
"J+	c #746F61",
"K+	c #706A5D",
"L+	c #6B6557",
"M+	c #6E695B",
"N+	c #6B6759",
"O+	c #625E52",
"P+	c #504E44",
"Q+	c #47351F",
"R+	c #663C0E",
"S+	c #AC5F0D",
"T+	c #9D611F",
"U+	c #B9B9B6",
"V+	c #777873",
"W+	c #151719",
"X+	c #292D2E",
"Y+	c #2D3335",
"Z+	c #2E3335",
"`+	c #333735",
" @	c #40413C",
".@	c #474741",
"+@	c #383A38",
"@@	c #2E3334",
"#@	c #2B3031",
"$@	c #151618",
"%@	c #432305",
"&@	c #7C6C57",
"*@	c #B4B6B3",
"=@	c #E9EAE9",
"-@	c #BCBDBA",
";@	c #141717",
">@	c #1C2022",
",@	c #1F2325",
"'@	c #191C1C",
")@	c #0E1012",
"!@	c #747670",
"~@	c #888B85",
"{@	c #A5A7A4",
"]@	c #929392",
"^@	c #636363",
"/@	c #727272",
"(@	c #212121",
"_@	c #575856",
":@	c #5C5C5C",
"<@	c #4F4F4F",
"[@	c #373737",
"}@	c #515151",
"|@	c #484848",
"1@	c #2B2B2B",
"2@	c #1A1A1A",
"                                                                ",
"                                                                ",
"                                                                ",
"                                                                ",
"                                                  .             ",
"                                                  + .           ",
"              +                                 @ # $           ",
"              +                               % & * =           ",
"              - ;                         = > , ' ) !           ",
"              ~ { ] ^                 = / ( _ : < [ %           ",
"              } | 1 2 3 4 5 6 7 8 9 0 a b c d e f g h           ",
"              2 i j k l m n o p q r s t u v w x y z h           ",
"  A B C D A E F G H I J K L M N O P Q R S T U V W X Y           ",
"  Z `  ...+.@.#.$.%.&.*.=.-.;.>.,.'.).!.~.{.].^./.(._.          ",
"  :.<.>.[.}.|.1.2.3.4.5.6.7.8.9.0.a.b.c.d.{.].^.e.f.            ",
"  g.h.i.j.k.l.m.n.o.p.q.r.s.t.u.v.w.x.y.z.T A.B.C.!             ",
"  A D.E.F.G.H.I.J.K.L.M.N.O.P.Q.R.S.T.U.V.W.X.Y.Z.=             ",
"    `. +.+++@+#+$+%+&+*+*+&+=+-+;+T.X.>+,+'+^.)+!+~+            ",
"      {+]+^+/+(+_+:+<+[+[+<+;+}+y.|+1+2+3+w 4+5+6+              ",
"        7+8+B 9+0+a+b+c.y.d.c+d+e+f+g+h+i+j+k+l+m+              ",
"              n+o+p+q+r+s+t+u+v+w+,+x+y+z+A+B+C+                ",
"                D+E+F+G+H+I+J+K+L+M+N+O+P+Q+R+S+T+U+V+          ",
"                    W+X+Y+Z+`+ @.@+@@@+ #@$@  %@&@*@=@-@        ",
"                            ;@>@,@'@)@          !@~@{@]@^@/@(@  ",
"                                                      _@:@<@[@  ",
"                                                        }@|@1@  ",
"                                                            2@8+",
"                                                                ",
"                                                                ",
"                                                                ",
"                                                                ",
"                                                                "};
