/* XPM */
static char * gksuexec_debian_xpm[] = {
"32 32 245 2",
"  	c None",
". 	c #000000",
"+ 	c #13161A",
"@ 	c #586877",
"# 	c #434F5A",
"$ 	c #111417",
"% 	c #544B3B",
"& 	c #85735D",
"* 	c #3D3A35",
"= 	c #060708",
"- 	c #B39C7E",
"; 	c #DDC19C",
"> 	c #796A55",
", 	c #100E0B",
"' 	c #7A6A56",
") 	c #CCB18F",
"! 	c #A59074",
"~ 	c #28241C",
"{ 	c #8C7A62",
"] 	c #D9BD99",
"^ 	c #938067",
"/ 	c #DBC7AE",
"( 	c #DBC6AD",
"_ 	c #CBB295",
": 	c #D7C4AB",
"< 	c #DBC6AB",
"[ 	c #86765E",
"} 	c #D8BC98",
"| 	c #958168",
"1 	c #DFC4A1",
"2 	c #E0C39E",
"3 	c #DFC39F",
"4 	c #DEC29D",
"5 	c #DEC19C",
"6 	c #E38C78",
"7 	c #C95033",
"8 	c #7D543E",
"9 	c #AB9578",
"0 	c #B6A083",
"a 	c #514C44",
"b 	c #C9B192",
"c 	c #DCC3A4",
"d 	c #C8B397",
"e 	c #D1B693",
"f 	c #968875",
"g 	c #A79885",
"h 	c #D8C4AC",
"i 	c #D1B99B",
"j 	c #D8BC99",
"k 	c #E1755C",
"l 	c #DB401D",
"m 	c #CB4221",
"n 	c #BA4D2E",
"o 	c #87837E",
"p 	c #C9C9C9",
"q 	c #CECECE",
"r 	c #CBCBCB",
"s 	c #C7C7C7",
"t 	c #C2B29C",
"u 	c #E8D5BD",
"v 	c #ECDBC5",
"w 	c #CDB89D",
"x 	c #B9B1A7",
"y 	c #CBC3B9",
"z 	c #EBD9C1",
"A 	c #E5D1B7",
"B 	c #C5AC8C",
"C 	c #B4B4B4",
"D 	c #DF6F55",
"E 	c #D85D3C",
"F 	c #D56644",
"G 	c #B08470",
"H 	c #F1F1F1",
"I 	c #DBE1E7",
"J 	c #C6D0D8",
"K 	c #CAD1D6",
"L 	c #C3CDD6",
"M 	c #C5CFD8",
"N 	c #D2D8DE",
"O 	c #AAAAAA",
"P 	c #C2AB8E",
"Q 	c #E3CCAE",
"R 	c #BAA488",
"S 	c #C7C3BE",
"T 	c #CCC7C1",
"U 	c #C5B299",
"V 	c #CBB395",
"W 	c #979086",
"X 	c #E6E6E6",
"Y 	c #EFEFEF",
"Z 	c #807D79",
"` 	c #DE8D77",
" .	c #D0AE93",
"..	c #D8BD9A",
"+.	c #DEC19D",
"@.	c #EAD7BE",
"#.	c #88969F",
"$.	c #607682",
"%.	c #A39D70",
"&.	c #888056",
"*.	c #627989",
"=.	c #91A5B6",
"-.	c #D1D1D1",
";.	c #877B6A",
">.	c #BCA485",
",.	c #A19381",
"'.	c #CACACA",
").	c #928D86",
"!.	c #91897F",
"~.	c #AFADA9",
"{.	c #E8E8E8",
"].	c #E2D5C4",
"^.	c #D6C0A3",
"/.	c #BFA686",
"(.	c #DD967C",
"_.	c #DABE9A",
":.	c #DABF9D",
"<.	c #C5B49E",
"[.	c #E0CCB2",
"}.	c #999885",
"|.	c #CCB767",
"1.	c #B69335",
"2.	c #748587",
"3.	c #9BAEBF",
"4.	c #F0F0F0",
"5.	c #848484",
"6.	c #646464",
"7.	c #9A9A9A",
"8.	c #EBEBEB",
"9.	c #ECECEC",
"0.	c #C2C2C2",
"a.	c #ACACAC",
"b.	c #D5D5D5",
"c.	c #E0D1BF",
"d.	c #D5C2A9",
"e.	c #CCB495",
"f.	c #BFA787",
"g.	c #CFB99E",
"h.	c #EAD9C3",
"i.	c #EBD9C3",
"j.	c #B2B490",
"k.	c #618446",
"l.	c #5E6239",
"m.	c #577068",
"n.	c #A0B2C4",
"o.	c #F8F8F8",
"p.	c #DDDDDD",
"q.	c #BABABA",
"r.	c #EEEEEE",
"s.	c #E5E5E5",
"t.	c #D6D6D6",
"u.	c #E9E9E9",
"v.	c #EAD6BE",
"w.	c #C8B49A",
"x.	c #8F7D65",
"y.	c #D98B70",
"z.	c #C8A585",
"A.	c #C4AB8B",
"B.	c #D2B794",
"C.	c #D4BFA3",
"D.	c #D4BB9B",
"E.	c #687B4F",
"F.	c #3A5C34",
"G.	c #48453B",
"H.	c #3A4133",
"I.	c #A6B9CA",
"J.	c #D4D4D4",
"K.	c #CFCFCF",
"L.	c #C6C6C6",
"M.	c #E7E7E7",
"N.	c #C0C0C0",
"O.	c #BEBEBE",
"P.	c #858079",
"Q.	c #AC9B85",
"R.	c #665C4E",
"S.	c #CD674A",
"T.	c #9F8C71",
"U.	c #766B5C",
"V.	c #8E867D",
"W.	c #6D6D67",
"X.	c #143D16",
"Y.	c #3B5033",
"Z.	c #37352E",
"`.	c #2B2D25",
" +	c #ABBDCF",
".+	c #F2F2F2",
"++	c #EAEAEA",
"@+	c #EDEDED",
"#+	c #9D9D9D",
"$+	c #B0A597",
"%+	c #AA977E",
"&+	c #A18C72",
"*+	c #D05437",
"=+	c #B84A2B",
"-+	c #6E5B52",
";+	c #B0B0B0",
">+	c #889394",
",+	c #648764",
"'+	c #778E73",
")+	c #787771",
"!+	c #6F756C",
"~+	c #C8D4DF",
"{+	c #F7F7F7",
"]+	c #DEDEDE",
"^+	c #C3C3C3",
"/+	c #C7BDB1",
"(+	c #DAC6AD",
"_+	c #C8B59C",
":+	c #CD5337",
"<+	c #BD3718",
"[+	c #895E54",
"}+	c #F5F5F5",
"|+	c #FAFAFA",
"1+	c #F9F9F9",
"2+	c #E4E4E4",
"3+	c #F4F4F4",
"4+	c #D2C9BE",
"5+	c #D1B99A",
"6+	c #D9C0A0",
"7+	c #9C886E",
"8+	c #BE472C",
"9+	c #B03316",
"0+	c #8F655B",
"a+	c #FEFEFE",
"b+	c #F3F3F3",
"c+	c #DFDFDF",
"d+	c #A19687",
"e+	c #6F6355",
"f+	c #852610",
"g+	c #7E6059",
"h+	c #D3D3D3",
"i+	c #E0E0E0",
"j+	c #F6F6F6",
"k+	c #DCDCDC",
"l+	c #D2D2D2",
"m+	c #D8D8D8",
"n+	c #D7D7D7",
"o+	c #4A4A4A",
"p+	c #747474",
"q+	c #FDFDFD",
"r+	c #CDCDCD",
"s+	c #6E6E6E",
"t+	c #D0D0D0",
"u+	c #B8B8B8",
"v+	c #252525",
"                                                                ",
"                                                                ",
"                                                                ",
"              . .                                               ",
"            + @ # $                                             ",
"          % & * = . .                                           ",
"            - ; > , .                                           ",
"            - ' ) ! ~                                           ",
"          { ] ] ; ^             / ( _     : <                   ",
"          [ ] ] } |             1 2 }     3 4 5                 ",
"        6 7 8 9 0 a           b c d e f g h i j                 ",
"        k l m n o p q r r r s t u v w x y z A B p C             ",
"        D E F G H I J K L M N O P Q R S T U V W X Y Z           ",
"        `  ...+.@.#.$.%.&.*.=.-.;.>.,.r '.).!.~.{.].^./.        ",
"        (._.2 :.<.[.}.|.1.2.3.4.5.6.7.8.9.0.a.b.c.d.e.f.        ",
"        (._.2 g.h.i.j.k.l.m.n.o.p.q.q.r.s.8.t.u.V v.w.x.        ",
"        y.z.A.B.C.D.E.F.G.H.I.o.J.K.'.p L.M.N.O.P.Q.R..         ",
"          S.T.U.V.W.X.Y.Z.`. +o..+H 4.Y 8.++@+{.#+$+%+&+        ",
"          *+=+-+;+>+,+'+)+!+~+{+]+p q M.C '.^+X /+(+_+B.        ",
"          :+<+[+{+}+|+|+1+o.{+{+@+2+3+3+{.4.++r.4+5+6+7+        ",
"          8+9+0+a+r.{+{+b+.+++@+}+Y 3+b+c+]+p.p.C d+e+.         ",
"            f+g+a+h+i+j+k+X l+c+c+2+b+.+c+]+m+n+N.7.o+.         ",
"              p+q+Y 1+r..+H 4.4.8.i+.+.+H 4.r+p ]+i+s+.         ",
"                p+L.t+t+t+K.K.K.K.q q q q r+r+r+r+u+v+          ",
"                  . . . . . . . . . . . . . . . . .             ",
"                                                                ",
"                                                                ",
"                                                                ",
"                                                                ",
"                                                                ",
"                                                                ",
"                                                                "};
