/* XPM */
static char *gksu_debian[] = {
/* columns rows colors chars-per-pixel */
"32 32 152 2",
"   c #0080007B0069",
".  c #0B220AA40962",
"X  c #1059101D0F36",
"o  c #148D143D135F",
"O  c #17F317221536",
"+  c #192F185E15CC",
"@  c #1D281CB61B87",
"#  c #36AB0F4B0DB0",
"$  c #37720FCC0F35",
"%  c #3831108A0F03",
"&  c #2ECE155A1472",
"*  c #2754193215D2",
"=  c #2A8C1C361AB8",
"-  c #3B5C13E112AC",
";  c #3F5517F6166D",
":  c #3F5B19341872",
">  c #211B208C1E13",
",  c #235C22ED21DB",
"<  c #286C26FD2271",
"1  c #2AA9292E25A8",
"2  c #2F952DCD290F",
"3  c #337C31AB2CD5",
"4  c #377D359B30AD",
"5  c #3CAA3A4A33F6",
"6  c #3F453D7E3A78",
"7  c #40C518CD1766",
"8  c #42A61C8E1BA9",
"9  c #5C1414AF14C8",
"0  c #5E4419E219F3",
"q  c #7DA30C100C25",
"w  c #61271D111D23",
"e  c #41D63ECE3777",
"r  c #40993E9C399B",
"t  c #64E0237E2394",
"y  c #450542863C25",
"u  c #48F345E63D68",
"i  c #4B4E484E3E50",
"p  c #49504746422F",
"a  c #4DC54AEF4317",
"s  c #4F974D7F4833",
"d  c #51244DD34463",
"f  c #516A4FC14A31",
"g  c #54D6511A465E",
"h  c #55B2529D4A51",
"j  c #593F55BB4BD5",
"k  c #5CF458FD4E0F",
"l  c #58D2567C509E",
"z  c #5D825A9652B8",
"x  c #5EBB5D6759C6",
"c  c #7B4C4E404E57",
"v  c #61385D6552BB",
"b  c #606A5ED5584E",
"n  c #64ED620F5616",
"m  c #64FA632F5C67",
"M  c #69B866315BE5",
"N  c #6D1B69505E5D",
"B  c #6CD96A7A63A6",
"V  c #6E836CD1681A",
"C  c #723D6E5363BB",
"Z  c #71986F036A71",
"A  c #743071CB6698",
"S  c #741E72166C34",
"D  c #7972766A6CD5",
"F  c #7C3F79766E15",
"G  c #76BD759870C7",
"H  c #78C776E17231",
"J  c #7E017B96746A",
"K  c #7EF97CE778E7",
"L  c #804C0F390F45",
"P  c #82E01284128F",
"I  c #874818AC18AC",
"U  c #8A361BEE1BF1",
"Y  c #8F0C221B2220",
"T  c #914125642565",
"R  c #95F82C282C2B",
"E  c #989F2F5C2F5C",
"W  c #98382FAF2FC0",
"Q  c #9B4A33D633D8",
"!  c #9EB63A073A0C",
"~  c #A25C3D843D85",
"^  c #A58D43124313",
"/  c #A866478A478A",
"(  c #AAF74BD24BD2",
")  c #AE305279527A",
"_  c #B0D855CB55CD",
"`  c #B3A65B035B05",
"'  c #812C7D9C72CF",
"]  c #80C47F0F7A25",
"[  c #B7A362A962A9",
"{  c #B9D565766576",
"}  c #BB5A69D669D9",
"|  c #BF9C72137213",
" . c #C28574F274F2",
".. c #C3CC7BC87BCA",
"X. c #83E681267686",
"o. c #85E583967B45",
"O. c #893E86367B96",
"+. c #84E2835E80B0",
"@. c #890587548382",
"#. c #8B8C89CD81F8",
"$. c #8E818D7F8866",
"%. c #909F8CBC8385",
"&. c #92A88F42893C",
"*. c #956D92D58AF2",
"=. c #9A0496668E92",
"-. c #9D0D98C18FEA",
";. c #95E894FE9263",
":. c #989997E29585",
">. c #9BB89A7E95C8",
",. c #9B3C9AF99892",
"<. c #A4BEA010977E",
"1. c #A2279F77998D",
"2. c #A575A33D9B8A",
"3. c #A91AA4729C3A",
"4. c #A88EA6DCA0A8",
"5. c #ADCCAB6FA3D2",
"6. c #AF2BAEDFA83D",
"7. c #B19FB02EAA7C",
"8. c #B575B14FA7E2",
"9. c #B3E5B306AC8F",
"0. c #BC2FB7E2AFAF",
"q. c #BC9AB868AF19",
"w. c #BB57B97DB42F",
"e. c #C673826D826D",
"r. c #C85A86AC86AC",
"t. c #C7FA88858885",
"y. c #C98B886F886F",
"u. c #CED6964C964C",
"i. c #D19E9B9C9B9C",
"p. c #D5CAA4B9A4B9",
"a. c #D7E8A894A894",
"s. c #D94BAA7BAA7B",
"d. c #C27EBE6BB5E4",
"f. c #C1C3BF96BB70",
"g. c #DDCDB413B413",
"h. c #E22BBC6ABC6A",
"j. c #C692C39FBCE3",
"k. c #C938C553BCF0",
"l. c #C8E9C6AEC2BF",
"z. c #CD0ACA55C43D",
"x. c #CEAACD52C974",
"c. c #D398CFCAC7C1",
"v. c #D818D461CCAF",
"b. c #DAACD76DCF9C",
"n. c #DE68DB5AD374",
"m. c #E4EDC36EC36E",
"M. c #E971CED4CED4",
"N. c #ECD5D48CD48C",
"B. c #E23FDEFED776",
"V. c #E6B9E448DCFC",
"C. c #F289E183E183",
"Z. c None",
/* pixels */
"Z.Z.Z.Z.Z.Z.Z.Z.Z.Z.Z.Z.Z.Z.Z.Z.Z.Z.Z.Z.Z.Z.Z.Z.Z.Z.Z.Z.Z.Z.Z.Z.",
"Z.Z.Z.Z.Z.Z.Z.Z.Z.Z.Z.Z.Z.Z.Z.Z.Z.Z.Z.Z.Z.Z.Z.Z.Z.Z.Z.Z.Z.Z.Z.Z.",
"Z.Z.Z.Z.Z.Z.Z.Z.Z.Z.Z.Z.Z.Z.Z.Z.Z.Z.Z.Z.Z.Z.Z.Z.Z.Z.Z.Z.Z.Z.Z.Z.",
"Z.Z.+.:.:.,.,.,.,.,.,.,.,.:.:.;.;.;.*.$.@.+.o.K J H S Z 6 Z.Z.Z.",
"Z., x.n.B.V.V.V.V.V.V.V.V.V.V.B.n.b.v.c.z.j.d.0.8.5.3.<.l Z.Z.Z.",
"Z., x.b.j.9.9.9.9.9.9.9.7.6.6.5.4.2.2.>.>.*.$.#.o.o.-.=.f Z.Z.Z.",
"Z., x.n.] & 8 8 8 8 8 8 8 8 8 8 8 8 8 7 : ; - - $ = *.*.s   Z.Z.",
"Z., x.b.H 9 _ ` ` ` ` _ ( / ~ Q R T Y Y U I P L q - *.%.a   Z.Z.",
"Z., z.v.G 0  .e.....| } ` ) ^ ! Q R R T T U I P q - %.O.p   Z.Z.",
"Z., l.c.S w  ... .} [ ` ) / ~ ! Q Q Q E R Y U I q - #.o.u   Z.Z.",
"Z., j.z.S w } } [ ` _ ) ( / ^ ^ ~ ! ! Q E T U I L - o.J y   Z.Z.",
"Z., f.k.V w ` ` ` ) ) ) ) ( ( / / ^ ~ ! Q R Y I P - X.D r   Z.Z.",
"Z., w.d.B w ( } a.) i.y._ _ ) ) ( / ^ ~ Q E T U P - J A 5   Z.Z.",
"Z.@ 9.q.m w ~  .s.) g.r._ ` ` _ ) ( / ^ ! E T U P - D B 5   Z.Z.",
"Z.@ 7.8.m t ..g.m.u.N.s.} ` ` ` ) ( / ^ ! E T I P - A M 4   Z.Z.",
"Z.@ 5.5.x t ..N.s.p.M.e.[ ` ` _ ) ( / ^ ! E Y U P - C n 3   Z.Z.",
"Z.@ 4.2.l 0 / m.} y.a.^ ) _ _ ) ) ( / ~ ! R Y I P - B z 3   Z.Z.",
"Z.@ 1.>.h c g.C.g.M.M.t.( ( ( ( / ^ ~ ! Q T U I P - M j 2   Z.Z.",
"Z.@ =.*.f t t.h.| m.y.) ^ ~ ~ ~ ~ ! Q E T Y U P q % m h 1   Z.Z.",
"Z.+ &.%.a 9 e.u.) h.) E ( u.p.i.} Q T T U U P P q % n d 1   Z.Z.",
"Z.+ #.o.p 9 } ) ! ..Q R W ! ! ! E Y U I I P P q q # z a <   Z.Z.",
"Z.+ o.' s & 7 7 7 7 8 8 8 7 7 ; ; ; ; - - - - % # * v i <   Z.Z.",
"Z.O J D X.O.O.O.O.O.o.X.' J F D A A C N N M n n n n k i <   Z.Z.",
"Z.O D C C C C C C C N M M n v v k j j h g d d j v g i i <   Z.Z.",
"Z.o A N N N N N M M M n v v k k j h g g d d a k a u i i 1   Z.Z.",
"Z.X j d z z z z z z z z j j h g d d a a i u u y e y 5 5 , Z.Z.Z.",
"Z.Z.. o x m M V S H K ] K J H S Z V B m b z l l l j 1     Z.Z.Z.",
"Z.Z.Z.Z.@ @ @ > , < 1 1 1 < < , , > > @ @ + + + + O . Z.Z.Z.Z.Z.",
"Z.Z.Z.Z.Z.Z.Z.Z.Z.Z.Z.Z.Z.Z.Z.Z.Z.Z.Z.Z.Z.Z.Z.Z.Z.Z.Z.Z.Z.Z.Z.Z.",
"Z.Z.Z.Z.Z.Z.Z.Z.Z.Z.Z.Z.Z.Z.Z.Z.Z.Z.Z.Z.Z.Z.Z.Z.Z.Z.Z.Z.Z.Z.Z.Z.",
"Z.Z.Z.Z.Z.Z.Z.Z.Z.Z.Z.Z.Z.Z.Z.Z.Z.Z.Z.Z.Z.Z.Z.Z.Z.Z.Z.Z.Z.Z.Z.Z.",
"Z.Z.Z.Z.Z.Z.Z.Z.Z.Z.Z.Z.Z.Z.Z.Z.Z.Z.Z.Z.Z.Z.Z.Z.Z.Z.Z.Z.Z.Z.Z.Z."
};
