/* XPM */
static char *gnome_gnumeric[] = {
/* columns rows colors chars-per-pixel */
"32 32 235 2 ",
"   c #4C0000",
".  c #5A0000",
"X  c #640201",
"o  c #6A0303",
"O  c #620807",
"+  c #640508",
"@  c #6D0708",
"#  c #630909",
"$  c #6D0909",
"%  c #700505",
"&  c #710D0D",
"*  c #761414",
"=  c #7C1414",
"-  c #761D1C",
";  c #791A1A",
":  c #5E1A28",
">  c #5C1F31",
",  c #671924",
"<  c #4D2E2C",
"1  c #722726",
"2  c #7F2625",
"3  c #686A04",
"4  c #7D5521",
"5  c #7A7C22",
"6  c #623E59",
"7  c #543F60",
"8  c #474744",
"9  c #4B4D49",
"0  c #5A4441",
"q  c #50524E",
"w  c #555753",
"e  c #575955",
"r  c #595B57",
"t  c #5A5C58",
"y  c #765D5A",
"u  c #574E75",
"i  c #5A5276",
"p  c #56547C",
"a  c #696B69",
"s  c #727370",
"d  c #7F7F7D",
"f  c #811717",
"g  c #8B1C1C",
"h  c #971B1B",
"j  c #A40000",
"k  c #AB1515",
"l  c #AD1A1A",
"z  c #B11717",
"x  c #992727",
"c  c #853030",
"v  c #843C3B",
"b  c #8D3C3C",
"n  c #A42424",
"m  c #A42929",
"M  c #B52121",
"N  c #B42E2E",
"B  c #B63434",
"V  c #BB3939",
"C  c #DF2C2C",
"Z  c #C03131",
"A  c #E02F2F",
"S  c #E33535",
"D  c #E63B3B",
"F  c #E83F3F",
"G  c #D15134",
"H  c #884A48",
"J  c #BD4646",
"K  c #805D78",
"L  c #876B68",
"P  c #8F6A68",
"I  c #897371",
"U  c #9F7B79",
"Y  c #A06463",
"T  c #C94242",
"R  c #D14646",
"E  c #D54949",
"W  c #DA5B45",
"Q  c #DD5252",
"!  c #EA4444",
"~  c #EE4C4C",
"^  c #E35256",
"/  c #EB5153",
"(  c #E55959",
")  c #EB5C5C",
"_  c #F15454",
"`  c #F55B5B",
"'  c #E26655",
"]  c #C5606E",
"[  c #CF606C",
"{  c #DC6060",
"}  c #EB6464",
"|  c #E96969",
" . c #F66262",
".. c #F96464",
"X. c #F46C6C",
"o. c #FC6C6C",
"O. c #ED7575",
"+. c #F27373",
"@. c #FE7272",
"#. c #F77E7E",
"$. c #FB7A7A",
"%. c #548C06",
"&. c #4E9A06",
"*. c #539B0C",
"=. c #5D9214",
"-. c #579F13",
";. c #5DA21B",
":. c #76872A",
">. c #759833",
",. c #74A133",
"<. c #76AD3C",
"1. c #75B03D",
"2. c #7ED628",
"3. c #78B241",
"4. c #7D897C",
"5. c #A2A334",
"6. c #82D62D",
"7. c #84D731",
"8. c #89DA3A",
"9. c #98A55A",
"0. c #B4AD51",
"q. c #A7B55F",
"w. c #80817E",
"e. c #9D807F",
"r. c #BFA266",
"t. c #DF876C",
"y. c #C5B66D",
"u. c #90DB45",
"i. c #99D64D",
"p. c #95DE4C",
"a. c #A0E35F",
"s. c #B4CB6D",
"d. c #B9D07E",
"f. c #B4DA78",
"g. c #ACE771",
"h. c #ACE872",
"j. c #204A87",
"k. c #234C88",
"l. c #325289",
"z. c #345B91",
"x. c #3C5D94",
"c. c #3C6196",
"v. c #4A5F8F",
"b. c #555780",
"n. c #496B9D",
"m. c #546192",
"M. c #666E9A",
"N. c #4E70A0",
"B. c #4373AE",
"V. c #4777B1",
"C. c #4877B1",
"Z. c #4C7BB5",
"A. c #507FB7",
"S. c #7177A1",
"D. c #85769C",
"F. c #A66C86",
"G. c #B47187",
"H. c #5781B7",
"J. c #5583BA",
"K. c #5E8ABD",
"L. c #7784AD",
"P. c #628ABA",
"I. c #7688B2",
"U. c #7B8FBA",
"Y. c #6A90BE",
"T. c #7491BD",
"R. c #5C8AC0",
"E. c #618FC3",
"W. c #6694C7",
"Q. c #6B92C0",
"!. c #6B99CA",
"~. c #7196C2",
"^. c #719ECE",
"/. c #838482",
"(. c #8A8B88",
"). c #918C89",
"_. c #8F908C",
"`. c #92928F",
"'. c #949592",
"]. c #989996",
"[. c #9C9D9A",
"{. c #BE8E85",
"}. c #B58A89",
"|. c #A79593",
" X c #A39B98",
".X c #B69A9A",
"XX c #9FA09C",
"oX c #A2A383",
"OX c #A1A29E",
"+X c #9A81A1",
"@X c #958BAA",
"#X c #849EB7",
"$X c #8394BA",
"%X c #8A9BBF",
"&X c #9F97B4",
"*X c #9A9DBD",
"=X c #A4A5A2",
"-X c #A7A8A4",
";X c #A8A9A6",
":X c #ACADAB",
">X c #B0B1AF",
",X c #B5B6B3",
"<X c #B8B5B2",
"1X c #B7B8B6",
"2X c #BBBAB6",
"3X c #BEBEBB",
"4X c #F48484",
"5X c #FD8B8B",
"6X c #F59595",
"7X c #FA9292",
"8X c #F89898",
"9X c #C5ABA8",
"0X c #C9B0AE",
"qX c #CCB6B5",
"wX c #FBA1A1",
"eX c #B5E483",
"rX c #B8EC84",
"tX c #C5D78D",
"yX c #C1C1BD",
"uX c #809FC8",
"iX c #8EABCE",
"pX c #C5C5C3",
"aX c #C9C9C6",
"sX c #CCCCCA",
"dX c #D1D1CE",
"fX c #D3D3D2",
"gX c #D8D8D7",
"hX c #DDDDDB",
"jX c gray89",
"kX c #EAEAE7",
"lX c #EBEBE8",
"zX c #F4F4F4",
"xX c #F8F8F7",
"cX c #FFFFFF",
"vX c None",
/* pixels */
"vXt t t t t t t r r r r r r t t t t t t r r t t r t vXvXvXvXvXvX",
"t >XxXcXcXcXcXcXcXcXcXcXcXcXcXcXcXcXcXcXcXcXcXcXcX>Xt vXvXvXvXvX",
"t xX1X:X:X:X:X:X'.:X:X:X:X:X:X:X'.:X:X:X:X:X:X:X1XxXr vXvXvXvXvX",
"r cX:XhXjXhXhXgXOXgXgXgXgXgXgXgX-XgXgXgXgXgXgXgX:XcXe vXvXvXvXvX",
"e cX:XhXhXhXgXfXOXfXfXfXfXfXfXfX=XfXfXfXfXfXfXfX:XcXe vXvXvXvXvX",
"e cX:XgXgXfXfXsX[.sXsXsXsXsXaXaX[.sXsXsXsXsXsXsX;XcXe vXvXvXvXvX",
"e cX-XgXfXdXsXaX].pXaXpXpXpXaXaX].pXpXpXpXpXpXpX=XcXe vXvXvXvXvX",
"e cX/.'._.(./.d a '.'.'.'.'.'.'.w.'.'.'.'.'.'.'.`.cXr vXvXvXvXvX",
"e cX;XfXfXsXpXyX'.lXlXlXkXkXkXlX,XlXlXlXlXlXlXlX,XcXe vXvXvXvXvX",
"e cX;XgXdXsXpXyX'.lXlXlXkXkXkXkX,XkXkXkXkXlXlXlX,XcXe vXvXvXvXvX",
"e cX;XfXfXsXpXpX'.kXkXkXkXkXqX}.H c & % ; b Y }.|.cXr vXvXvXvXvX",
"e cX'.=XOX[.].'.w.>X1X>XF.- g V R ) X.o...( R B = b 0 vXvXvXvXvX",
"e cX;XfXdXaXpX3X'.kX0X2 x ( @.@.@.@.@.@.o.o.@.o.o.Q g X vXvXvXvX",
"e cX;XdXsXaXpXyX_.<X= | @.@.@.@.@.@.o.o.o....... .o.@.( % vXvXvX",
"e cX;XdXsXaXpXqXI = X.@.@.o.o.o.o....... . . .` ` ` ` X.} % vXvX",
"e cX'.=XOX[.].).* +.@.o.o.o.o..... . . .` ` ` _ _ _ _ ~ X.| @ vX",
"e cX-XdXsXpXyXU T $........... .`  .` _ ` _ _ ~ ~ ^ ] F.D.T.K vX",
"e cX-XdXsXaXyXv O.o... .` ` ` ` _ _ _ _ / [ G.+XU.W.E.R.J.E.L.X ",
"e cX-XsXaXpXyX= 5X . .` _ _ _ _ ~ _ ~ {.^.^.^.!.W.E.R.J.A.A.T.X ",
"e cX`.OXXX[.`.* 5X` _ _ _ _ ~ ~ ~ ! ' tX^.^.!.W.E.R.J.J.Z.Z.~.% ",
"e cX=XsXaXpX2X@ 4X .~ ~ ~ ! ! ! ! ! y.rX#X^.W.E.K.J.H.Z.C.H.I.X ",
"e cX-XsXaXyX,X@ { 4X~ ~ ! ! ! F D W g.h.oXQ.E.R.J.J.Z.C.B.Y.S.o ",
"e cXOXsXpXpX1X@ N 6XX.F F F D D S 0.a.a.q.E.R.J.J.Z.C.B.P.$Xv.X ",
"e cX`.OXXX[.`.1 h M 6XX.S S S A G p.p.p.i.P.J.J.Z.C.B.P.$Xx.7 X ",
"e cX-XsXyXyX<XP f l z 8X7X) A A 5.8.8.8.8.4.J.Z.Z.P.uX&Xl.c., vX",
"e cXOXaXaXyX2X X@ n l j T 6XwXt.u.8.6.2.7.9.Q.~.iXuXM.j.x.u X vX",
"e cXOXaXyXyX2X:Xy $ m l j j B r.s.f.eXeXeXd.*X@Xm.k.j.x.p + vXvX",
"r xX3XOXXX].'._.s L $ m N k j 3 &.&.&.*.&.%.j.j.k.z.n.u + vXvXvX",
"t =XxXcXcXcXcXcXzXjX.X* ; m B 5 ;.-.*.&.*.=.z.c.N.p > X vXvXvXvX",
"vXr r e w w w w w q 9 8 < # & 4 :.,.1.3.<.>.p 6 : + vXvXvXvXvXvX",
"vXvXvXvXvXvXvXvXvXvXvXvXvXvXvX  . X X X X X .   vXvXvXvXvXvXvXvX",
"vXvXvXvXvXvXvXvXvXvXvXvXvXvXvXvXvXvXvXvXvXvXvXvXvXvXvXvXvXvXvXvX"
};
