/* XPM */
static char * gthumb_xpm[] = {
"32 32 339 2",
"  	c None",
". 	c #919191",
"+ 	c #C5C5C5",
"@ 	c #C1C1C1",
"# 	c #2F2F2F",
"$ 	c #B4B4B4",
"% 	c #FFFFFF",
"& 	c #FEFEFE",
"* 	c #FDFDFD",
"= 	c #EDEDED",
"- 	c #2E2E2E",
"; 	c #FCFCFC",
"> 	c #ECECEC",
", 	c #2C2C2C",
"' 	c #F6F6F6",
") 	c #C7C7C7",
"! 	c #C6C6C6",
"~ 	c #C4C4C4",
"{ 	c #C3C3C3",
"] 	c #E1E1E1",
"^ 	c #2B2B2B",
"/ 	c #E5E5E5",
"( 	c #4B4F4B",
"_ 	c #717670",
": 	c #5A5C4D",
"< 	c #3E3E30",
"[ 	c #413F31",
"} 	c #434134",
"| 	c #52503D",
"1 	c #545344",
"2 	c #44453A",
"3 	c #494B3E",
"4 	c #5F6257",
"5 	c #6E7067",
"6 	c #9A9B99",
"7 	c #E6E6E6",
"8 	c #505650",
"9 	c #8D958B",
"0 	c #5A5C4A",
"a 	c #3F3C22",
"b 	c #37341C",
"c 	c #544E31",
"d 	c #858164",
"e 	c #757158",
"f 	c #5A5842",
"g 	c #66634E",
"h 	c #737968",
"i 	c #626756",
"j 	c #8C8C8A",
"k 	c #B0B0B0",
"l 	c #3D3F3D",
"m 	c #727471",
"n 	c #404034",
"o 	c #322F1C",
"p 	c #242315",
"q 	c #48442D",
"r 	c #878269",
"s 	c #7C755C",
"t 	c #695C45",
"u 	c #B39D8A",
"v 	c #626659",
"w 	c #3C3F33",
"x 	c #898988",
"y 	c #555555",
"z 	c #8A8A8A",
"A 	c #B1B1B1",
"B 	c #EBEBEB",
"C 	c #393A38",
"D 	c #151611",
"E 	c #14140E",
"F 	c #1E1F13",
"G 	c #67624B",
"H 	c #8B7F6B",
"I 	c #705A43",
"J 	c #DACDC3",
"K 	c #959690",
"L 	c #2D3024",
"M 	c #878886",
"N 	c #626262",
"O 	c #999999",
"P 	c #CACACA",
"Q 	c #DDDDDD",
"R 	c #F2F2F2",
"S 	c #F9F9F9",
"T 	c #F8F8F8",
"U 	c #F4F4F4",
"V 	c #737370",
"W 	c #4F4D3E",
"X 	c #574E34",
"Y 	c #665F46",
"Z 	c #897464",
"` 	c #A27E65",
" .	c #936C50",
"..	c #CCB9AA",
"+.	c #CFCBC6",
"@.	c #55574B",
"#.	c #8A8A89",
"$.	c #7C7C7C",
"%.	c #A8A8A8",
"&.	c #DCDCDC",
"*.	c #FAFAFA",
"=.	c #F7F7F7",
"-.	c #A9A9A8",
";.	c #514B27",
">.	c #9A8832",
",.	c #B59F37",
"'.	c #BFA83D",
").	c #C4AD42",
"!.	c #CCB54B",
"~.	c #CFB750",
"{.	c #D6C060",
"].	c #E4D276",
"^.	c #99978F",
"/.	c #4E4E4E",
"(.	c #939393",
"_.	c #DBDBDB",
":.	c #F1F1F1",
"<.	c #FBFBFB",
"[.	c #EAEAEA",
"}.	c #C0C0C0",
"|.	c #D3D3D3",
"1.	c #4D503E",
"2.	c #707238",
"3.	c #888A42",
"4.	c #9A994D",
"5.	c #9E9C4B",
"6.	c #9F9A45",
"7.	c #A29D47",
"8.	c #A9A34D",
"9.	c #A9A242",
"0.	c #929289",
"a.	c #D2D2D2",
"b.	c #CCCCCC",
"c.	c #AEB0B0",
"d.	c #848A8F",
"e.	c #646E77",
"f.	c #6B7783",
"g.	c #7B8188",
"h.	c #666965",
"i.	c #344A2E",
"j.	c #47603D",
"k.	c #72815E",
"l.	c #848C67",
"m.	c #79845B",
"n.	c #949D7B",
"o.	c #B8BBA6",
"p.	c #919B6C",
"q.	c #90918D",
"r.	c #F0F0F0",
"s.	c #9E9E9D",
"t.	c #807E7D",
"u.	c #575859",
"v.	c #393B3C",
"w.	c #394046",
"x.	c #586673",
"y.	c #859EB4",
"z.	c #697684",
"A.	c #969696",
"B.	c #9CA09B",
"C.	c #B8BBB6",
"D.	c #BEC0BB",
"E.	c #BBBEB8",
"F.	c #C1C3BF",
"G.	c #C8C9C7",
"H.	c #BEC2BC",
"I.	c #D7D7D7",
"J.	c #888888",
"K.	c #E3E3E3",
"L.	c #B8B8B8",
"M.	c #9A9A9A",
"N.	c #7B797A",
"O.	c #817D7B",
"P.	c #766E6B",
"Q.	c #867E7A",
"R.	c #AEB9C5",
"S.	c #ADC1D4",
"T.	c #ADBED1",
"U.	c #9AAABB",
"V.	c #5C6169",
"W.	c #54555A",
"X.	c #B0B0B1",
"Y.	c #6C6C6C",
"Z.	c #F5F5F5",
"`.	c #E7E7E7",
" +	c #4A4A4A",
".+	c #F3F3F3",
"++	c #9E9E9E",
"@+	c #787D85",
"#+	c #A2A5AD",
"$+	c #B8BBC5",
"%+	c #707175",
"&+	c #96979D",
"*+	c #EEE7E6",
"=+	c #F3F5F7",
"-+	c #FAFBFC",
";+	c #F5F7F9",
">+	c #E4E9EF",
",+	c #C0C7D2",
"'+	c #737986",
")+	c #E0E0E0",
"!+	c #B2B2B2",
"~+	c #E9E9E9",
"{+	c #CBCBCB",
"]+	c #C9C9C9",
"^+	c #787E89",
"/+	c #B4BCCC",
"(+	c #768291",
"_+	c #7A7D87",
":+	c #EEEDEF",
"<+	c #FDFDFE",
"[+	c #F9F9FA",
"}+	c #F3F3F5",
"|+	c #EFEFF2",
"1+	c #E2DCDC",
"2+	c #D0C0BE",
"3+	c #585454",
"4+	c #A1A1A1",
"5+	c #8B8B8B",
"6+	c #7F7F7F",
"7+	c #BEBEBE",
"8+	c #252525",
"9+	c #989898",
"0+	c #EAEAE9",
"a+	c #636A73",
"b+	c #9CABC2",
"c+	c #60646E",
"d+	c #B7B4BB",
"e+	c #FDFCFC",
"f+	c #FBF9F8",
"g+	c #FBF7F4",
"h+	c #F6F1EF",
"i+	c #C1C1C5",
"j+	c #86919F",
"k+	c #4A5B6B",
"l+	c #5A5A5A",
"m+	c #343434",
"n+	c #363636",
"o+	c #6B6B6B",
"p+	c #85868A",
"q+	c #9594A3",
"r+	c #5B5453",
"s+	c #F0E8E4",
"t+	c #F8F8F6",
"u+	c #EDEEED",
"v+	c #D3D9E0",
"w+	c #A5B8C8",
"x+	c #4E7591",
"y+	c #436C87",
"z+	c #315264",
"A+	c #1B2125",
"B+	c #CDCDCD",
"C+	c #414141",
"D+	c #AEACAC",
"E+	c #A18D8A",
"F+	c #4F4945",
"G+	c #EEE8E3",
"H+	c #F4F6F7",
"I+	c #ECEEEF",
"J+	c #E1E3E8",
"K+	c #D4DAE1",
"L+	c #A0B6C4",
"M+	c #668CA3",
"N+	c #40677B",
"O+	c #2A4A59",
"P+	c #2D3D46",
"Q+	c #1A1E20",
"R+	c #686868",
"S+	c #D0D0D0",
"T+	c #505963",
"U+	c #25323B",
"V+	c #7A90A1",
"W+	c #A9BAC6",
"X+	c #B3C3CE",
"Y+	c #9DB2BF",
"Z+	c #728B9C",
"`+	c #577080",
" @	c #697882",
".@	c #929598",
"+@	c #C6C6C7",
"@@	c #E4E4E4",
"#@	c #5D5D5D",
"$@	c #A3A3A3",
"%@	c #7D7D7D",
"&@	c #5B6166",
"*@	c #21323C",
"=@	c #3B596C",
"-@	c #3E5E73",
";@	c #4D6473",
">@	c #7E8890",
",@	c #A8AFB4",
"'@	c #CFD1D3",
")@	c #BFBFBF",
"!@	c #606060",
"~@	c #DADADA",
"{@	c #D4D4D4",
"]@	c #161616",
"^@	c #333333",
"/@	c #959595",
"(@	c #373F45",
"_@	c #292B2D",
":@	c #A9ABAB",
"<@	c #5B5B5B",
"[@	c #C2C2C2",
"}@	c #D9D9D9",
"|@	c #A2A2A2",
"1@	c #5C5C5C",
"2@	c #6F6F6F",
"3@	c #676767",
"4@	c #0F0F0F",
"5@	c #3F3F3F",
"6@	c #464646",
"7@	c #303030",
"8@	c #8C8C8C",
"9@	c #D6D6D6",
"0@	c #A4A4A4",
"a@	c #454545",
"b@	c #9F9F9F",
"c@	c #6E6E6E",
"d@	c #131313",
"e@	c #0D0D0D",
"f@	c #030303",
"g@	c #090909",
"h@	c #000000",
"i@	c #C8C8C8",
"j@	c #2A2A2A",
"k@	c #0C0C0C",
"l@	c #010101",
"m@	c #141414",
"n@	c #ABABAB",
"o@	c #707070",
"p@	c #0B0B0B",
"q@	c #3B3B3B",
"r@	c #191919",
"s@	c #373737",
"t@	c #151515",
"u@	c #383838",
"v@	c #181818",
"w@	c #0A0A0A",
"x@	c #0E0E0E",
"                                                                ",
"                        . + + + + + + + + + + + + + + @ #       ",
"                        $ % % % % % % % % % % % & & * = -       ",
"                        $ % % % % % % % % % % % & * ; > ,       ",
"                        $ ' ) ) ) ! ! ! + + ~ ~ { { ] = ^       ",
"                        $ / ( _ : < [ } | 1 2 3 4 5 6 = ^       ",
"                        $ 7 8 9 0 a b c d e f g h i j = ^       ",
"                        k ) l m n o p q r s t u v w x = ^       ",
"                      y z A B B C D E F G H I J K L M > ^       ",
"                N O P Q R S T U V W X Y Z `  ...+.@.#.> ^       ",
"          $.%.&.S ; *.S T T =.' -.;.>.,.'.).!.~.{.].^.> ^       ",
"  /.(.@ _.:.& * <.<.*.S ' [.}.|.P 1.2.3.4.5.6.7.8.9.0.> ^       ",
"  a.% % & * * ; T = b.c.d.e.f.g.B h.i.j.k.l.m.n.o.p.q.B ^       ",
"  @ % % & ; r.|.s.t.u.v.w.x.y.z.[.A.h.B.C.D.E.F.G.H.I.[.^       ",
"  J.; K.L.M.N.O.P.Q.R.S.T.U.V.W.X.|.Y.! :.S T =.' Z.U `.^       ",
"   +.+++@+#+$+%+&+*+=+-+;+>+,+'+N )+Y.!+~+=.=.=.Z.Z.U 7 ^       ",
"    {+]+^+/+(+_+:+& <+[+}+|+1+2+3+4+5+6+L.P b.{+{+P P 7+8+      ",
"    9+0+a+b+c+d+& & e+f+g+h+i+j+k+l+%.^ , m+n+n+n+n+n+m+        ",
"    o+= p+q+r+s+& e+t+u+v+w+x+y+z+A+B+C+                        ",
"      a.D+E+F+G+H+I+J+K+L+M+N+O+P+Q+Q R+                        ",
"      k S+T+U+V+W+X+Y+Z+`+ @.@+@@@#@_.$@                        ",
"      %@~+&@*@=@-@;@>@,@'@~+' ' )@!@~@{@]@                      ",
"      ^@> /@(@_@:@/ =.=.' ' U 7 <@J.) $ #                       ",
"        [@}@|@1@2@K.U U .+R &.3@4@5@6@7@                        ",
"        8@Z.9@0@Y.a@J.b@9+c@d@e@f@g@h@                          ",
"        3@[.~+i@/@o+j@k@l@l@h@h@f@- m@h@                        ",
"          n@0@o@j@p@h@h@h@        h@q@r@h@                      ",
"          s@t@                      p@# d@h@                    ",
"                                      h@u@v@h@                  ",
"                                        w@x@                    ",
"                                                                ",
"                                                                "};
