/* XPM */
static char *magick[] = {
/* columns rows colors chars-per-pixel */
"48 48 54 1",
"  c None",
". c Gray44",
"X c #787078",
"o c #d88000",
"O c #d88800",
"+ c #807080",
"@ c #f8a820",
"# c #f8a818",
"$ c #887088",
"% c #f8e0b8",
"& c #787070",
"* c #f8e0c0",
"= c #f8f8d8",
"- c #98a098",
"; c #a0a0a0",
": c #98a0a0",
"> c #a0a098",
", c #d0c8c8",
"< c #c0c0c0",
"1 c #b8b8c0",
"2 c #c0c0b8",
"3 c #c0b8c0",
"4 c #c0b8b8",
"5 c #b8c0c0",
"6 c #c8d0d0",
"7 c #d0d0d0",
"8 c #d0c8d0",
"9 c #c8c8c8",
"0 c #c8c8d0",
"q c #d0d0c8",
"w c Gray88",
"e c #e0d8e0",
"r c Gray91",
"t c Gray94",
"y c #d8e0d8",
"u c #d8d4d8",
"i c #f0e8f0",
"p c #f0f0e8",
"a c #f8fcf8",
"s c #707068",
"d c Gray0",
"f c #907090",
"g c #38b8b8",
"h c #887080",
"j c #a870a8",
"k c #987098",
"l c #f8b850",
"z c #e08400",
"x c #e08800",
"c c #e88808",
"v c #807078",
"b c #707078",
"n c #f8c880",
"m c #f08800",
/* pixels */
"                                                ",
"                                                ",
"                                                ",
"                                                ",
"                                                ",
"               ....................             ",
"               ....................             ",
"              XoOOOOOOOOOOOOOOOOOO..            ",
"             +@oOOOO@#@@#@@O@#@@#@..            ",
"            $%%%%%%%%%%%%%%%%%%%%%&.            ",
"            +%*&&.&&&&&&&&&&&&&&=*&.            ",
"            +*&-;:>::>:;>:;>:;>; @&.            ",
"            $%.;,<123<45321<46;; @&.            ",
"            $%.;5 78797870q878-; @&.            ",
"            $%.;4  wewrtr wy,7;; @&.            ",
"            $*.;<7 wyuyittep70;; @&.            ",
"            $%.;177      aaaqq;;q@ss            ",
"            $%.;287aa d   aaqq;dddss ddd        ",
"            f%.;1q8yyagdd  aaq;dd@ss dd         ",
"            f%.;207yaaaadd   a;dd@ss dd  dd     ",
"            f%.;1q8qqqyyddyddddddddddddddddd    ",
"            f%.;207qqqqyyyyyqq;dd@ss dd         ",
"            f*.;123qqqq qqqq qqdd@ss dd         ",
"            f%.;qq qdqq qq qqdy;q@ss   dd       ",
"            f*.;;;;;;dd;;;;;;ddddddddddddd      ",
"            f*=      dd      ddddddddddddd      ",
"            f%@@@@@@@@dd@@d@@dd@@@dd   dd       ",
"             h&&&&&sssddssdssddsssdd   dd       ",
"        jjkf+......ssssssdsssddsssddsssdd       ",
"       kl@@@#@@#@@#@@@@@@d@@@dddddddddddd       ",
"       +%%%%%%%%%%%*****dd***dd***dd**sdd       ",
"      $%zx%cx%cx%cx*OO*Od*OO*OO*OOddO**ss       ",
"      v%OO%xO%Ox%OO*OO*dd*OOdddddddddddddd      ",
"      X%%%%%%%%*%%*****dd*****%%%%dd%%%%ss      ",
"     X@%@*@@%@@%@@%@@%dd%@@%@@%@@%dd%@@%ss      ",
"     b@%@%@@%@@%@@%@dddd%@dddddddddddddddddd    ",
"    .@#%%%%%%%%%%%%%%ddd%%%%%%%%%dd%d%%%@ss     ",
"    .#@lnnnnnnnnnnnnnnddnnnnnnnnddnnnd%@@ss     ",
"    .##@@#@@#@@#@@#@@@dd@@@@@@@@dd@@@ddd@ss     ",
"    .OxzzzmmmmmmmmmOOOddOOOOOOOddOOOOOdddddd    ",
"    s.ssssssssssssssssdddssssddssssssssdddd     ",
"     ..............ssssddsdddssssssssssssdd     ",
"                                                ",
"                                                ",
"                                                ",
"                                                ",
"                                                ",
"                                                "
};
