/* XPM */
static char *icon[] = {
/* columns rows colors chars-per-pixel */
"32 32 7 1",
"  c black",
". c gray20",
"X c blue",
"o c cyan",
"O c yellow",
"+ c gray80",
"@ c gray90",
/* pixels */
"+@+@+@++@++@+@+@+@+@++@@++@++@+@",
"+XXXXXXXXXoXXXXXoXXXXXXXXXoXXXX.",
"@XXOOOOOXXoXOOXXoXXXOOOOXXoXOOX.",
"+XXXXXXXXXoXXXXXoXXXXXXXXXoXXXX.",
"+XXXXXXXXXoXXXXXoXXXXXXXXXoXXXX.",
"@XoooooooXoXooXXoXoooooooXoXooX.",
"+XXXXXXXXXoXXXXXoXXXXXXXXXoXXXX.",
"@XoooooooXoXooXXoXoooooooXoXooX.",
"+XXXXXXXXXoXXXXXoXXXXXXXXXoXXXX.",
"@XoooooooXoXooXXoXoooooooXoXooX.",
"+XXXXXXXXXoXXXXXoXXXXXXXXXoXXXX.",
"@XoooooooXoXooXXoXoooooooXoXooX.",
"+XXXXXXXXXoXXXXXoXXXXXXXXXoXXXX.",
"@XoooooooXoXooXXoXoooooooXoXooX.",
"+XXXXXXXXXoXXXXXoXXXXXXXXXoXXXX.",
"+XoooooooXoXooXXoXoooooooXoXooX.",
"+XXXXXXXXXoXXXXXoXXXXXXXXXoXXXX.",
"@XXXXXXXXXoXXXXXoXoooooooXoXooX.",
"+XXXXXXXXXoXXXXXoXXXXXXXXXoXXXX.",
"@XXXXXXXXXoXXXXXoXoooooooXoXooX.",
"+XXXXXXXXXoXXXXXoXXXXXXXXXoXXXX.",
"@oooooooooooooooooooooooooooooo ",
"+XXXXXXXXXXXXXXXXXXXXXXXXXXXXXX.",
"@XooooooXoXoooXXXXooooooXooXooX.",
"+XXXXXXXXXXXXXXXXXXXXXXXXXXXXXX.",
"+oooooooooooooooooooooooooooooo.",
"@                              .",
"+                              .",
"+.+                            .",
"@                              .",
"++O++ ++++ O++O +O++O +O++ ++O+.",
"+..............................."
};
