/* XPM */
static char * obconf_xpm[] = {
"32 32 372 2",
"  	c None",
". 	c #385E95",
"+ 	c #486EA2",
"@ 	c #466CA1",
"# 	c #466DA2",
"$ 	c #456CA1",
"% 	c #456BA1",
"& 	c #476EA2",
"* 	c #325A92",
"= 	c #587AA9",
"- 	c #658DC0",
"; 	c #5580B9",
"> 	c #5480B9",
", 	c #547FB9",
"' 	c #537FB9",
") 	c #648CBF",
"! 	c #496DA1",
"~ 	c #5377A9",
"{ 	c #5380BB",
"] 	c #4073B4",
"^ 	c #5381BB",
"/ 	c #5075A7",
"( 	c #5482BE",
"_ 	c #4376B8",
": 	c #5382BE",
"< 	c #4369A0",
"[ 	c #4B72A7",
"} 	c #5584C1",
"| 	c #477ABC",
"1 	c #4068A0",
"2 	c #4A71A6",
"3 	c #5686C3",
"4 	c #497DBF",
"5 	c #4A7EC0",
"6 	c #5586C4",
"7 	c #3E669F",
"8 	c #4970A7",
"9 	c #5A8AC7",
"0 	c #4F83C3",
"a 	c #4F82C1",
"b 	c #5381BA",
"c 	c #4F81BF",
"d 	c #4F82C3",
"e 	c #4F83C4",
"f 	c #5889C7",
"g 	c #3D669F",
"h 	c #40669E",
"i 	c #668CBD",
"j 	c #648ABC",
"k 	c #638ABC",
"l 	c #6389BC",
"m 	c #6287B8",
"n 	c #6780A4",
"o 	c #A5B0C4",
"p 	c #A7B2C6",
"q 	c #778AA6",
"r 	c #5374A0",
"s 	c #6287BB",
"t 	c #6288BB",
"u 	c #6188BB",
"v 	c #5A80B2",
"w 	c #5C82B5",
"x 	c #6188BA",
"y 	c #6389BB",
"z 	c #396099",
"A 	c #6481AA",
"B 	c #E4E6EA",
"C 	c #E2E4E9",
"D 	c #E2E4E8",
"E 	c #E2E4E7",
"F 	c #E1E4E8",
"G 	c #E1E3E7",
"H 	c #D8DBDE",
"I 	c #CBCED2",
"J 	c #B6B7BA",
"K 	c #C1C1C8",
"L 	c #EBEBF0",
"M 	c #E5E5EA",
"N 	c #ACADB6",
"O 	c #B9BBBF",
"P 	c #DDDFE3",
"Q 	c #DFE2E6",
"R 	c #DEE0E4",
"S 	c #C2C4C9",
"T 	c #B1B2BB",
"U 	c #999BA0",
"V 	c #D7D9DC",
"W 	c #DEE1E5",
"X 	c #DEE1E4",
"Y 	c #DFE2E5",
"Z 	c #637FA8",
"` 	c #6883AB",
" .	c #EBEBEB",
"..	c #E8E8E9",
"+.	c #E8E8E8",
"@.	c #E8E8E7",
"#.	c #E7E7E7",
"$.	c #C2C1C3",
"%.	c #ABABB1",
"&.	c #BCBCBD",
"*.	c #A9AAAD",
"=.	c #BCBDC4",
"-.	c #ECECF2",
";.	c #E0E0E8",
">.	c #959599",
",.	c #D6D6D6",
"'.	c #E5E6E6",
").	c #DCDCDC",
"!.	c #C4C4CA",
"~.	c #A6A7B2",
"{.	c #909092",
"].	c #DDDDDD",
"^.	c #E5E5E5",
"/.	c #E5E4E4",
"(.	c #E4E4E5",
"_.	c #E4E5E4",
":.	c #E4E4E4",
"<.	c #6782AA",
"[.	c #E9E8E8",
"}.	c #E4E5E5",
"|.	c #B8B8BD",
"1.	c #D6D6DF",
"2.	c #ABABB3",
"3.	c #B2B3B4",
"4.	c #9E9EA4",
"5.	c #DCDCE4",
"6.	c #E4E4EB",
"7.	c #93949B",
"8.	c #C2C2C2",
"9.	c #D5D4D5",
"0.	c #ADADB2",
"a.	c #7C7D83",
"b.	c #838386",
"c.	c #C9C9C9",
"d.	c #E1E2E2",
"e.	c #E2E1E2",
"f.	c #E2E2E2",
"g.	c #E1E1E1",
"h.	c #E7E6E7",
"i.	c #E3E3E3",
"j.	c #E2E3E3",
"k.	c #E2E2E3",
"l.	c #B5B5B9",
"m.	c #D0D0DB",
"n.	c #D2D2DC",
"o.	c #AEAEB8",
"p.	c #BBBBC6",
"q.	c #D8D8E3",
"r.	c #DADAE4",
"s.	c #92929A",
"t.	c #B0B0B1",
"u.	c #ACACB1",
"v.	c #7F7F84",
"w.	c #A6A6A6",
"x.	c #CECECE",
"y.	c #DEDEDE",
"z.	c #E0E0E0",
"A.	c #E0DFE0",
"B.	c #DFE0E0",
"C.	c #DFDFDF",
"D.	c #E3E2E3",
"E.	c #E1E0E0",
"F.	c #E0DFDF",
"G.	c #C2C2C3",
"H.	c #ADADB8",
"I.	c #CBCBD8",
"J.	c #CFCFDB",
"K.	c #CECEDB",
"L.	c #CCC9D6",
"M.	c #CFCCD7",
"N.	c #C3C3CB",
"O.	c #9B9BA2",
"P.	c #7F7F83",
"Q.	c #A1A1A2",
"R.	c #DBDBDB",
"S.	c #DDDCDD",
"T.	c #E0E0E1",
"U.	c #DFDEDE",
"V.	c #DEDDDD",
"W.	c #DDDDDE",
"X.	c #D8D8D9",
"Y.	c #A6A6AA",
"Z.	c #9FA0AA",
"`.	c #BEBECD",
" +	c #C0C0CF",
".+	c #B08F97",
"++	c #B48A8F",
"@+	c #B7B7BE",
"#+	c #AEAEB6",
"$+	c #8C8C91",
"%+	c #C1C2C1",
"&+	c #DBDADB",
"*+	c #DADADA",
"=+	c #6682AA",
"-+	c #6783AB",
";+	c #DADBDB",
">+	c #DBDADA",
",+	c #D6D5D6",
"'+	c #B8B8B8",
")+	c #8D8D8E",
"!+	c #7B7275",
"~+	c #A86B69",
"{+	c #CE7571",
"]+	c #A16668",
"^+	c #DFD8DC",
"/+	c #D9DAE0",
"(+	c #9E9FA4",
"_+	c #C6C5C5",
":+	c #D7D7D7",
"<+	c #D8D8D8",
"[+	c #D7D8D8",
"}+	c #D8D7D7",
"|+	c #D9D9D9",
"1+	c #D8D9D9",
"2+	c #D6D7D6",
"3+	c #BEADAD",
"4+	c #B98583",
"5+	c #D37E79",
"6+	c #C04540",
"7+	c #9D3C3D",
"8+	c #CFBFC5",
"9+	c #ECECF1",
"0+	c #DADAE0",
"a+	c #9D9EA2",
"b+	c #C1C1C2",
"c+	c #D5D6D6",
"d+	c #D6D5D5",
"e+	c #D5D5D5",
"f+	c #DADADB",
"g+	c #D5D6D5",
"h+	c #D2CFCF",
"i+	c #C2ADAC",
"j+	c #CE918B",
"k+	c #E39089",
"l+	c #BE423B",
"m+	c #7F3A38",
"n+	c #8D868C",
"o+	c #C2C0CC",
"p+	c #DFDFE8",
"q+	c #D1D2D9",
"r+	c #9FA0A5",
"s+	c #BFBFBF",
"t+	c #D2D2D2",
"u+	c #D3D3D3",
"v+	c #D2D2D3",
"w+	c #D4D4D4",
"x+	c #D3D4D3",
"y+	c #C1AAA9",
"z+	c #CF9591",
"A+	c #EC9C93",
"B+	c #D75245",
"C+	c #8F312C",
"D+	c #8D8282",
"E+	c #AEAEAF",
"F+	c #9B9CA4",
"G+	c #CDCEDA",
"H+	c #DFDFE7",
"I+	c #D5D5DF",
"J+	c #C6C7D1",
"K+	c #929397",
"L+	c #C7C7C7",
"M+	c #D1D1D1",
"N+	c #D0D0D1",
"O+	c #D0D0D0",
"P+	c #D1D0D1",
"Q+	c #D1D0D0",
"R+	c #C4B1B0",
"S+	c #D5918B",
"T+	c #F2A095",
"U+	c #D84433",
"V+	c #992D23",
"W+	c #8C8282",
"X+	c #C6C6C6",
"Y+	c #CFCFCF",
"Z+	c #9999A1",
"`+	c #C3C3D0",
" @	c #C6C7D3",
".@	c #92939D",
"+@	c #818182",
"@@	c #C3C3C3",
"#@	c #CECDCE",
"$@	c #CECECD",
"%@	c #CDCDCD",
"&@	c #CECECF",
"*@	c #CFCECE",
"=@	c #C38D88",
"-@	c #F08E7F",
";@	c #E85A47",
">@	c #9F2D22",
",@	c #856866",
"'@	c #BDBCBC",
")@	c #CDCCCC",
"!@	c #CBCBCB",
"~@	c #B0AFB1",
"{@	c #9898A0",
"]@	c #8E8F9A",
"^@	c #797A7D",
"/@	c #B5B5B5",
"(@	c #CACACB",
"_@	c #CCCBCC",
":@	c #CCCCCB",
"<@	c #D3D3D4",
"[@	c #CCCCCC",
"}@	c #CBCCCC",
"|@	c #CBCBCC",
"1@	c #B89795",
"2@	c #BD4B3D",
"3@	c #9C3B31",
"4@	c #8A7D7D",
"5@	c #B9B9B9",
"6@	c #CACACA",
"7@	c #919191",
"8@	c #B5B5B4",
"9@	c #C8C8C9",
"0@	c #C9C8C9",
"a@	c #C8C8C8",
"b@	c #D2D1D2",
"c@	c #6884AC",
"d@	c #C9CACA",
"e@	c #C4C3C3",
"f@	c #A99D9C",
"g@	c #A29C9B",
"h@	c #C0C0C0",
"i@	c #C5C5C5",
"j@	c #C6C6C7",
"k@	c #C7C6C7",
"l@	c #C6C7C7",
"m@	c #C5C5C6",
"n@	c #C5C4C5",
"o@	c #C4C4C5",
"p@	c #C4C4C4",
"q@	c #C4C3C4",
"r@	c #C4C5C5",
"s@	c #C3C3C4",
"t@	c #C2C1C2",
"u@	c #C1C1C1",
"v@	c #5273A1",
"w@	c #AEBBCD",
"x@	c #ACB9CC",
"y@	c #A8B6C9",
"z@	c #ABB9CC",
"A@	c #ABB9CB",
"B@	c #ABB8CB",
"C@	c #AAB8CB",
"D@	c #AAB8CA",
"E@	c #AAB7CA",
"F@	c #A9B7CA",
"G@	c #A6B4C7",
"H@	c #5272A1",
"I@	c #315B97",
"J@	c #4B78B3",
"K@	c #4A77B2",
"L@	c #38649F",
"M@	c #4A78B3",
"N@	c #4978B3",
"O@	c #4977B3",
"P@	c #4977B2",
"Q@	c #4877B2",
"R@	c #4876B2",
"S@	c #4776B2",
"T@	c #36639F",
"U@	c #4775B1",
"V@	c #4675B1",
"W@	c #2E5997",
"X@	c #375B8E",
"Y@	c #2F5081",
"Z@	c #2F5080",
"`@	c #284A7C",
" #	c #2E4F7F",
".#	c #284A7B",
"+#	c #2E507F",
"@#	c #2F5182",
"                                                                ",
"                                                                ",
"  . + @ @ @ @ @ @ @ @ @ @ @ @ @ # # @ @ @ @ $ $ $ % % % $ & *   ",
"  = - ; ; ; ; ; ; ; ; ; ; ; ; ; ; ; ; ; ; ; > > > , , ' ' ) !   ",
"  ~ { ] ] ] ] ] ] ] ] ] ] ] ] ] ] ] ] ] ] ] ] ] ] ] ] ] ] ^ %   ",
"  / ( _ _ _ _ _ _ _ _ _ _ _ _ _ _ _ _ _ _ _ _ _ _ _ _ _ _ : <   ",
"  [ } | | | | | | | | | | | | | | | | | | | | | | | | | | } 1   ",
"  2 3 4 4 4 4 4 4 4 4 4 4 4 4 4 4 5 5 5 5 5 5 5 5 5 5 5 5 6 7   ",
"  8 9 0 0 0 0 0 0 0 0 a ^ b c d 0 e e e e e e e e e e e e f g   ",
"  h i j j j k k k l m n o p q r s t t t u v w u x x x x x y z   ",
"  A B C D D E F G H I J K L M N O P Q R S T U V W R R X X Y Z   ",
"  `  ...+.+.@.+.#.$.%.&.*.=.-.;.>.,.'.).!.~.{.].^./.(._.:.#.<.  ",
"  ` [.^.^.^.}.(.:.|.1.2.3.4.5.6.7.8.9.0.a.b.c.d.e.f.f.g.g.:.<.  ",
"  ` h.i.i.i.j.k.f.l.m.n.o.p.q.r.s.t.u.v.w.x.y.z.A.B.z.C.C.D.<.  ",
"  ` }.E.z.z.z.F.C.G.H.I.J.K.L.M.N.O.P.Q.R.].].].].S.).).).T.<.  ",
"  ` i.U.y.y.y.V.W.X.Y.Z.`. +.+++@+#+$+%+R.R.R.R.R.&+*+*+*+C.=+  ",
"  -+T.R.R.;+;+>+*+*+,+'+)+!+~+{+]+^+/+(+_+:+<+<+<+[+}+:+:+).=+  ",
"  -+C.|+|+1+1+<+<+<+<+2+3+4+5+6+7+8+9+0+a+b+,.,.,.c+d+e+e+f+=+  ",
"  -+S.,.,.,.,.,.g+e+h+i+j+k+l+m+n+o+p+9+q+r+s+t+u+v+t+t+t+|+=+  ",
"  ` R.w+w+w+w+w+x+u+y+z+A+B+C+D+E+F+G+H+I+J+K+L+M+N+O+O+O+:+<.  ",
"  ` |+M+M+M+M+P+Q+R+S+T+U+V+W+X+Y+'+Z+`+ @.@+@@@#@$@%@%@%@e+=+  ",
"  ` :+Y+Y+Y+Y+&@*@=@-@;@>@,@'@)@%@!@~@{@]@^@/@(@_@:@!@!@!@<@-+  ",
"  ` e+[@[@[@[@}@|@1@2@3@4@5@6@6@6@6@c./@7@8@c.c.c.9@0@a@a@b@-+  ",
"  c@w+6@6@6@d@d@c.e@f@g@h@a@a@a@a@a@a@L+i@j@L+L+L+j@j@X+X+O+-+  ",
"  c@t+L+L+L+k@j@l@X+X+X+X+X+m@i@i@i@i@n@o@p@p@p@p@q@q@@@@@x.-+  ",
"  c@O+i@i@i@n@i@r@p@p@p@p@p@s@@@@@@@@@@@8.8.8.8.8.t@t@u@u@%@-+  ",
"  v@w@x@x@x@x@y@x@z@z@z@z@A@B@A@B@B@C@C@D@E@E@F@G@F@F@F@F@z@H@  ",
"  I@J@J@J@J@K@L@M@N@N@N@O@P@P@P@P@P@Q@Q@Q@Q@R@S@T@U@S@S@S@V@W@  ",
"    X@Y@Z@Z@Z@`@Z@Z@Z@Z@Z@Z@Z@ # # # # # # # # #.# # #+#+#@#    ",
"                                                                ",
"                                                                ",
"                                                                "};
