/* XPM */
static char * openbox_xpm[] = {
"32 32 243 2",
"  	c None",
". 	c #3B6197",
"+ 	c #4F74A7",
"@ 	c #4C72A6",
"# 	c #4D72A6",
"$ 	c #4C72A5",
"% 	c #4C71A5",
"& 	c #4B71A5",
"* 	c #4B71A6",
"= 	c #4E73A7",
"- 	c #345B93",
"; 	c #5376A7",
"> 	c #658DC0",
", 	c #5580B9",
"' 	c #5480B9",
") 	c #547FB9",
"! 	c #537FB9",
"~ 	c #648CBF",
"{ 	c #466B9F",
"] 	c #4F73A6",
"^ 	c #5380BB",
"/ 	c #4073B4",
"( 	c #5381BB",
"_ 	c #42699F",
": 	c #5482BE",
"< 	c #4376B8",
"[ 	c #5382BE",
"} 	c #40679E",
"| 	c #486FA4",
"1 	c #5584C1",
"2 	c #477ABC",
"3 	c #3E659E",
"4 	c #476EA4",
"5 	c #5686C3",
"6 	c #497DBF",
"7 	c #4A7EC0",
"8 	c #5586C4",
"9 	c #3B649D",
"0 	c #466DA5",
"a 	c #5A8AC7",
"b 	c #4F83C3",
"c 	c #4F82C3",
"d 	c #4F83C4",
"e 	c #5889C7",
"f 	c #3A649D",
"g 	c #3E649C",
"h 	c #668CBD",
"i 	c #648ABC",
"j 	c #638ABC",
"k 	c #6389BC",
"l 	c #6289BC",
"m 	c #6288BC",
"n 	c #6288BB",
"o 	c #6188BB",
"p 	c #6188BA",
"q 	c #6389BB",
"r 	c #375F98",
"s 	c #5F7CA7",
"t 	c #E4E6EA",
"u 	c #E2E4E9",
"v 	c #E2E4E8",
"w 	c #E2E4E7",
"x 	c #E1E4E8",
"y 	c #E1E3E7",
"z 	c #E0E3E6",
"A 	c #E0E2E6",
"B 	c #DFE2E6",
"C 	c #DFE1E5",
"D 	c #DEE1E5",
"E 	c #DEE0E4",
"F 	c #DEE1E4",
"G 	c #DFE2E5",
"H 	c #5E7BA5",
"I 	c #627FA9",
"J 	c #EBEBEB",
"K 	c #E8E8E9",
"L 	c #E8E8E8",
"M 	c #E8E8E7",
"N 	c #E7E7E7",
"O 	c #E7E6E6",
"P 	c #E6E6E6",
"Q 	c #E5E6E6",
"R 	c #E6E5E6",
"S 	c #E5E5E5",
"T 	c #E5E4E4",
"U 	c #E4E4E5",
"V 	c #E4E5E4",
"W 	c #E4E4E4",
"X 	c #617EA7",
"Y 	c #627FA8",
"Z 	c #E9E8E8",
"` 	c #E4E5E5",
" .	c #E4E3E3",
"..	c #E3E3E3",
"+.	c #E3E2E3",
"@.	c #E2E2E3",
"#.	c #E2E2E2",
"$.	c #E2E1E2",
"%.	c #E1E1E1",
"&.	c #E7E6E7",
"*.	c #E2E3E3",
"=.	c #E1E0E1",
"-.	c #E0E0E0",
";.	c #E0DFE0",
">.	c #DFE0E0",
",.	c #DFDFDF",
"'.	c #E1E0E0",
").	c #E0DFDF",
"!.	c #DFDFDE",
"~.	c #DEDEDF",
"{.	c #DEDEDE",
"].	c #DDDEDE",
"^.	c #DDDDDD",
"/.	c #DDDCDD",
"(.	c #DCDCDC",
"_.	c #E0E0E1",
":.	c #DFDEDE",
"<.	c #DEDDDD",
"[.	c #DDDDDE",
"}.	c #DDDDDC",
"|.	c #DCDCDD",
"1.	c #DBDCDC",
"2.	c #DBDBDB",
"3.	c #DBDADB",
"4.	c #DADADA",
"5.	c #617FA8",
"6.	c #DADBDB",
"7.	c #DBDADA",
"8.	c #D9D9DA",
"9.	c #DAD9DA",
"0.	c #D9D9D9",
"a.	c #D9D9D8",
"b.	c #D8D9D9",
"c.	c #D8D8D8",
"d.	c #D7D8D8",
"e.	c #D8D7D7",
"f.	c #D7D7D7",
"g.	c #D7D7D6",
"h.	c #D6D7D7",
"i.	c #D6D6D6",
"j.	c #D5D6D6",
"k.	c #D6D5D5",
"l.	c #D5D5D5",
"m.	c #DADADB",
"n.	c #D5D6D5",
"o.	c #D5D4D4",
"p.	c #D4D4D4",
"q.	c #D4D3D3",
"r.	c #D3D3D3",
"s.	c #D2D2D3",
"t.	c #D2D2D2",
"u.	c #D3D4D3",
"v.	c #D3D2D2",
"w.	c #D2D1D1",
"x.	c #D1D1D1",
"y.	c #D0D0D1",
"z.	c #D0D0D0",
"A.	c #D1D0D1",
"B.	c #D1D0D0",
"C.	c #D0D0CF",
"D.	c #CFD0D0",
"E.	c #CFCFCF",
"F.	c #CFCFCE",
"G.	c #CECFCE",
"H.	c #CECECE",
"I.	c #CECDCE",
"J.	c #CECECD",
"K.	c #CDCDCD",
"L.	c #CECECF",
"M.	c #CFCECE",
"N.	c #CDCECD",
"O.	c #CDCDCC",
"P.	c #CCCDCC",
"Q.	c #CCCCCC",
"R.	c #CCCBCC",
"S.	c #CCCCCB",
"T.	c #CBCBCB",
"U.	c #D3D3D4",
"V.	c #617EA8",
"W.	c #CBCCCC",
"X.	c #CACACA",
"Y.	c #C9C9C9",
"Z.	c #C8C8C9",
"`.	c #C9C8C9",
" +	c #C8C8C8",
".+	c #D2D1D2",
"++	c #C9CACA",
"@+	c #C7C7C7",
"#+	c #C6C6C7",
"$+	c #C6C6C6",
"%+	c #C7C6C7",
"&+	c #C6C7C7",
"*+	c #C5C5C6",
"=+	c #C5C5C5",
"-+	c #C5C4C5",
";+	c #C4C4C5",
">+	c #C4C4C4",
",+	c #C4C3C4",
"'+	c #C3C3C3",
")+	c #C4C5C5",
"!+	c #C3C3C4",
"~+	c #C2C2C2",
"{+	c #C2C1C2",
"]+	c #C1C1C1",
"^+	c #4D6E9C",
"/+	c #AEBBCD",
"(+	c #ACB9CC",
"_+	c #A8B6C9",
":+	c #ABB9CC",
"<+	c #ABB9CB",
"[+	c #ABB8CB",
"}+	c #AAB8CB",
"|+	c #AAB8CA",
"1+	c #AAB7CA",
"2+	c #A9B7CA",
"3+	c #A6B4C7",
"4+	c #4C6C9B",
"5+	c #2E5690",
"6+	c #4B78B3",
"7+	c #4A77B2",
"8+	c #38649F",
"9+	c #4A78B3",
"0+	c #4978B3",
"a+	c #4977B3",
"b+	c #4977B2",
"c+	c #4877B2",
"d+	c #4876B2",
"e+	c #4776B2",
"f+	c #36639F",
"g+	c #4775B1",
"h+	c #4675B1",
"i+	c #2B548E",
"j+	c #24487B",
"k+	c #35588B",
"l+	c #345689",
"m+	c #345688",
"n+	c #335588",
"o+	c #2B4F83",
"p+	c #335688",
"q+	c #335587",
"r+	c #335687",
"s+	c #34578A",
"t+	c #234678",
"                                                                ",
"                                                                ",
"  . + @ @ @ @ @ @ @ @ @ @ @ @ @ # # @ @ $ $ $ % & & & & * = -   ",
"  ; > , , , , , , , , , , , , , , , , , , , ' ' ' ) ) ! ! ~ {   ",
"  ] ^ / / / / / / / / / / / / / / / / / / / / / / / / / / ( _   ",
"  % : < < < < < < < < < < < < < < < < < < < < < < < < < < [ }   ",
"  | 1 2 2 2 2 2 2 2 2 2 2 2 2 2 2 2 2 2 2 2 2 2 2 2 2 2 2 1 3   ",
"  4 5 6 6 6 6 6 6 6 6 6 6 6 6 6 6 7 7 7 7 7 7 7 7 7 7 7 7 8 9   ",
"  0 a b b b b b b b b b b b c b b d d d d d d d d d d d d e f   ",
"  g h i i i j j j k k l l l l l m n n n n n n o p p p p p q r   ",
"  s t u v v w x y y y y y z z z A A B B C C C D D E E F F G H   ",
"  I J K L L M L N N N N N O P P P P Q R S S S S S T U V W N X   ",
"  Y Z S S S ` U W W W W W W  .........+.@.#.#.#.$.#.#.%.%.W X   ",
"  Y &.......*.@.#.#.#.#.#.#.%.%.%.=.%.=.-.-.-.-.;.>.-.,.,.+.X   ",
"  Y ` '.-.-.-.).,.,.,.!.,.,.~.{.{.{.{.].^.^.^.^.^./.(.(.(._.X   ",
"  Y ..:.{.{.{.<.[.^.^.}.^.^.|.(.(.(.(.1.2.2.2.2.2.3.4.4.4.,.X   ",
"  5._.2.2.6.6.7.4.4.4.4.4.8.9.0.0.a.b.b.a.c.c.c.c.d.e.f.f.(.X   ",
"  5.,.0.0.b.b.c.c.c.c.c.c.f.f.f.f.g.h.h.i.i.i.i.i.j.k.l.l.m.X   ",
"  5./.i.i.i.i.i.n.l.l.l.l.o.p.p.p.p.p.q.r.r.r.r.r.s.t.t.t.0.X   ",
"  Y 2.p.p.p.p.p.u.r.r.r.r.v.t.t.t.t.t.w.x.x.x.x.x.y.z.z.z.f.X   ",
"  Y 0.x.x.x.x.A.B.z.z.z.z.C.D.E.E.E.E.F.G.H.H.H.I.J.K.K.K.l.X   ",
"  Y f.E.E.E.E.L.M.H.H.H.H.J.N.K.K.K.K.O.P.Q.Q.Q.R.S.T.T.T.U.V.  ",
"  Y l.Q.Q.Q.Q.W.T.T.T.T.X.X.X.X.X.X.X.Y.Y.Y.Y.Y.Y.Z.`. + +.+5.  ",
"  I p.X.X.X.++++Y.Y.Y.Y. + + + + + + +@+@+@+@+@+@+#+#+$+$+z.5.  ",
"  I t.@+@+@+%+#+&+$+$+$+$+$+*+=+=+=+=+-+;+>+>+>+>+,+,+'+'+H.I   ",
"  I z.=+=+=+-+=+)+>+>+>+>+>+!+'+'+'+'+'+~+~+~+~+~+{+{+]+]+K.Y   ",
"  ^+/+(+(+(+(+_+(+:+:+:+:+<+[+<+[+[+}+}+|+1+1+2+3+2+2+2+2+:+4+  ",
"  5+6+6+6+6+7+8+9+0+0+0+a+b+b+b+b+b+c+c+c+c+d+e+f+g+e+e+e+h+i+  ",
"  j+k+l+m+m+n+o+n+m+m+m+m+m+p+q+q+q+q+q+q+q+q+q+o+q+q+r+r+s+t+  ",
"                                                                ",
"                                                                ",
"                                                                "};
