/* XPM */
static char *pidgin-menu[] = {
/* columns rows colors chars-per-pixel */
"32 32 126 2",
"   c #2E3436",
".  c #35243C",
"X  c #3C1A42",
"o  c #31234D",
"O  c #401C46",
"+  c #431F4A",
"@  c #402046",
"#  c #44234A",
"$  c #48284E",
"%  c #4A2651",
"&  c #4E2D53",
"*  c #54345A",
"=  c #503855",
"-  c #58365F",
";  c #593D5E",
":  c #5B3B61",
">  c #5E3868",
",  c #6D4475",
"<  c #6E4179",
"1  c #6B4B72",
"2  c #6F4D79",
"3  c #635666",
"4  c #6B5270",
"5  c #70457B",
"6  c #704F77",
"7  c #714A7C",
"8  c #715276",
"9  c #725079",
"0  c #78517F",
"q  c #787878",
"w  c #754680",
"e  c #764C82",
"r  c #784B82",
"t  c #7E4E89",
"y  c #755380",
"u  c #7C5585",
"i  c #7E5788",
"p  c #7D5985",
"a  c #7F5C88",
"s  c #B6625C",
"d  c #BC6C64",
"f  c #BA797F",
"g  c #D5693B",
"h  c #F7741B",
"j  c #F9751A",
"k  c #E96F29",
"l  c #EE7124",
"z  c #F97E29",
"x  c #C1634F",
"c  c #814E8D",
"v  c #81508D",
"b  c #815E87",
"n  c #815B8A",
"m  c #8B5284",
"M  c #845390",
"N  c #865D91",
"B  c #895596",
"V  c #8A5D93",
"C  c #915B9D",
"Z  c #955EA1",
"A  c #816587",
"S  c #83638C",
"D  c #816A85",
"F  c #886A8F",
"G  c #8B6195",
"H  c #8A6B92",
"J  c #8F6899",
"K  c #8C7093",
"L  c #916E99",
"P  c #94729A",
"I  c #98769F",
"U  c #9561A1",
"Y  c #9D65A8",
"T  c #9773A0",
"R  c #9A76A3",
"E  c #9F71A9",
"W  c #9C7AA4",
"Q  c #A3708F",
"!  c #B27A8D",
"~  c #A26BAE",
"^  c #A476B0",
"/  c #AA7CB3",
"(  c #F9812F",
")  c #FA924B",
"_  c #FA9651",
"`  c #F3A06C",
"'  c #F6AC79",
"]  c #FBAB73",
"[  c #818181",
"{  c #8B8B8B",
"}  c #938196",
"|  c gray57",
" . c gray60",
".. c #A986B2",
"X. c #A798A9",
"o. c #A89BAB",
"O. c #B08CB9",
"+. c #B195B7",
"@. c #BDB3BF",
"#. c #BDA2C3",
"$. c #D2B2B5",
"%. c #DFBDB3",
"&. c #EFAE8A",
"*. c #E1A794",
"=. c #F8B486",
"-. c #C4A5CB",
";. c #C9B2CD",
":. c #D0B4D7",
">. c #D2B7D8",
",. c #D3B9D8",
"<. c #CBC4CC",
"1. c #D2D2D2",
"2. c #DBD6DB",
"3. c #DBC4E0",
"4. c #DFCFE3",
"5. c #E2DEE2",
"6. c #EBDFED",
"7. c #E5E4E5",
"8. c #E9E4EA",
"9. c #EEEEEE",
"0. c #EFE5F1",
"q. c #F2EBF3",
"w. c #F3F3F3",
"e. c #F9F6F9",
"r. c #FDFDFD",
"t. c None",
/* pixels */
"t.t.t.t.t.t.t.t.t.t.t.q [ q q q q q q q q q q q q q q q [ q t.t.",
"t.t.t.t.t.t.t.t.t.t.q | w.r.r.r.r.r.r.r.r.r.r.r.r.r.r.r.9.| [ t.",
"t.t.t.t.t.t.t.t.t.q { r.r.r.e.r.e.r.r.r.e.r.e.r.r.r.e.r.r.r.{ q ",
"t.t.t.t.t.t.t.t.t.[ 7.r.r.e.r.e.r.r.e.e.r.e.r.e.e.r.r.e.r.r.7.[ ",
"t.t.t.t.t.t.t.t.t.q r.e.r.e.e.e.e.e.e.e.e.e.e.e.e.e.e.e.e.e.r.[ ",
"t.t.t.t.t.t.t.t.X @ } 9.e.e.e.e.e.e.e.e.e.e.e.e.e.e.e.e.e.e.r.q ",
"t.t.t.t.t.t.X X X 3 $ ; 7.e.e.e.e.e.e.e.e.e.e.e.e.e.e.e.e.e.r.q ",
"t.t.t.t.t.t.o X X @ o & 4 X.7.e.e.w.e.w.e.e.w.e.w.e.w.e.w.e.r.q ",
"t.t.t.t.t.X X - p H W P a 1 % @.w.e.w.e.e.w.e.w.e.w.w.e.w.e.r.q ",
"t.t.t.t.X + a W S y 6 y n L L * D w.w.w.w.w.w.e.w.w.e.w.w.w.r.q ",
"t.t.t.X + I G e 2 w 7 7 7 7 n W ; o.w.w.w.w.w.w.w.w.w.w.w.w.r.q ",
"t.t.X X S J e r e e e e e e r n I & 2.w.w.w.w.w.w.w.w.w.w.w.r.q ",
"t.t.X : W E 8.0.O.v t t t t c c J J S w.w.9.w.9.w.9.w.w.w.w.r.q ",
"t.t.X a U 3.r.r.r.^ v v v M c C -.q.+.9.w.9.9.w.9.w.9.9.9.9.r.q ",
"t.t.O P Y q.H H r.,.v v M M M Z F F q.8.w.9.9.9.9.w.w.9.9.9.e.[ ",
"t.t.X W ~ 0.H H r.4.v v c t c C A H e.<.9.9.9.9.9.9.9.9.9.w.w.[ ",
"t.t.@ W Y :.r.r.r...c c v v c B / 8.;.7.w.9.9.9.9.9.9.9.9.e.7.q ",
"t.t.O W B ~ >.q.#.M c M v v v M B U < r.r.r.r.e.9.e.r.r.r.e.{ q ",
"t.t.O W t M c c c v v %.=.' $.t V S = q q q [ r.r.1.q q q [ q t.",
"t.t.X R v v M c ! *.&.] _ ( j g d 6 X t.t.t.q e. .[ q q q t.t.t.",
"t.t.O I M M c M t ! ` ) ( j j l Q : X t.t.t.q q q t.t.t.t.t.t.t.",
"t.t.X R M t M t M c m s g l x m R $ X t.t.t.q q t.t.t.t.t.t.t.t.",
"t.X & R t M c c c c c c c c v c R + t.t.t.t.t.t.t.t.t.t.t.t.t.t.",
"t.X 1 G m c c c c c c c v v c c T & X t.t.t.t.t.t.t.t.t.t.t.t.t.",
"t.X F 7 c c c c c c c c c c c c a 8 X X t.t.t.t.t.t.t.t.t.t.t.t.",
"X & G t c c M c c M c c c v c c 5 S 8 @ X t.t.t.t.t.t.t.t.t.t.t.",
"X 9 u 5 c c c c c c c c c v v t 5 < u S : + X t.t.t.t.t.t.t.t.t.",
"O a 5 < t c c c c c c c c v t 5 < < < 5 i 6 % X t.t.t.t.t.t.t.t.",
"X i 5 < 5 t c c c c c c c c w < < 5 < < < e 6 O t.t.t.t.t.t.t.t.",
"O > 0 n n n V V G G G G G V N i i u i u i a 7 O t.t.t.t.t.t.t.t.",
". @ # # # O X X X X O O X X X X X X X X X X X X t.t.t.t.t.t.t.t.",
"                                                t.t.t.t.t.t.t.t."
};
