/* XPM */
static char * vnterm_xpm[] = {
"48 48 45 1",
" 	c None",
".	c #71C671C671C6",
"X	c #79E771C679E7",
"o	c #DB6C82070000",
"O	c #DB6C8A280000",
"+	c #820771C68207",
"@	c #FBEEAAAA2081",
"#	c #FBEEAAAA1861",
"$	c #8A2871C68A28",
"%	c #FBEEE38DBAEA",
"&	c #79E771C671C6",
"*	c #FFFFFFFFFFFF",
"=	c #FBEEE38DC30B",
"-	c #FBEEFBEEDB6C",
";	c #000000000000",
":	c #9A69A2899A69",
">	c #A289A289A289",
",	c #A289A2899A69",
"<	c #9A69A289A289",
"1	c #D34CCB2BCB2B",
"2	c #C30BBAEABAEA",
"3	c #BAEAC30BC30B",
"4	c #D34CD34CD34C",
"5	c #D34CCB2BD34C",
"6	c #C30BC30BC30B",
"7	c #BAEABAEAC30B",
"8	c #C30BC30BBAEA",
"9	c #924871C69248",
"0	c #D34CD34CCB2B",
"q	c #FBEEFFFFFBEE",
"w	c #CB2BCB2BD34C",
"e	c #DB6CE38DDB6C",
"r	c #C30BBAEAC30B",
"t	c #71C671C669A6",
"y	c #8A2871C68207",
"u	c #AAAA71C6AAAA",
"i	c #9A6971C69A69",
"p	c #FBEEBAEA5144",
"a	c #E38D86170000",
"s	c #E38D8A280000",
"d	c #EBAD8A280820",
"f	c #820771C679E7",
"g	c #71C671C679E7",
"h	c #FBEECB2B8207",
"j	c #F3CE8A280000",
"                                                ",
"                                                ",
"                                                ",
"                                                ",
"                                                ",
"               ....................             ",
"               ....................             ",
"              XoOOOOOOOOOOOOOOOOOO..            ",
"             +@oOOOO@#@@#@@O@#@@#@..            ",
"            $%%%%%%%%%%%%%%%%%%%%%&***          ",
"            +%=&&****&&&&*******-=**;**         ",
"            +=&:>*;;*,<>,*;;*;;* @*;;;******    ",
"            $%.>1*;;**23**;;*;;* *;;*;;**;;*    ",
"            $%.>3**;;*45*;;***** ********;;***  ",
"            $%.>2 *;;****;;**;;***;;;;**;;;;;*  ",
"            $=.>64*;;;**;;;**;;**;;**;;**;;***  ",
"            $%.>74**;;**;;***;;**;;**;;**;;*    ",
"            $%.>854*;;;*;;***;;**;;;;;;**;;*    ",
"            9%.>705**;;;;***q;;**;;******;;*    ",
"            9%.>8w4e*;;;;* **;;**;;******;;***  ",
"            9%.>7050**;;**00*;;**;;;*;;**;;*;*  ",
"            9%.>8w400*;;*eee*;;***;;;;****;;**  ",
"            9=.>78r00****000****0******  ****   ",
"            9%.>00 0000 00 000e>0@*;;*          ",
"            9=.>>>>>>>>>>>>>>>>>0@*;;*          ",
"            9=-                  @****          ",
"            9%@@@@@@@@@@@@@@@@@@@@tt            ",
"             y&&&&&ttttttttttttttttt            ",
"        uui9+**********tttttttttttttttt         ",
"       ip@@@#*;;;;;;;;*@@@@@@@@@@@@@@@@@@       ",
"       +%%%%%****;;****===============tt        ",
"      $%as%ds%ds*;;*OO=******O***************** ",
"      f%OO%sO%Os*;;*OO**;;;;***;;*;;*;;*;;*;;;**",
"      X%%%%%%%%=*;;*==*;;**;;**;;;;;*;;;*;;;*;;*",
"     X@%@=@@%@@%*;;*@%*;;**;;**;;****;;**;;**;;*",
"     g@%@%@@%@@%*;;*@%*;;;;;;**;;*@@*;;**;;**;;*",
"    .@#%%%%%%%%%*;;*%%*;;******;;*%%*;;**;;**;;*",
"    .#@phhhhhhhh*;;*hh*;;******;;*hh*;;**;;**;;*",
"    .##@@#@@#@@#*;;*@@*;;;*;;**;;*@@*;;**;;**;;*",
"    .Osaaajjjjjj*;;*OO*O;;;;***;;*OO*;;**;;**;;*",
"    t.tttttttttt****ttt******t****tt************",
"     ..............ttttttttt;ttttttttt;;tt      ",
"                                                ",
"                                                ",
"                                                ",
"                                                ",
"                                                ",
"                                                "};
