/* XPM */
static char * xfce4_appfinder_xpm[] = {
"32 32 467 2",
"  	c None",
". 	c #FEFEFE",
"+ 	c #FAFAFA",
"@ 	c #D3D3D2",
"# 	c #F6F6F6",
"$ 	c #8E8E8D",
"% 	c #E0E0E0",
"& 	c #FBFBF6",
"* 	c #A7A7A7",
"= 	c #494948",
"- 	c #9C9C9C",
"; 	c #FCFCF9",
"> 	c #EEEEEC",
", 	c #CBCBC9",
"' 	c #5B5B5B",
") 	c #161616",
"! 	c #000000",
"~ 	c #151414",
"{ 	c #5A5A58",
"] 	c #2B2B2A",
"^ 	c #D4D4D4",
"/ 	c #2B2B2B",
"( 	c #30302E",
"_ 	c #989898",
": 	c #E4E4E4",
"< 	c #5E5E5E",
"[ 	c #24241E",
"} 	c #626262",
"| 	c #080808",
"1 	c #090907",
"2 	c #0C0C0A",
"3 	c #020201",
"4 	c #111110",
"5 	c #11110E",
"6 	c #151511",
"7 	c #0A0A08",
"8 	c #373737",
"9 	c #686856",
"0 	c #2E2E28",
"a 	c #464646",
"b 	c #AEAEAE",
"c 	c #424241",
"d 	c #8E8E76",
"e 	c #4B4B3E",
"f 	c #626251",
"g 	c #85856E",
"h 	c #3D3D33",
"i 	c #686857",
"j 	c #9A9A80",
"k 	c #ADAD90",
"l 	c #4B4B3F",
"m 	c #515150",
"n 	c #97977D",
"o 	c #E5E5BE",
"p 	c #86866F",
"q 	c #35352C",
"r 	c #22221D",
"s 	c #B8B899",
"t 	c #636352",
"u 	c #040404",
"v 	c #4C4C40",
"w 	c #93937A",
"x 	c #E7E7C4",
"y 	c #F1F1DB",
"z 	c #FAFAF3",
"A 	c #F0F0D8",
"B 	c #E7E7C1",
"C 	c #454539",
"D 	c #010101",
"E 	c #717171",
"F 	c #72725F",
"G 	c #E7E7C0",
"H 	c #E5E5BF",
"I 	c #CCCCAA",
"J 	c #AEAE91",
"K 	c #B0B092",
"L 	c #0D0D0A",
"M 	c #2D2D26",
"N 	c #B3B395",
"O 	c #E0E0BA",
"P 	c #F7F7EA",
"Q 	c #FDFDFC",
"R 	c #FBFBF7",
"S 	c #EBEBCC",
"T 	c #272721",
"U 	c #030302",
"V 	c #212121",
"W 	c #262626",
"X 	c #020202",
"Y 	c #242424",
"Z 	c #B8B8B8",
"` 	c #949494",
" .	c #B4B4B4",
"..	c #C8C8C8",
"+.	c #E1E1E1",
"@.	c #979797",
"#.	c #4C4C3E",
"$.	c #E2E2BC",
"%.	c #D6D6B2",
"&.	c #414136",
"*.	c #1C1C17",
"=.	c #878770",
"-.	c #EFEFD6",
";.	c #EDEDD3",
">.	c #747460",
",.	c #2E2E26",
"'.	c #292923",
").	c #0B0B09",
"!.	c #595959",
"~.	c #171713",
"{.	c #35352E",
"].	c #262625",
"^.	c #383838",
"/.	c #333333",
"(.	c #393930",
"_.	c #D3D3B0",
":.	c #B4B495",
"<.	c #1A1A15",
"[.	c #4E4E41",
"}.	c #C8C8A6",
"|.	c #F5F5E6",
"1.	c #FCFCFA",
"2.	c #EDEDD1",
"3.	c #DBDBB6",
"4.	c #B5B596",
"5.	c #A8A8A8",
"6.	c #232322",
"7.	c #D0D0AC",
"8.	c #E4E4BD",
"9.	c #C2C2A1",
"0.	c #A0A084",
"a.	c #E6E6BF",
"b.	c #DDDDB8",
"c.	c #666656",
"d.	c #24241F",
"e.	c #585849",
"f.	c #DBDBD1",
"g.	c #F4F4E4",
"h.	c #E8E8C2",
"i.	c #898972",
"j.	c #5C5C5C",
"k.	c #737360",
"l.	c #CFCFAC",
"m.	c #646453",
"n.	c #0B0B0A",
"o.	c #040403",
"p.	c #838382",
"q.	c #8F8F8F",
"r.	c #40403F",
"s.	c #434341",
"t.	c #EEEEEE",
"u.	c #F8F8EE",
"v.	c #E9E9C6",
"w.	c #37372E",
"x.	c #CACACA",
"y.	c #2A2A25",
"z.	c #B4B496",
"A.	c #E2E2BB",
"B.	c #47473C",
"C.	c #767676",
"D.	c #050504",
"E.	c #FDFDFB",
"F.	c #C6C6C5",
"G.	c #4C4C49",
"H.	c #737368",
"I.	c #D7D7B8",
"J.	c #FCFCFC",
"K.	c #3E3E3E",
"L.	c #656554",
"M.	c #9C9C82",
"N.	c #383837",
"O.	c #DEDEDE",
"P.	c #919191",
"Q.	c #BFBFBF",
"R.	c #DADADA",
"S.	c #545453",
"T.	c #666654",
"U.	c #BBBB9B",
"V.	c #131310",
"W.	c #ACACAC",
"X.	c #0C0C0B",
"Y.	c #25251E",
"Z.	c #434338",
"`.	c #919179",
" +	c #C5C5A4",
".+	c #313128",
"++	c #C3C3C2",
"@+	c #B5B5B5",
"#+	c #898888",
"$+	c #FDFDFD",
"%+	c #40403E",
"&+	c #919178",
"*+	c #1A1A1A",
"=+	c #0F0F0E",
"-+	c #4D4D40",
";+	c #A7A78B",
">+	c #373734",
",+	c #C8C7C7",
"'+	c #1F1E1E",
")+	c #4A4A4A",
"!+	c #EAEAEA",
"~+	c #BABABA",
"{+	c #2E2E2A",
"]+	c #47463A",
"^+	c #202020",
"/+	c #70705D",
"(+	c #868670",
"_+	c #5D5D5D",
":+	c #DBDADA",
"<+	c #533535",
"[+	c #441616",
"}+	c #060606",
"|+	c #878686",
"1+	c #777776",
"2+	c #8D8D75",
"3+	c #858585",
"4+	c #171717",
"5+	c #909078",
"6+	c #606050",
"7+	c #878787",
"8+	c #DAD8D8",
"9+	c #574848",
"0+	c #C03939",
"a+	c #E86D6D",
"b+	c #4D3939",
"c+	c #D9D9D9",
"d+	c #36362D",
"e+	c #D0D0AD",
"f+	c #BFBF9E",
"g+	c #2A2A23",
"h+	c #8D8D8D",
"i+	c #6F6F5C",
"j+	c #5E5D5D",
"k+	c #553232",
"l+	c #C33D3D",
"m+	c #FE8888",
"n+	c #FFBEBE",
"o+	c #EDD3D3",
"p+	c #6D5554",
"q+	c #1D1D1D",
"r+	c #9A9999",
"s+	c #F8F8F8",
"t+	c #2F2F2B",
"u+	c #AFAF92",
"v+	c #DCDCB7",
"w+	c #98987E",
"x+	c #ABABAA",
"y+	c #1D1D1C",
"z+	c #A0A085",
"A+	c #939178",
"B+	c #200E0E",
"C+	c #C54141",
"D+	c #FC7D7D",
"E+	c #FFC3C3",
"F+	c #FFE7E7",
"G+	c #ED7D7D",
"H+	c #501616",
"I+	c #0C0B0B",
"J+	c #696968",
"K+	c #C1C1C1",
"L+	c #3C3C3B",
"M+	c #7A7A66",
"N+	c #59594A",
"O+	c #5F5F4F",
"P+	c #47473B",
"Q+	c #343131",
"R+	c #BBBBBB",
"S+	c #0F0F0D",
"T+	c #B9B99B",
"U+	c #D5D5B1",
"V+	c #C0BE9E",
"W+	c #502B25",
"X+	c #C64545",
"Y+	c #FF8E8E",
"Z+	c #FFC9C9",
"`+	c #FFE6E6",
" @	c #FFBCBC",
".@	c #FE7777",
"+@	c #FF4141",
"@@	c #CF1313",
"#@	c #310A0A",
"$@	c #0B0B0B",
"%@	c #0E0E0C",
"&@	c #161612",
"*@	c #3F3E33",
"=@	c #9E9E83",
"-@	c #303030",
";@	c #0D0D0B",
">@	c #1F1F1B",
",@	c #BDBC9C",
"'@	c #4F3A31",
")@	c #C84747",
"!@	c #FD8888",
"~@	c #FFE4E4",
"{@	c #FFB6B6",
"]@	c #FE8181",
"^@	c #FF3C3C",
"/@	c #F61818",
"(@	c #571414",
"_@	c #484141",
":@	c #8A8A8A",
"<@	c #7B7B7B",
"[@	c #484747",
"}@	c #272727",
"|@	c #10100E",
"1@	c #898971",
"2@	c #B9B99A",
"3@	c #BCBC9C",
"4@	c #3E3E33",
"5@	c #1A1A17",
"6@	c #060605",
"7@	c #999999",
"8@	c #20201B",
"9@	c #575547",
"0@	c #512A25",
"a@	c #CC4F4F",
"b@	c #FF9D9D",
"c@	c #FFCFCF",
"d@	c #FFB3B3",
"e@	c #FF6E6E",
"f@	c #FF3939",
"g@	c #DD1111",
"h@	c #561717",
"i@	c #5B5959",
"j@	c #D2D2D2",
"k@	c #A1A185",
"l@	c #D2D2AF",
"m@	c #404035",
"n@	c #BCBCBC",
"o@	c #11110F",
"p@	c #38211C",
"q@	c #CD5252",
"r@	c #FE9090",
"s@	c #FFD8D8",
"t@	c #FFADAD",
"u@	c #FF7878",
"v@	c #FF3333",
"w@	c #F51515",
"x@	c #541717",
"y@	c #4B4747",
"z@	c #F7F7F7",
"A@	c #D6D6D6",
"B@	c #505044",
"C@	c #E6E6C0",
"D@	c #E9E9E9",
"E@	c #474544",
"F@	c #401716",
"G@	c #CF5656",
"H@	c #FFA1A1",
"I@	c #FFD6D6",
"J@	c #FFE1E1",
"K@	c #FFA8A8",
"L@	c #FF6464",
"M@	c #FF2F2F",
"N@	c #DA1212",
"O@	c #460C0C",
"P@	c #333232",
"Q@	c #888888",
"R@	c #C9C9C9",
"S@	c #B2B2B2",
"T@	c #6F6E6E",
"U@	c #2C2B27",
"V@	c #8C8C74",
"W@	c #DFDFB9",
"X@	c #E2E2BD",
"Y@	c #E6E6C1",
"Z@	c #3A3A30",
"`@	c #A5A5A4",
" #	c #261212",
".#	c #D35A5A",
"+#	c #FF9999",
"@#	c #FFDADA",
"##	c #FFA5A5",
"$#	c #FF2B2B",
"%#	c #F21616",
"&#	c #4D1614",
"*#	c #2C2923",
"=#	c #2B2B28",
"-#	c #2D2D2B",
";#	c #3B3B32",
">#	c #6A6A58",
",#	c #A9A98C",
"'#	c #4E4E40",
")#	c #646353",
"!#	c #8F8F7A",
"~#	c #B6B697",
"{#	c #605E5E",
"]#	c #441818",
"^#	c #D45C5C",
"/#	c #FFACAC",
"(#	c #FFD9D9",
"_#	c #FFD5D5",
":#	c #FF5959",
"<#	c #FF2929",
"[#	c #D81313",
"}#	c #4D1917",
"|#	c #5A5A4A",
"1#	c #B2B294",
"2#	c #E3E3BC",
"3#	c #BDBD9D",
"4#	c #260A0A",
"5#	c #D66161",
"6#	c #FFA2A2",
"7#	c #FFE0E0",
"8#	c #FF9A9A",
"9#	c #FF6666",
"0#	c #FF2626",
"a#	c #F11616",
"b#	c #4D1A18",
"c#	c #48473A",
"d#	c #632F2F",
"e#	c #FFB5B5",
"f#	c #FFCBCB",
"g#	c #FF9898",
"h#	c #FF5353",
"i#	c #FF2020",
"j#	c #D51A1A",
"k#	c #4C1C19",
"l#	c #525243",
"m#	c #777763",
"n#	c #7A7A65",
"o#	c #B9B999",
"p#	c #767663",
"q#	c #BABA9B",
"r#	c #25251F",
"s#	c #261B1B",
"t#	c #FFD3D3",
"u#	c #FF9393",
"v#	c #FE5D5D",
"w#	c #FF1E1E",
"x#	c #EF1D1D",
"y#	c #471B19",
"z#	c #38332A",
"A#	c #2C2C26",
"B#	c #181815",
"C#	c #10100D",
"D#	c #A8A88B",
"E#	c #7C7C67",
"F#	c #82826C",
"G#	c #5D5D4E",
"H#	c #070707",
"I#	c #21211C",
"J#	c #7A7A67",
"K#	c #D4D4B0",
"L#	c #48483C",
"M#	c #030000",
"N#	c #BF9393",
"O#	c #FC8D8D",
"P#	c #FE4949",
"Q#	c #FF1C1C",
"R#	c #D12020",
"S#	c #380F0F",
"T#	c #313131",
"U#	c #030303",
"V#	c #5E5E4E",
"W#	c #2C2C25",
"X#	c #040101",
"Y#	c #271616",
"Z#	c #7D2E2E",
"`#	c #C71818",
" $	c #E22222",
".$	c #360D0D",
"+$	c #020101",
"@$	c #B9B9B9",
"#$	c #080807",
"$$	c #121210",
"%$	c #050101",
"                      . + @         # $                         ",
"            . % &     . * = - ; > , ' ) ! ! ! ~ { ]             ",
"            ^ / ( _ : . < [ / } | | 1 2 3 4 5 6 7 ! !           ",
"            % 8 9 0 a b c d e 3 ! ! f g h i j k l ! ! !         ",
"            # m n o p q r s t u v w x y z z A B C D ! ! !       ",
"    . .       E F G H I J K L M N O P Q . . R S T U V W X Y     ",
"  . Z `  ...+.@.#.$.G G %.&.*.=.G -.. . . . . ;.>.&.,.'.X ).!   ",
"    !.~.{.].^./.(._.G G :.<.[.}.G |.. . . . 1.2.H 3.}.4.t ! !   ",
"    5.6.7.8.9.0.K a.G b.c.! d.e.j f.. . . . g.h.G G G G i.3 !   ",
"      j.k.o G G G G l.m.n.o.p.q.r.s.t.. . u.v.G G G G o w.3 !   ",
"      x.y.z.G G G A.B.' C.D.... E.F.G.H.I.a.G G G G G K ! ! !   ",
"  . J.+.K.L.G G a.M.N.O.P.! Q.. . . R.S.T.3.G G G G G U.V.! D.  ",
"  W.X.Y.Z.`.o G  +.+++. @+X.#+$+. . . # %+>.G G G G G G &+X ! ! ",
"  *+=+-+3.G G G ;+>+E.. ,+'+)+!+. . . . ~+{+l.a.G G G G ]+! o.! ",
"  . x.^+/+a.G G (+_+. :+<+[+}+|+. . . . + 1+m.o G G o 2+! o.!   ",
"  . 3+4+5+G G G 6+7+8+9+0+a+b+) c+. . . . x.d+e+G G f+g+o.! !   ",
"    h+4+L.a.G G i+j+k+l+m+n+o+p+q+r+s+. . . t+u+v+w+V.L o.! !   ",
"  . x+y+z+G G G A+B+C+D+E+F+n+G+H+I+J+K+# . L+M+N+5 *.O+P+3 Q+  ",
"  R+S+t T+U+a.V+W+X+Y+Z+`+ @.@+@@@#@$@u X %@! X &@*@=@U.z+,.! ! ",
"  -@D ;@>@9 ,@'@)@!@Z+~@{@]@^@/@(@_@:@<@[@}@|@e 1@2@3@4@5@6@! ! ",
"    8 7@8@9@0@a@b@c@`+d@e@f@g@h@i@Z . . j@/.k@a.o G l@m@! ! ! ! ",
"    . n@o@p@q@r@s@`+t@u@v@w@x@y@n@z@. A@L+B@8.G H H C@n ! !     ",
"    D@E@F@G@H@I@J@K@L@M@N@O@P@Q@R@S@T@U@V@W@G G X@Y@8.C@Z@!     ",
"  . `@ #.#+#@#J@##e@$#%#&#*#(.=#-#;#>#,#8.G G l.'#)#!#~#2+2 !   ",
"  {#]#^#/#(#_#H@:#<#[#}#|#1#G o 2#a.G G G G G 3#! ! ! ! ! ! !   ",
"  4#5#6#7#@#8#9#0#a#b#c#~#2#G G G G G o 8.a.G b.! !     ! ! !   ",
"  d#e#J@f#g#h#i#j#k#l#m#n#l@G G G G a.o#p#q#a.G r#D             ",
"  s#~@t#u#v#w#x#y#z#A#B#C#D#9.E#4.F#8.G#H#I#J#K#L#D             ",
"  M#N#O#P#Q#R#S#=+D.n.^+T#/+I#U#|@D V#d+D.! ! V.W#! !           ",
"  X#Y#Z#`# $.$+$D U ! @$j.2 #$U#D D $$6@!     ! ! ! !           ",
"    ! ! %$! ! ! !       X 3 !   ! !   ! !         !             ",
"        ! ! !                                                   "};
