/* XPM */
static char *icon22x16_xpm[] = {
"22 11 256 2",
"AA	c #000000",
"BA	c #FF0000",
"CA	c #00FF00",
"DA	c #FFFF00",
"EA	c #0000FF",
"FA	c #FF00FF",
"GA	c #00FFFF",
"HA	c #FFFFFF",
"IA	c #DBDBDB",
"JA	c #B6B6B6",
"KA	c #929292",
"LA	c #6D6D6D",
"MA	c #494949",
"NA	c #242424",
"OA	c #DB0000",
"PA	c #B60000",
"QA	c #920000",
"RA	c #6D0000",
"SA	c #490000",
"TA	c #240000",
"UA	c #00DB00",
"VA	c #00B600",
"WA	c #009200",
"XA	c #006D00",
"YA	c #004900",
"ZA	c #002400",
"aA	c #DBDB00",
"bA	c #B6B600",
"cA	c #929200",
"dA	c #6D6D00",
"eA	c #494900",
"fA	c #242400",
"gA	c #0000DB",
"hA	c #0000B6",
"iA	c #000092",
"jA	c #00006D",
"kA	c #000049",
"lA	c #000024",
"mA	c #DB00DB",
"nA	c #B600B6",
"oA	c #920092",
"pA	c #6D006D",
"qA	c #490049",
"rA	c #240024",
"sA	c #00DBDB",
"tA	c #00B6B6",
"uA	c #009292",
"vA	c #006D6D",
"wA	c #004949",
"xA	c #002424",
"yA	c #FFDBDB",
"zA	c #DBB6B6",
"0A	c #B69292",
"1A	c #926D6D",
"2A	c #6D4949",
"3A	c #492424",
"4A	c #FFB6B6",
"5A	c #DB9292",
"6A	c #B66D6D",
"7A	c #924949",
"8A	c #6D2424",
"9A	c #FF9292",
"+A	c #DB6D6D",
"/A	c #B64949",
"AB	c #922424",
"BB	c #FF6D6D",
"CB	c #DB4949",
"DB	c #B62424",
"EB	c #FF4949",
"FB	c #DB2424",
"GB	c #FF2424",
"HB	c #DBFFDB",
"IB	c #B6DBB6",
"JB	c #92B692",
"KB	c #6D926D",
"LB	c #496D49",
"MB	c #244924",
"NB	c #B6FFB6",
"OB	c #92DB92",
"PB	c #6DB66D",
"QB	c #499249",
"RB	c #246D24",
"SB	c #92FF92",
"TB	c #6DDB6D",
"UB	c #49B649",
"VB	c #249224",
"WB	c #6DFF6D",
"XB	c #49DB49",
"YB	c #24B624",
"ZB	c #49FF49",
"aB	c #24DB24",
"bB	c #24FF24",
"cB	c #DBDBFF",
"dB	c #B6B6DB",
"eB	c #9292B6",
"fB	c #6D6D92",
"gB	c #49496D",
"hB	c #242449",
"iB	c #B6B6FF",
"jB	c #9292DB",
"kB	c #6D6DB6",
"lB	c #494992",
"mB	c #24246D",
"nB	c #9292FF",
"oB	c #6D6DDB",
"pB	c #4949B6",
"qB	c #242492",
"rB	c #6D6DFF",
"sB	c #4949DB",
"tB	c #2424B6",
"uB	c #4949FF",
"vB	c #2424DB",
"wB	c #2424FF",
"xB	c #FFFFDB",
"yB	c #DBDBB6",
"zB	c #B6B692",
"0B	c #92926D",
"1B	c #6D6D49",
"2B	c #494924",
"3B	c #FFFFB6",
"4B	c #DBDB92",
"5B	c #B6B66D",
"6B	c #929249",
"7B	c #6D6D24",
"8B	c #FFFF92",
"9B	c #DBDB6D",
"+B	c #B6B649",
"/B	c #929224",
"AC	c #FFFF6D",
"BC	c #DBDB49",
"CC	c #B6B624",
"DC	c #FFFF49",
"EC	c #DBDB24",
"FC	c #FFFF24",
"GC	c #FFDBFF",
"HC	c #DBB6DB",
"IC	c #B692B6",
"JC	c #926D92",
"KC	c #6D496D",
"LC	c #492449",
"MC	c #FFB6FF",
"NC	c #DB92DB",
"OC	c #B66DB6",
"PC	c #924992",
"QC	c #6D246D",
"RC	c #FF92FF",
"SC	c #DB6DDB",
"TC	c #B649B6",
"UC	c #922492",
"VC	c #FF6DFF",
"WC	c #DB49DB",
"XC	c #B624B6",
"YC	c #FF49FF",
"ZC	c #DB24DB",
"aC	c #FF24FF",
"bC	c #DBFFFF",
"cC	c #B6DBDB",
"dC	c #92B6B6",
"eC	c #6D9292",
"fC	c #496D6D",
"gC	c #244949",
"hC	c #B6FFFF",
"iC	c #92DBDB",
"jC	c #6DB6B6",
"kC	c #499292",
"lC	c #246D6D",
"mC	c #92FFFF",
"nC	c #6DDBDB",
"oC	c #49B6B6",
"pC	c #249292",
"qC	c #6DFFFF",
"rC	c #49DBDB",
"sC	c #24B6B6",
"tC	c #49FFFF",
"uC	c #24DBDB",
"vC	c #24FFFF",
"wC	c #FFDBB6",
"xC	c #DBB692",
"yC	c #B6926D",
"zC	c #926D49",
"0C	c #6D4924",
"1C	c #492400",
"2C	c #FFB692",
"3C	c #DB926D",
"4C	c #B66D49",
"5C	c #924924",
"6C	c #6D2400",
"7C	c #FFB6DB",
"8C	c #DB92B6",
"9C	c #B66D92",
"+C	c #92496D",
"/C	c #6D2449",
"AD	c #490024",
"BD	c #FF92B6",
"CD	c #DB6D92",
"DD	c #B6496D",
"ED	c #922449",
"FD	c #6D0024",
"GD	c #DBB6FF",
"HD	c #B692DB",
"ID	c #926DB6",
"JD	c #6D4992",
"KD	c #49246D",
"LD	c #240049",
"MD	c #B692FF",
"ND	c #926DDB",
"OD	c #6D49B6",
"PD	c #492492",
"QD	c #24006D",
"RD	c #B6DBFF",
"SD	c #92B6DB",
"TD	c #6D92B6",
"UD	c #496D92",
"VD	c #24496D",
"WD	c #002449",
"XD	c #92B6FF",
"YD	c #6D92DB",
"ZD	c #496DB6",
"aD	c #244992",
"bD	c #00246D",
"cD	c #B6FFDB",
"dD	c #92DBB6",
"eD	c #6DB692",
"fD	c #49926D",
"gD	c #246D49",
"hD	c #004924",
"iD	c #92FFB6",
"jD	c #6DDB92",
"kD	c #49B66D",
"lD	c #249249",
"mD	c #006D24",
"nD	c #DBFFB6",
"oD	c #B6DB92",
"pD	c #92B66D",
"qD	c #6D9249",
"rD	c #496D24",
"sD	c #244900",
"tD	c #B6FF92",
"uD	c #92DB6D",
"vD	c #6DB649",
"wD	c #499224",
"xD	c #246D00",
"yD	c #FFB600",
"zD	c #DB9200",
"0D	c #B66D00",
"1D	c #924900",
"2D	c #FF00B6",
"3D	c #DB0092",
"4D	c #B6006D",
"5D	c #920049",
"6D	c #00B6FF",
"7D	c #0092DB",
"8D	c #006DB6",
"9D	c #004992",
"+D	c #000000",
"/D	c #000000",
"EAEAEAEAEAEAEAEAEAEAEAEAEAEAEAEAEAEAEAEAEAEA",
"EADADADADADADADADADADADADADADADADADADADADAEA",
"EADADADADADADADADADADADADADADADADADADADADAEA",
"EADADADADADADADADADADADADADADADADADADADADAEA",
"EADADADADADADADADADADADADADADADADADADADADAEA",
"EADADADADADADADADADADADADADADADADADADADADAEA",
"EADADADADADADADADADADADADADADADADADADADADAEA",
"EADADADADADADADADADADADADADADADADADADADADAEA",
"EADADADADADADADADADADADADADADADADADADADADAEA",
"EADADADADADADADADADADADADADADADADADADADADAEA",
"EAEAEAEAEAEAEAEAEAEAEAEAEAEAEAEAEAEAEAEAEAEA"
};
